if (_typeface_js && _typeface_js.loadFace) _typeface_js.loadFace({"glyphs":{"𝜹":{"x_min":61.109375,"x_max":747.21875,"ha":747,"o":"m 61 234 b 319 -11 61 81 156 -11 b 747 402 548 -11 747 168 b 350 812 747 661 350 687 b 444 890 350 884 408 890 b 627 777 538 890 530 777 b 709 863 694 777 709 823 b 512 951 709 923 586 951 b 245 770 381 951 245 897 b 390 598 245 700 313 637 b 61 236 193 566 61 394 l 61 234 m 586 359 b 344 44 586 237 476 44 b 222 215 259 44 222 83 b 437 545 222 373 308 513 b 586 359 479 545 586 473 "},"𝓊":{"x_min":42.078125,"x_max":962.90625,"ha":1046,"o":"m 930 263 b 643 30 790 98 707 30 b 603 73 614 30 603 48 b 635 176 603 94 608 127 l 857 588 l 749 588 b 255 26 592 263 387 26 b 210 70 228 26 210 47 b 240 179 210 104 222 147 l 461 588 l 357 588 b 125 452 304 529 217 452 b 55 469 101 452 79 458 l 42 433 b 122 411 67 418 94 411 b 296 475 182 411 246 434 l 201 300 b 137 106 161 225 137 161 b 244 -15 137 23 185 -15 b 537 170 337 -15 433 51 l 542 169 b 530 87 537 152 530 102 b 628 -11 530 31 558 -11 b 962 240 729 -11 830 76 l 930 263 "},"‥":{"x_min":154.171875,"x_max":770.828125,"ha":926,"o":"m 770 59 b 694 138 770 101 734 138 b 616 61 651 138 616 104 b 693 -15 616 18 650 -15 b 770 59 734 -15 770 19 m 308 59 b 231 138 308 101 272 138 b 154 61 188 138 154 104 b 230 -15 154 18 187 -15 b 308 59 272 -15 308 19 "},"𝝤":{"x_min":48.609375,"x_max":1031.953125,"ha":1081,"o":"m 1031 468 b 540 961 1031 759 823 961 b 48 468 256 961 48 759 b 541 -25 48 175 258 -25 b 1031 468 826 -25 1031 175 m 840 468 b 541 116 840 256 734 116 b 240 468 347 116 240 256 b 540 819 240 677 347 819 b 840 468 733 819 840 677 "},"𝘃":{"x_min":20.828125,"x_max":620.828125,"ha":642,"o":"m 620 640 l 438 640 l 322 290 l 319 290 l 202 640 l 20 640 l 302 -19 l 338 -19 l 620 640 "},"𝒙":{"x_min":45.828125,"x_max":754.171875,"ha":815,"o":"m 454 464 l 445 490 b 322 642 433 528 404 594 l 109 572 l 120 539 b 193 559 173 559 183 559 b 304 433 247 559 275 512 l 350 307 l 265 172 b 197 90 226 111 212 90 b 129 153 172 90 194 153 b 45 72 73 153 45 116 b 154 -10 45 28 84 -10 b 334 119 245 -10 298 58 l 384 205 l 425 101 b 552 -10 444 50 470 -10 b 718 190 638 -10 688 78 l 684 190 b 608 96 655 103 631 96 b 562 171 580 96 572 144 l 494 362 l 559 472 b 612 528 584 514 593 528 b 668 480 631 528 626 480 b 754 572 747 480 754 541 b 654 642 754 604 719 642 b 484 511 575 642 515 558 l 454 464 "},"𝝶":{"x_min":48.609375,"x_max":658.328125,"ha":708,"o":"m 658 -284 b 631 -161 640 -251 631 -206 l 631 445 b 425 656 631 580 563 656 b 240 570 348 656 294 626 l 237 570 b 201 656 229 615 212 644 l 188 656 l 48 608 b 76 484 66 573 76 534 l 76 0 l 243 0 l 243 406 b 375 525 275 494 338 525 b 465 429 423 525 465 502 l 465 -152 b 481 -284 465 -212 465 -251 l 658 -284 "},"𝑗":{"x_min":-22.8125,"x_max":516.078125,"ha":540,"o":"m 516 786 b 449 855 516 820 485 855 b 382 786 409 855 382 820 b 449 722 382 750 409 722 b 516 786 485 722 516 750 m 486 612 l 267 573 l 271 550 b 309 556 281 554 298 556 b 353 526 339 556 353 543 l 225 22 b 82 -216 192 -111 146 -216 b 68 -202 75 -216 68 -208 b 91 -155 68 -180 91 -176 b 42 -102 91 -123 68 -102 b -22 -175 -6 -102 -22 -144 b 78 -259 -22 -213 4 -259 b 336 22 228 -259 306 -100 l 486 612 "},"𝜲":{"x_min":38.890625,"x_max":1152.78125,"ha":1122,"o":"m 1152 929 l 791 929 l 786 897 l 829 897 b 868 862 856 897 868 881 b 854 825 868 848 862 834 l 663 600 l 590 815 b 579 859 584 831 579 847 b 626 897 579 884 594 897 l 680 897 l 686 929 l 244 929 l 238 897 l 276 897 b 393 786 347 897 376 831 l 516 456 l 241 138 b 44 31 188 77 127 41 l 38 0 l 434 0 l 440 31 l 381 31 b 327 77 348 31 327 52 b 338 108 327 87 330 98 l 552 356 l 640 119 b 647 81 645 105 647 93 b 579 31 647 48 625 31 l 540 31 l 536 0 l 975 0 l 980 31 l 930 31 b 844 125 883 31 865 69 l 708 500 l 954 794 b 1115 897 1001 850 1027 897 l 1148 897 l 1152 929 "},"𝘳":{"x_min":87.5,"x_max":609.71875,"ha":467,"o":"m 609 621 b 536 643 588 642 558 643 b 336 548 480 643 401 618 l 355 637 l 344 645 l 238 611 l 87 0 l 197 0 l 277 324 b 508 544 341 460 429 544 b 556 523 518 544 551 538 l 584 523 l 609 621 "},"𝚿":{"x_min":4.171875,"x_max":1090.28125,"ha":1111,"o":"m 1090 961 l 1044 961 b 848 834 965 961 900 919 b 800 637 816 781 800 715 b 769 491 800 581 790 533 b 661 413 743 438 706 413 l 661 813 b 676 872 661 841 666 859 b 779 904 693 893 726 904 l 779 938 l 318 938 l 318 904 b 418 883 366 904 401 897 b 436 816 430 872 436 850 l 436 413 b 337 475 395 413 362 433 b 297 637 311 518 297 572 b 247 834 297 713 280 780 b 50 961 195 919 129 961 l 4 961 l 4 926 b 61 887 27 926 47 913 b 80 809 73 865 80 838 l 80 801 l 75 676 l 75 661 b 172 444 75 566 111 494 b 436 366 234 393 323 366 l 436 177 b 419 77 436 129 430 95 b 306 34 402 51 366 37 l 306 0 l 788 0 l 788 34 b 688 62 737 38 705 48 b 661 170 670 77 661 113 l 661 366 b 895 425 755 366 834 386 b 1022 658 975 475 1022 554 l 1022 676 l 1016 801 l 1016 808 b 1033 875 1016 830 1023 852 b 1090 926 1048 909 1066 926 l 1090 961 "},"⁒":{"x_min":75,"x_max":579.171875,"ha":654,"o":"m 244 859 b 168 938 244 901 208 938 b 90 861 125 938 90 904 b 166 784 90 818 123 784 b 244 859 208 784 244 819 m 579 980 l 486 980 l 75 -277 l 170 -277 l 579 980 m 563 -161 b 487 -81 563 -119 527 -81 b 409 -159 444 -81 409 -116 b 486 -236 409 -202 443 -236 b 563 -161 527 -236 563 -201 "},"𝛩":{"x_min":69.4375,"x_max":988.890625,"ha":1024,"o":"m 722 590 b 627 511 704 538 673 511 l 463 511 b 386 590 411 511 397 527 l 363 590 l 363 570 b 322 326 363 483 350 395 l 344 326 b 447 405 373 387 395 405 l 609 405 b 680 326 658 405 679 383 l 702 326 l 702 363 b 744 590 702 443 718 522 l 722 590 m 988 548 b 641 929 988 740 894 929 b 69 308 287 929 69 590 b 419 -15 69 116 212 -15 b 988 548 756 -15 988 284 m 827 616 b 430 37 827 405 723 37 b 237 244 322 37 237 106 b 630 877 237 440 306 877 b 827 616 772 877 827 763 "},"ţ":{"x_min":17.90625,"x_max":387.546875,"ha":386,"o":"m 122 -137 l 131 -144 b 170 -138 142 -140 154 -138 b 244 -188 223 -138 244 -152 b 168 -250 244 -226 215 -250 b 77 -233 138 -250 115 -245 l 58 -276 b 175 -298 98 -293 131 -298 b 348 -181 281 -298 348 -254 b 229 -86 348 -120 304 -86 b 193 -90 215 -86 207 -87 l 222 -13 b 387 91 290 -12 341 20 l 369 106 b 286 58 338 70 316 58 b 213 183 234 58 213 94 l 213 580 l 354 580 l 354 625 l 213 625 l 213 786 b 204 804 213 800 211 804 b 176 765 195 790 184 777 b 41 616 123 688 77 637 b 17 590 26 606 17 598 b 23 580 17 586 19 583 l 97 580 l 97 162 b 176 -6 97 69 123 12 l 122 -137 "},"𝟨":{"x_min":44.4375,"x_max":652.78125,"ha":694,"o":"m 622 927 l 620 950 b 198 780 423 930 330 909 b 44 366 104 687 44 522 b 356 -19 44 166 131 -19 b 652 305 530 -19 652 129 b 359 598 652 487 511 598 b 169 539 290 598 226 580 b 597 854 234 736 390 839 l 622 927 m 541 287 b 361 79 541 166 462 79 b 155 333 231 79 155 186 b 348 500 173 447 258 500 b 541 287 445 500 541 427 "},"𝚏":{"x_min":58.328125,"x_max":606.9375,"ha":729,"o":"m 262 625 l 91 625 b 58 591 73 625 58 609 l 58 569 b 91 536 58 551 73 536 l 262 536 l 262 88 l 100 88 b 66 55 81 88 66 73 l 66 33 b 100 0 66 15 81 0 l 505 0 b 538 33 523 0 538 15 l 538 55 b 505 88 538 73 523 88 l 343 88 l 343 536 l 543 536 b 576 569 561 536 576 551 l 576 591 b 543 625 576 609 561 625 l 343 625 l 343 690 b 465 763 343 720 384 763 l 511 763 b 556 731 518 743 538 731 b 606 781 580 731 606 748 b 497 854 606 851 522 854 b 262 690 381 854 262 793 l 262 625 "},"𝗸":{"x_min":76.390625,"x_max":702.78125,"ha":721,"o":"m 702 0 l 383 377 l 673 615 l 673 640 l 487 640 l 243 431 l 243 938 l 76 938 l 76 0 l 243 0 l 243 262 l 270 284 l 505 0 l 702 0 "},"𝕱":{"x_min":75,"x_max":1038.890625,"ha":1115,"o":"m 1004 938 b 836 844 958 859 886 844 b 426 973 719 844 609 973 b 98 701 229 973 98 859 b 330 504 98 587 187 504 b 361 505 340 504 351 504 l 368 541 b 262 659 311 555 262 586 b 394 786 262 738 345 786 b 701 669 523 786 572 713 b 520 416 618 588 520 515 b 604 250 520 358 552 306 b 713 2 655 191 713 127 b 544 -238 713 -162 638 -238 b 380 -22 466 -238 380 -150 b 459 252 380 106 459 155 b 290 395 459 320 411 395 b 75 243 183 395 105 306 l 106 227 b 177 256 125 245 152 256 b 231 204 211 256 231 238 b 166 -18 231 158 166 68 b 540 -284 166 -193 338 -284 b 941 81 787 -284 941 -98 b 775 361 941 187 893 284 b 851 418 806 406 836 418 b 954 322 893 418 927 388 l 990 322 l 990 500 b 901 551 968 529 950 551 b 740 401 848 551 780 479 b 708 488 719 416 708 465 b 762 656 708 563 725 611 l 776 656 b 1038 929 958 656 1018 845 l 1004 938 "},"𝖀":{"x_min":75,"x_max":1123.609375,"ha":1194,"o":"m 1123 111 l 1105 143 b 1012 109 1066 119 1029 109 b 980 169 983 109 980 137 l 980 679 b 1123 938 980 813 984 894 l 1112 973 l 745 843 b 755 570 750 825 755 697 l 755 201 l 550 111 b 293 293 484 184 384 265 b 484 598 426 393 484 462 l 484 772 b 351 973 484 870 437 944 l 316 973 l 84 833 l 102 802 b 211 843 134 820 177 843 b 259 766 238 843 259 826 l 259 466 b 75 184 259 265 152 220 l 75 163 b 369 -34 148 140 304 43 l 761 140 b 869 -19 773 77 805 18 l 906 -19 l 1123 111 "},"𝒒":{"x_min":61.109375,"x_max":738.890625,"ha":731,"o":"m 738 625 l 584 625 l 570 572 l 565 572 b 447 641 544 623 494 641 b 61 175 206 641 61 386 b 236 -13 61 76 123 -13 b 448 77 279 -13 391 -1 l 450 77 l 397 -155 b 294 -255 384 -208 365 -255 l 244 -255 l 236 -284 l 636 -284 l 644 -255 l 597 -255 b 552 -193 568 -255 554 -240 b 559 -155 552 -180 556 -165 l 738 625 m 538 480 b 293 65 538 266 388 65 b 219 162 230 65 219 122 b 454 587 219 365 329 587 b 538 480 494 587 538 554 "},"í":{"x_min":22.21875,"x_max":379.171875,"ha":386,"o":"m 68 704 l 123 704 l 337 838 b 379 897 366 856 379 875 b 330 941 379 925 361 941 b 272 909 309 941 297 934 l 68 704 m 351 0 l 351 20 b 248 145 259 27 248 43 l 248 633 l 241 638 l 27 562 l 27 540 b 86 547 52 547 73 547 b 131 459 120 547 131 525 l 131 144 b 22 20 131 38 118 26 l 22 0 l 351 0 "},"𝔣":{"x_min":37.5,"x_max":438.890625,"ha":454,"o":"m 438 540 l 438 616 l 379 616 b 151 762 265 616 151 641 b 197 816 151 800 172 816 b 309 787 229 816 263 787 b 431 938 388 787 412 894 l 412 950 b 336 913 390 920 368 913 b 226 963 284 913 263 963 b 104 788 129 963 104 848 b 113 651 104 740 113 693 b 37 559 113 583 66 569 l 37 540 l 119 540 l 159 -290 l 241 -290 l 281 540 l 438 540 "},"ņ":{"x_min":22.21875,"x_max":673.609375,"ha":694,"o":"m 673 0 l 673 20 b 588 118 605 27 588 43 l 588 425 b 425 639 588 562 530 639 b 225 526 361 639 297 608 l 223 526 l 223 634 l 212 639 b 22 576 144 614 98 598 l 22 552 b 62 558 31 557 47 558 b 111 468 101 558 111 536 l 111 130 b 25 20 111 48 95 26 l 25 0 l 318 0 l 318 20 b 227 100 247 26 227 45 l 227 483 b 370 562 291 545 325 562 b 472 422 438 562 472 520 l 472 145 b 386 20 472 54 455 26 l 384 0 l 673 0 m 295 -388 b 451 -172 391 -342 451 -255 b 340 -51 451 -99 402 -51 b 256 -130 290 -51 256 -83 b 337 -201 256 -177 286 -201 b 377 -195 352 -201 366 -195 b 397 -213 388 -195 397 -204 b 281 -362 397 -259 358 -311 l 295 -388 "},"𝕨":{"x_min":27.78125,"x_max":965.28125,"ha":939,"o":"m 965 625 l 904 625 l 768 152 l 762 152 l 656 625 l 477 625 l 351 154 l 347 154 l 241 625 l 27 625 l 175 0 l 373 0 l 486 425 l 490 425 l 591 0 l 787 0 l 965 625 m 723 61 l 638 61 l 522 563 l 606 563 l 723 61 m 308 61 l 223 61 l 105 563 l 191 563 l 308 61 "},"ỳ":{"x_min":19.4375,"x_max":659.71875,"ha":694,"o":"m 505 704 l 304 909 b 244 941 280 934 265 941 b 194 897 213 941 194 926 b 236 837 194 875 209 854 l 450 704 l 505 704 m 659 625 l 475 625 l 475 604 b 538 570 518 604 538 593 b 533 545 538 565 537 555 l 398 162 l 243 509 b 225 566 234 529 225 551 b 304 604 225 591 244 601 l 304 625 l 19 625 l 19 605 b 93 556 55 600 79 587 l 276 165 b 334 25 302 109 334 45 b 279 -125 334 2 306 -84 b 209 -186 256 -158 229 -186 b 173 -176 201 -186 188 -184 b 101 -158 148 -162 126 -158 b 41 -222 68 -158 41 -187 b 138 -302 41 -268 79 -302 b 381 -34 244 -302 309 -231 l 590 533 b 659 604 609 584 626 600 l 659 625 "},"𝛎":{"x_min":20.828125,"x_max":687.5,"ha":719,"o":"m 645 656 b 295 191 620 384 504 229 l 288 191 l 288 640 l 20 640 l 20 606 b 79 583 50 601 69 593 b 95 516 90 572 95 550 l 95 -19 l 131 -19 b 481 143 270 4 387 58 b 687 656 619 265 687 436 l 645 656 "},"𝘼":{"x_min":34.71875,"x_max":923.609375,"ha":958,"o":"m 923 0 l 737 958 l 698 958 l 34 0 l 215 0 l 362 225 l 706 225 l 743 0 l 923 0 m 684 366 l 454 366 l 640 650 l 684 366 "},"𝒉":{"x_min":69.4375,"x_max":754.171875,"ha":800,"o":"m 726 145 b 651 80 698 109 676 80 b 623 119 630 80 623 97 b 626 148 623 127 625 143 l 695 444 b 705 522 700 461 705 504 b 581 637 705 584 677 637 b 331 458 483 637 377 543 l 329 459 l 441 951 l 180 898 l 187 859 b 248 873 233 872 238 873 b 263 852 262 873 263 868 b 261 831 263 847 262 837 l 69 0 l 229 0 l 263 151 b 494 533 298 304 415 533 b 534 481 516 533 534 519 b 530 423 534 459 533 437 l 455 113 b 445 50 448 83 445 65 b 541 -13 445 6 505 -13 b 754 130 640 -13 702 43 l 726 145 "},"𝕐":{"x_min":16.671875,"x_max":951.390625,"ha":782,"o":"m 951 919 l 881 919 l 595 430 l 593 430 l 284 919 l 16 919 l 380 337 l 380 0 l 611 0 l 611 333 l 951 919 m 550 61 l 441 61 l 441 355 l 126 858 l 252 858 l 550 386 l 550 61 "},"𝘵":{"x_min":133.203125,"x_max":522.09375,"ha":404,"o":"m 522 629 l 377 629 l 422 805 l 397 805 l 290 718 l 267 629 l 219 629 l 138 554 l 133 530 l 244 530 l 147 144 b 140 93 142 126 140 108 b 256 -13 140 27 179 -13 b 385 16 302 -13 345 -9 l 427 120 l 410 120 b 313 84 369 88 341 84 b 260 136 281 84 260 95 b 269 190 260 150 263 168 l 354 530 l 498 530 l 522 629 "},"ŭ":{"x_min":12.5,"x_max":666.671875,"ha":694,"o":"m 488 922 b 334 787 448 823 409 787 b 179 922 247 787 197 834 l 138 922 b 331 704 138 787 201 704 b 529 922 445 704 512 774 l 488 922 m 666 69 l 658 69 b 579 148 594 69 579 84 l 579 624 l 359 624 l 359 601 b 462 511 443 595 462 584 l 462 190 b 430 109 462 141 452 129 b 313 66 395 79 354 66 b 215 176 259 66 215 112 l 215 624 l 12 624 l 12 605 b 98 512 79 601 98 581 l 98 163 b 268 -14 98 56 161 -14 b 466 105 319 -14 398 12 l 469 105 l 469 -8 l 476 -12 b 666 49 545 15 595 30 l 666 69 "},"―":{"x_min":0,"x_max":2777.78125,"ha":2778,"o":"m 2777 279 l 2777 347 l 0 347 l 0 279 l 2777 279 "},"𝒩":{"x_min":52.78125,"x_max":1327.78125,"ha":1347,"o":"m 790 181 b 827 542 809 280 820 403 b 863 913 837 727 845 853 l 845 928 b 495 432 756 892 638 723 b 165 19 370 178 269 19 b 122 49 145 19 125 30 l 126 49 b 148 44 133 45 141 44 b 206 106 184 44 206 76 b 134 177 206 142 177 177 b 52 85 90 177 52 139 b 163 -21 52 27 100 -21 b 543 437 286 -21 381 116 b 741 781 618 587 695 719 l 743 780 b 705 412 719 695 709 555 b 661 -18 700 223 687 87 l 688 -18 b 988 503 816 88 911 312 b 1198 888 1087 744 1151 863 l 1202 888 b 1268 826 1202 844 1243 826 b 1327 889 1301 826 1327 851 b 1255 953 1327 930 1297 953 b 1152 902 1215 953 1184 937 b 961 546 1084 830 1019 687 b 791 181 901 402 840 255 l 790 181 "},"𝒇":{"x_min":61.109375,"x_max":877.78125,"ha":794,"o":"m 345 625 l 327 559 l 437 559 l 329 86 b 209 -226 309 1 275 -226 b 195 -216 200 -226 195 -222 b 223 -151 195 -187 223 -202 b 144 -77 223 -116 204 -77 b 61 -179 87 -77 61 -130 b 191 -286 61 -231 101 -286 b 423 -122 311 -286 386 -194 b 476 22 450 -69 468 -15 l 598 559 l 708 559 l 725 625 l 613 625 l 631 715 b 729 891 651 809 686 891 b 743 881 738 891 743 887 b 715 812 743 852 715 862 b 794 744 715 777 734 744 b 877 844 851 744 877 797 b 747 951 877 897 837 951 b 515 786 627 951 551 861 b 418 625 473 700 469 625 l 345 625 "},"{":{"x_min":138.890625,"x_max":486.109375,"ha":667,"o":"m 486 -236 b 359 -65 390 -211 359 -169 l 359 168 b 229 345 359 283 333 319 b 359 525 333 373 359 409 l 359 758 b 486 929 359 862 390 904 l 486 944 b 318 909 394 943 358 934 b 256 751 277 884 256 830 l 256 504 b 138 347 256 406 231 375 b 256 188 231 318 256 284 l 256 -56 b 318 -216 256 -134 279 -191 b 486 -251 356 -241 393 -250 l 486 -236 "},"𝟟":{"x_min":33.328125,"x_max":709.71875,"ha":750,"o":"m 709 919 l 163 919 l 109 919 l 33 713 l 113 713 l 556 713 l 248 0 l 290 0 l 315 0 l 672 822 l 709 919 m 620 858 l 586 775 l 123 775 l 151 858 l 620 858 "},"𝛅":{"x_min":36.109375,"x_max":662.5,"ha":697,"o":"m 548 787 b 597 811 568 787 584 794 b 615 856 609 826 615 841 b 545 936 615 891 591 918 b 387 961 504 952 452 961 b 227 920 334 961 281 948 b 118 777 154 883 118 834 b 148 693 118 748 129 720 b 308 584 177 654 230 616 l 308 581 b 119 501 233 581 170 554 b 36 287 63 444 36 373 b 106 94 36 218 59 152 b 351 -19 169 18 250 -19 b 568 70 437 -19 508 9 b 662 298 630 134 662 211 b 598 537 662 404 640 483 b 381 698 556 590 486 644 b 295 745 337 722 309 737 b 226 831 250 773 226 802 b 269 886 226 855 240 873 b 345 900 291 895 318 900 l 548 787 m 456 298 b 444 108 456 206 452 143 b 351 23 430 51 400 23 b 266 79 312 23 284 41 b 240 283 248 119 240 187 b 259 466 240 369 247 429 b 350 537 276 512 305 537 b 456 298 420 537 456 458 "},"Ĳ":{"x_min":25,"x_max":1011.109375,"ha":1038,"o":"m 1011 919 l 612 919 l 612 893 b 741 763 725 883 741 876 l 741 130 b 690 33 741 61 733 33 b 647 94 662 33 661 59 b 579 152 631 133 611 152 b 511 80 541 152 511 116 b 651 -19 511 15 568 -19 b 883 256 798 -19 883 66 l 883 762 b 1011 893 883 869 898 884 l 1011 919 m 437 0 l 437 26 b 301 155 323 30 301 51 l 301 765 b 437 893 301 870 320 887 l 437 919 l 25 919 l 25 893 b 159 765 143 886 159 875 l 159 155 b 25 26 159 47 141 30 l 25 0 l 437 0 "},"𝔁":{"x_min":86.78125,"x_max":1027.0625,"ha":1139,"o":"m 193 325 b 506 568 364 530 438 568 b 549 506 528 568 549 554 b 247 50 549 422 402 50 b 213 76 231 50 213 61 b 263 161 213 113 263 98 b 189 227 263 208 222 227 b 86 115 127 227 86 173 b 245 -19 86 40 140 -19 b 447 61 309 -19 374 2 b 599 -15 475 -2 535 -15 b 736 15 647 -15 690 -5 b 1009 258 828 58 918 143 l 960 300 b 628 54 813 116 695 54 b 586 100 606 54 586 66 b 867 572 586 180 707 572 b 900 548 881 572 900 568 b 850 468 900 516 850 527 b 921 401 850 420 886 401 b 1027 519 985 401 1027 454 b 871 641 1027 598 964 641 b 678 561 827 641 747 630 b 540 637 652 601 613 637 b 140 365 417 637 309 573 l 193 325 "},"𝔈":{"x_min":69.5,"x_max":941.71875,"ha":1013,"o":"m 919 941 b 818 890 882 905 850 890 b 690 964 782 890 741 916 b 432 657 500 808 432 736 b 593 303 432 529 593 442 b 504 221 593 244 551 221 b 448 236 487 221 468 225 l 433 206 b 526 185 461 190 494 185 b 745 372 637 185 745 275 b 686 521 745 422 726 476 l 686 524 b 776 571 716 556 748 571 b 887 471 819 571 858 535 l 918 471 l 918 642 b 823 675 893 660 855 675 b 655 554 759 675 701 618 b 548 732 601 606 548 668 b 602 831 548 779 579 808 b 752 767 643 783 684 767 b 941 919 838 767 902 870 l 919 941 m 870 240 b 573 90 780 142 687 90 b 232 554 323 90 232 338 b 441 897 232 705 300 897 b 530 874 476 897 504 890 l 552 900 b 420 951 527 926 488 951 b 69 494 163 951 69 705 b 518 -32 69 249 213 -32 b 898 224 702 -32 832 94 l 870 240 "},"𝝋":{"x_min":76.390625,"x_max":926.390625,"ha":981,"o":"m 359 41 b 237 236 284 54 237 138 b 531 587 237 402 376 587 l 545 641 l 488 641 b 76 247 268 641 76 472 b 345 -13 76 106 170 0 l 283 -284 l 445 -284 l 506 -13 b 926 404 773 1 926 204 b 734 630 926 544 838 630 b 597 572 694 630 620 591 b 397 211 480 477 437 395 l 359 41 m 588 334 b 711 561 605 405 641 561 b 765 412 743 561 765 534 b 520 41 765 211 629 51 l 588 334 "},"𝒲":{"x_min":48.609375,"x_max":1486.109375,"ha":1497,"o":"m 631 32 b 902 463 748 149 825 286 b 1143 888 983 648 1041 816 b 1072 903 1109 899 1087 903 b 643 453 951 903 812 753 b 272 25 552 292 422 79 l 269 29 b 541 460 377 127 475 286 b 813 906 620 666 706 800 l 793 928 l 755 898 b 583 830 698 850 633 830 b 477 873 552 830 526 848 b 275 941 381 921 330 941 b 48 731 140 941 48 835 b 227 556 48 628 123 556 b 420 705 316 556 375 615 l 398 717 b 230 598 352 644 304 598 b 105 728 150 598 105 656 b 255 868 105 802 166 868 b 576 753 347 868 450 753 b 626 760 590 753 613 756 l 629 758 b 362 359 506 634 423 522 b 158 -12 302 201 250 65 b 223 -21 177 -16 205 -21 b 676 422 369 -21 527 153 b 1040 855 781 610 923 834 l 1041 853 b 712 308 890 692 794 533 b 516 -15 663 174 606 69 b 580 -21 534 -21 555 -21 b 1023 396 727 -21 880 151 b 1365 898 1213 724 1311 882 l 1366 898 b 1426 828 1366 852 1390 828 b 1486 888 1459 828 1486 855 b 1416 953 1486 929 1454 953 b 1005 448 1312 953 1230 838 b 634 30 875 221 766 82 l 631 32 "},"𝔽":{"x_min":97.21875,"x_max":787.5,"ha":651,"o":"m 787 858 l 787 919 l 97 919 l 97 0 l 327 0 l 327 422 l 695 422 l 695 483 l 327 483 l 327 858 l 787 858 m 266 61 l 158 61 l 158 858 l 266 858 l 266 61 "},"𝑁":{"x_min":52.78125,"x_max":1251.390625,"ha":1182,"o":"m 1251 906 l 881 906 l 876 884 l 904 884 b 1009 833 986 884 1009 861 b 1004 797 1009 819 1006 809 l 869 261 l 862 261 l 534 906 l 256 906 l 251 884 l 277 884 b 405 815 319 884 379 875 l 230 108 b 83 22 219 61 187 22 l 58 22 l 52 0 l 422 0 l 427 22 l 401 22 b 295 70 319 22 295 43 b 300 108 295 86 297 97 l 450 730 l 458 730 l 838 0 l 872 0 l 1072 797 b 1220 884 1084 848 1116 884 l 1245 884 l 1251 906 "},"k":{"x_min":9.71875,"x_max":701.390625,"ha":694,"o":"m 701 0 l 701 20 b 538 122 640 25 595 50 l 326 391 l 366 429 b 666 604 537 587 577 604 l 666 625 l 383 625 l 383 605 b 452 580 437 604 452 598 b 420 531 452 568 440 550 l 230 362 l 230 945 l 225 948 b 51 898 170 931 134 920 l 9 887 l 9 865 b 54 868 27 866 40 868 b 113 783 101 868 113 850 l 113 113 b 9 20 113 41 109 37 l 9 0 l 334 0 l 334 20 l 306 22 b 230 93 251 25 230 44 l 230 348 l 438 73 b 454 41 450 59 454 48 b 425 20 454 29 441 20 l 398 20 l 398 0 l 701 0 "},"Ù":{"x_min":19.4375,"x_max":979.171875,"ha":1003,"o":"m 629 1051 l 427 1256 b 368 1288 404 1281 388 1288 b 318 1244 337 1288 318 1273 b 359 1184 318 1222 333 1201 l 573 1051 l 629 1051 m 979 919 l 656 919 l 656 893 b 787 712 769 886 787 855 l 787 347 b 736 123 787 234 781 179 b 525 41 691 72 613 41 b 347 104 445 41 387 65 b 286 329 291 158 286 220 l 286 762 b 412 893 286 866 301 883 l 412 919 l 19 919 l 19 893 b 144 776 129 884 144 869 l 144 345 b 256 44 144 198 180 101 b 493 -19 313 1 391 -19 b 773 81 620 -19 715 15 b 848 362 836 152 848 227 l 848 716 b 979 893 848 848 862 881 l 979 919 "},"𝙔":{"x_min":261.109375,"x_max":1169.453125,"ha":964,"o":"m 1169 938 l 968 938 l 616 545 l 462 938 l 261 938 l 488 391 l 391 0 l 572 0 l 669 391 l 1169 938 "},"𝗪":{"x_min":41.671875,"x_max":1343.0625,"ha":1385,"o":"m 1343 939 l 1161 939 l 958 329 l 697 939 l 426 329 l 223 939 l 41 939 l 395 -20 l 434 -20 l 690 547 l 694 547 l 950 -19 l 988 -20 l 1343 939 "},"𝓖":{"x_min":113.890625,"x_max":1109.71875,"ha":1158,"o":"m 586 947 b 440 970 537 965 495 970 b 113 760 252 970 113 880 b 351 556 113 655 208 588 b 313 410 323 504 313 445 b 540 224 313 294 411 224 b 681 251 584 224 643 234 l 684 248 b 366 47 605 112 504 47 b 247 90 304 47 262 69 l 247 91 b 327 185 302 101 327 145 b 231 279 327 233 293 279 b 116 149 166 279 116 219 b 377 -29 116 45 216 -29 b 890 290 636 -29 813 79 b 981 466 920 372 941 429 l 927 510 b 563 301 747 347 691 301 b 500 387 516 301 500 340 b 541 542 500 440 520 505 b 901 622 672 545 800 576 b 1109 835 1025 677 1109 755 b 923 954 1109 919 1036 954 b 394 634 754 954 530 833 b 240 760 305 654 240 688 b 450 894 240 845 322 894 b 566 880 480 894 527 891 l 586 947 m 588 620 b 923 877 679 760 818 877 b 983 823 965 877 983 856 b 588 619 983 720 801 631 l 588 620 "},"𝛹":{"x_min":38.578125,"x_max":1031.640625,"ha":931,"o":"m 1031 926 l 1006 926 b 798 793 906 926 841 882 b 749 643 774 745 764 693 b 498 426 706 507 652 426 l 592 807 b 753 884 610 880 691 884 l 759 907 l 313 907 l 308 884 b 438 836 342 883 438 889 b 414 729 438 818 423 764 l 339 426 b 167 522 273 426 167 433 b 224 766 167 608 224 680 b 69 926 224 857 160 926 l 44 926 l 38 904 b 91 829 77 900 91 864 b 44 573 91 741 44 661 b 326 375 44 422 199 375 l 267 123 b 92 22 242 16 189 22 l 87 0 l 542 0 l 548 22 b 519 20 541 20 530 20 b 412 64 476 20 412 26 b 423 123 412 84 419 104 l 483 375 b 883 604 667 375 801 432 b 934 776 909 658 921 718 b 949 833 938 795 942 815 b 1026 904 963 868 988 895 l 1031 926 "},"𝚔":{"x_min":33.328125,"x_max":701.390625,"ha":729,"o":"m 701 55 b 668 88 701 73 687 88 l 595 88 l 383 383 l 552 536 l 638 536 b 672 569 658 536 672 551 l 672 591 b 638 625 672 609 658 625 l 391 625 b 358 591 373 625 358 609 l 358 569 b 391 536 358 551 373 536 l 452 536 l 225 330 l 225 812 b 191 845 225 830 209 845 l 68 845 b 33 812 48 845 33 830 l 33 790 b 68 755 33 770 48 755 l 158 755 l 158 88 l 68 88 b 33 55 48 88 33 73 l 33 33 b 68 0 33 15 48 0 l 315 0 b 348 33 333 0 348 15 l 348 55 b 315 88 348 73 333 88 l 225 88 l 225 240 l 333 337 l 512 88 l 470 88 b 437 55 452 88 437 73 l 437 33 b 470 0 437 15 452 0 l 668 0 b 701 33 687 0 701 15 l 701 55 "},"𝘺":{"x_min":-26.390625,"x_max":784.71875,"ha":672,"o":"m 784 629 l 666 629 l 404 180 l 322 629 l 202 629 b 316 37 238 438 283 229 b 290 -8 309 22 297 5 b 95 -200 231 -111 158 -200 b 20 -166 75 -200 51 -194 l -1 -166 l -26 -266 b 68 -300 -5 -291 31 -300 b 366 -61 193 -300 273 -215 l 784 629 "},"𝝛":{"x_min":34.71875,"x_max":865.28125,"ha":907,"o":"m 865 141 l 315 141 l 834 916 l 834 938 l 105 938 l 87 797 l 551 797 l 34 22 l 34 0 l 844 0 l 865 141 "},"𝔨":{"x_min":66.671875,"x_max":511.109375,"ha":583,"o":"m 511 541 l 511 618 l 398 618 l 398 645 b 452 738 398 704 425 738 b 491 701 466 738 484 729 l 511 701 l 511 852 b 358 704 441 852 358 813 l 358 618 l 306 618 l 306 676 b 511 937 306 794 363 937 l 511 961 b 456 965 493 965 468 965 b 230 819 336 965 269 887 b 109 947 205 858 161 911 l 90 929 b 165 719 129 886 165 813 l 165 647 b 66 561 165 590 112 569 l 66 541 l 165 541 l 165 187 b 73 104 165 123 131 112 l 73 83 b 331 -25 183 66 293 1 l 351 -25 l 498 197 l 470 220 b 400 129 458 200 406 129 l 306 170 l 306 541 l 511 541 "},"𝝨":{"x_min":38.890625,"x_max":877.78125,"ha":936,"o":"m 877 141 l 354 141 l 645 483 l 361 797 l 819 797 l 819 938 l 38 938 l 38 916 l 433 480 l 43 22 l 43 0 l 856 0 l 877 141 "},"𝔴":{"x_min":56.9375,"x_max":983.328125,"ha":1054,"o":"m 983 430 b 919 579 983 472 954 540 b 808 650 905 591 856 630 l 788 650 b 616 565 731 612 668 587 b 506 650 597 600 559 631 l 487 650 l 286 541 l 283 541 b 140 733 263 668 140 665 b 161 793 140 772 150 779 l 137 813 b 56 680 90 777 56 731 b 144 490 56 601 144 572 l 144 193 b 80 113 144 150 125 113 l 80 94 b 205 -34 147 94 205 30 l 225 -34 b 350 94 225 30 283 94 l 350 113 b 286 193 304 113 286 150 l 286 493 b 411 552 318 509 395 552 b 458 529 427 552 443 543 b 493 411 490 497 493 438 l 493 166 b 426 77 493 120 466 91 l 426 58 b 720 -25 541 58 662 15 l 740 -25 b 825 50 776 12 804 34 b 983 262 894 101 983 173 l 983 430 m 634 161 l 634 506 b 713 547 654 526 687 547 b 780 520 733 547 758 540 b 841 268 841 465 841 362 b 797 91 841 180 841 129 l 634 161 "},"Ĥ":{"x_min":25,"x_max":976.390625,"ha":1003,"o":"m 719 998 l 545 1230 l 459 1230 l 287 998 l 334 998 l 502 1141 l 672 998 l 719 998 m 976 0 l 976 26 b 852 154 872 34 852 55 l 852 761 b 976 893 852 868 873 884 l 976 919 l 587 919 l 587 893 b 711 761 693 884 711 870 l 711 498 l 290 498 l 290 761 b 413 893 290 869 312 884 l 413 919 l 25 919 l 25 893 b 148 761 131 884 148 869 l 148 169 b 25 26 148 50 133 33 l 25 0 l 412 0 l 411 26 b 290 156 308 31 290 55 l 290 437 l 711 437 l 711 172 b 588 26 711 55 697 33 l 588 0 l 976 0 "},"U":{"x_min":19.4375,"x_max":979.171875,"ha":1003,"o":"m 979 919 l 656 919 l 656 893 b 787 712 769 886 787 855 l 787 347 b 736 123 787 234 781 179 b 525 41 691 72 613 41 b 347 104 445 41 387 65 b 286 329 291 158 286 220 l 286 762 b 412 893 286 866 301 883 l 412 919 l 19 919 l 19 893 b 144 776 129 884 144 869 l 144 345 b 256 44 144 198 180 101 b 493 -19 313 1 391 -19 b 773 81 620 -19 715 15 b 848 362 836 152 848 227 l 848 716 b 979 893 848 848 862 881 l 979 919 "},"𝑠":{"x_min":69.4375,"x_max":541.671875,"ha":611,"o":"m 541 612 l 519 612 b 477 584 508 598 493 584 b 350 612 437 584 409 612 b 191 463 273 612 191 573 b 372 144 191 327 372 258 b 270 20 372 90 352 20 b 126 201 183 20 126 113 l 104 201 l 69 -15 l 93 -15 b 134 13 109 8 122 13 b 287 -13 151 13 240 -13 b 475 159 408 -13 475 73 b 288 495 475 291 288 419 b 359 576 288 552 325 576 b 487 409 437 576 487 498 l 508 409 l 541 612 "},"𝝿":{"x_min":13.890625,"x_max":794.453125,"ha":825,"o":"m 794 508 l 794 640 l 276 640 b 13 441 147 640 59 583 l 131 388 b 218 491 151 461 194 491 b 91 112 218 145 208 144 l 109 -19 b 384 508 375 -5 383 183 l 490 508 b 466 208 484 462 466 294 b 718 -19 468 1 609 -18 l 773 88 l 773 112 b 640 265 661 127 640 169 b 656 508 640 343 648 445 l 794 508 "},"𝞟":{"x_min":83.328125,"x_max":1087.5,"ha":1035,"o":"m 1087 938 l 316 938 l 83 0 l 263 0 l 462 797 l 872 797 l 673 0 l 854 0 l 1087 938 "},"𝓭":{"x_min":38.890625,"x_max":1266.671875,"ha":1318,"o":"m 1266 970 l 1094 970 l 893 587 l 890 587 b 777 641 870 623 826 641 b 634 615 734 641 680 633 b 383 438 538 576 456 511 b 169 351 341 399 277 351 b 55 372 129 351 98 354 l 38 312 b 172 281 81 290 127 281 b 281 299 220 281 247 288 b 233 136 252 244 233 188 b 406 -19 233 41 304 -19 b 655 88 512 -19 595 25 l 658 88 b 787 -15 659 31 691 -15 b 1166 250 937 -15 1044 83 l 1118 290 b 825 54 948 84 868 54 b 802 86 813 54 802 69 b 818 140 802 102 812 130 l 1266 970 m 816 522 b 605 137 816 413 716 241 b 434 50 530 68 486 50 b 393 101 411 50 393 72 b 515 369 393 158 426 243 b 775 572 615 511 713 572 b 816 522 797 572 816 556 "},"𝞔":{"x_min":83.328125,"x_max":983.328125,"ha":949,"o":"m 983 938 l 316 938 l 83 0 l 763 0 l 836 141 l 298 141 l 368 422 l 702 422 l 738 565 l 404 565 l 462 797 l 948 797 l 983 938 "},"𝖡":{"x_min":102.78125,"x_max":759.71875,"ha":839,"o":"m 102 919 l 102 0 l 436 0 b 612 36 502 0 565 12 b 759 268 701 81 759 172 b 581 508 759 377 706 468 b 709 693 669 548 709 615 b 387 919 709 847 601 919 l 102 919 m 223 547 l 223 816 l 404 816 b 586 693 530 816 586 779 b 348 547 586 593 512 547 l 223 547 m 223 102 l 223 440 l 333 440 b 534 422 426 440 486 437 b 636 280 597 401 636 347 b 398 102 636 181 569 102 l 223 102 "},"𝐍":{"x_min":22.21875,"x_max":973.609375,"ha":1003,"o":"m 973 938 l 676 938 l 676 904 b 804 756 779 894 804 868 l 804 341 l 319 938 l 26 938 l 26 904 b 144 804 54 904 86 884 l 144 151 b 22 34 144 66 123 47 l 22 0 l 336 0 l 336 34 b 205 181 229 47 205 75 l 205 731 l 826 -25 l 865 -25 l 865 788 b 973 904 865 876 883 890 l 973 938 "},"ō":{"x_min":40.28125,"x_max":652.78125,"ha":694,"o":"m 561 704 l 561 779 l 129 779 l 129 704 l 561 704 m 652 320 b 352 638 652 512 522 638 b 40 316 165 638 40 509 b 340 -13 40 123 172 -13 b 652 320 527 -13 652 127 m 527 283 b 363 25 527 122 466 25 b 238 94 313 25 269 50 b 165 379 187 169 165 269 b 326 600 165 518 230 600 b 458 530 386 600 425 572 b 527 283 502 473 527 377 "},"𝑀":{"x_min":52.78125,"x_max":1465.28125,"ha":1396,"o":"m 1465 906 l 1166 906 l 704 222 l 698 222 l 575 906 l 279 906 l 273 884 l 300 884 b 406 836 386 884 406 863 b 400 783 406 823 405 806 l 234 123 b 84 22 220 68 194 22 l 58 22 l 52 0 l 423 0 l 429 22 l 401 22 b 295 68 319 22 295 38 b 302 123 295 84 298 105 l 454 718 l 458 718 l 588 0 l 623 0 l 1102 718 l 1111 718 l 955 108 b 809 22 944 63 919 22 l 786 22 l 780 0 l 1238 0 l 1244 22 l 1218 22 b 1111 69 1137 22 1111 43 b 1113 108 1111 81 1111 98 l 1290 800 b 1436 884 1302 850 1325 884 l 1459 884 l 1465 906 "},"ö":{"x_min":40.28125,"x_max":652.78125,"ha":694,"o":"m 547 794 b 477 863 547 831 515 863 b 409 795 440 863 409 833 b 476 726 409 756 438 726 b 547 794 515 726 547 756 m 270 794 b 201 863 270 831 238 863 b 133 795 163 863 133 833 b 200 726 133 756 162 726 b 270 794 238 726 270 756 m 652 320 b 352 638 652 512 522 638 b 40 316 165 638 40 509 b 340 -13 40 123 172 -13 b 652 320 527 -13 652 127 m 527 283 b 363 25 527 122 466 25 b 238 94 313 25 269 50 b 165 379 187 169 165 269 b 326 600 165 518 230 600 b 458 530 386 600 425 572 b 527 283 502 473 527 377 "},"𝗔":{"x_min":34.71875,"x_max":923.609375,"ha":958,"o":"m 923 0 l 498 958 l 459 958 l 34 0 l 215 0 l 306 225 l 651 225 l 743 0 l 923 0 m 594 366 l 363 366 l 479 650 l 594 366 "},"𝖉":{"x_min":66.671875,"x_max":697.21875,"ha":774,"o":"m 697 466 b 487 719 697 576 622 638 b 286 858 419 761 286 783 b 386 929 286 905 348 923 l 386 963 b 93 791 244 963 93 913 b 305 605 93 681 215 638 l 305 602 b 130 522 255 570 190 538 l 130 527 l 130 152 b 66 81 130 100 104 81 l 66 48 l 138 48 b 356 -34 211 48 277 13 l 390 -34 b 472 47 422 1 450 26 b 697 259 555 123 697 181 l 697 466 m 504 220 b 480 131 504 172 494 154 l 323 205 l 323 487 b 333 550 323 544 325 547 b 390 580 354 563 377 573 b 504 436 429 554 504 527 l 504 220 "},"′":{"x_min":104.171875,"x_max":297.21875,"ha":401,"o":"m 104 570 l 130 558 l 277 841 b 297 895 286 858 297 876 b 258 941 297 919 284 941 b 197 877 218 941 206 911 l 104 570 "},"𝖽":{"x_min":38.890625,"x_max":606.9375,"ha":686,"o":"m 606 18 b 598 177 601 64 598 132 l 598 942 l 586 949 l 488 916 l 488 591 b 340 642 438 627 387 642 b 38 290 173 642 38 487 b 175 18 38 169 97 65 b 301 -13 212 -3 261 -13 b 491 61 365 -13 440 11 l 494 -8 l 506 -15 l 606 18 m 488 219 b 329 84 458 137 393 84 b 226 118 293 84 258 94 b 148 308 177 154 148 230 b 345 544 148 451 248 544 b 488 456 398 544 451 512 l 488 219 "},"𝖔":{"x_min":62.5,"x_max":693.0625,"ha":769,"o":"m 693 409 b 498 659 693 519 633 579 l 465 659 b 126 512 268 573 186 529 l 126 159 b 62 90 126 106 100 90 l 62 55 l 131 55 b 356 -33 200 55 273 15 l 390 -33 b 470 48 422 2 448 27 b 693 269 554 125 693 190 l 693 409 m 500 208 b 473 119 500 159 487 143 l 319 209 l 319 468 b 329 538 319 525 320 536 l 359 552 b 500 394 376 541 500 475 l 500 208 "},"ĭ":{"x_min":-1.390625,"x_max":388.890625,"ha":386,"o":"m 348 922 b 194 787 308 823 269 787 b 38 922 106 787 56 834 l -1 922 b 191 704 -1 787 61 704 b 388 922 305 704 372 775 l 348 922 m 351 0 l 351 20 b 248 145 259 27 248 43 l 248 633 l 241 638 l 27 562 l 27 540 b 86 547 52 547 73 547 b 131 459 120 547 131 525 l 131 144 b 22 20 131 38 118 26 l 22 0 l 351 0 "},"8":{"x_min":77.78125,"x_max":618.0625,"ha":694,"o":"m 618 215 b 402 515 618 326 573 401 b 588 740 540 588 588 636 b 355 938 588 848 493 938 b 86 722 201 938 86 855 b 258 461 86 631 115 579 b 77 206 109 356 77 302 b 344 -19 77 76 187 -19 b 618 215 511 -19 618 72 m 493 740 b 362 540 493 654 456 595 b 188 762 240 612 188 676 b 341 900 188 848 248 900 b 493 740 436 900 493 836 m 376 377 b 512 172 470 313 512 258 b 359 19 512 81 450 19 b 183 219 254 19 183 91 b 294 433 183 309 212 366 l 376 377 "},"𝖏":{"x_min":55.5625,"x_max":468.0625,"ha":540,"o":"m 388 901 b 291 968 388 936 351 968 b 193 901 231 968 193 937 b 291 772 193 877 247 772 b 388 901 333 772 388 879 m 468 575 b 301 659 425 579 366 618 l 268 659 l 58 495 l 79 466 b 158 502 112 488 141 502 b 197 434 181 502 197 490 l 197 -52 b 55 -258 197 -212 113 -258 l 55 -295 b 137 -304 94 -304 120 -304 b 313 -201 201 -304 279 -244 b 423 -304 338 -233 375 -270 l 451 -280 b 390 -66 418 -237 390 -150 l 390 480 b 468 540 390 523 436 536 l 468 575 "},"R":{"x_min":23.609375,"x_max":916.671875,"ha":926,"o":"m 916 0 l 916 26 b 786 91 855 31 826 40 l 508 443 b 759 670 681 469 759 550 b 691 837 759 731 737 800 b 401 919 631 886 533 919 l 23 919 l 23 893 b 141 765 130 884 141 868 l 141 172 b 23 26 141 50 127 34 l 23 0 l 406 0 l 406 26 b 283 155 300 33 283 50 l 283 425 l 361 427 l 691 0 l 916 0 m 283 809 b 354 868 283 858 306 868 b 608 681 526 868 608 806 b 529 523 608 612 579 551 b 283 476 465 488 416 479 l 283 809 "},"𝒗":{"x_min":72.21875,"x_max":748.609375,"ha":769,"o":"m 83 572 b 172 534 111 572 172 575 b 162 480 172 516 166 498 b 72 90 130 363 72 209 b 205 -19 72 12 136 -19 b 386 40 268 -19 334 5 b 695 398 511 123 625 266 b 748 550 718 440 748 502 b 641 657 748 607 698 657 b 554 573 597 657 554 619 b 619 427 554 494 619 500 b 612 380 619 411 616 395 b 337 93 588 295 429 93 b 268 151 298 93 268 108 b 354 488 268 227 330 407 b 401 657 370 544 383 601 b 83 605 297 633 191 609 l 83 572 "},"𝝖":{"x_min":34.71875,"x_max":923.609375,"ha":958,"o":"m 923 0 l 498 958 l 459 958 l 34 0 l 215 0 l 306 225 l 651 225 l 743 0 l 923 0 m 594 366 l 363 366 l 479 650 l 594 366 "},"Ż":{"x_min":13.890625,"x_max":830.5625,"ha":850,"o":"m 512 1088 b 443 1158 512 1127 486 1158 b 375 1088 401 1158 375 1126 b 443 1020 375 1051 405 1020 b 512 1088 480 1020 512 1048 m 830 244 l 798 244 b 715 91 773 162 761 123 b 552 52 680 66 630 52 l 202 52 l 802 898 l 802 919 l 73 919 l 44 681 l 80 681 b 137 818 94 758 102 781 b 323 866 170 851 225 866 l 620 866 l 13 20 l 13 0 l 795 0 l 830 244 "},"ħ":{"x_min":11.109375,"x_max":676.390625,"ha":694,"o":"m 676 0 l 676 20 b 593 141 601 34 593 45 l 593 418 b 422 638 593 563 536 638 b 218 522 340 638 281 605 l 218 711 l 443 711 l 443 786 l 218 786 l 218 944 l 211 948 b 51 898 162 931 130 922 l 13 887 l 13 865 b 30 866 18 866 25 866 b 101 795 90 866 101 855 l 101 786 l 11 786 l 11 711 l 101 711 l 101 141 b 12 20 101 44 93 31 l 12 0 l 312 0 l 312 20 b 218 141 231 29 218 45 l 218 476 b 373 563 276 540 318 563 b 476 416 441 563 476 513 l 476 141 b 381 20 476 45 462 29 l 381 0 l 676 0 "},"𝙨":{"x_min":51.390625,"x_max":613.890625,"ha":535,"o":"m 613 572 b 434 656 576 625 531 656 b 156 408 262 656 156 534 b 300 254 156 348 193 306 b 373 188 356 226 373 211 b 279 113 373 143 322 113 b 113 236 218 113 130 148 l 93 236 l 51 69 b 241 -18 104 9 144 -18 b 548 240 426 -18 548 102 b 402 386 548 300 512 334 b 326 461 359 406 326 427 b 408 525 326 477 345 525 b 556 425 458 525 526 509 l 577 425 l 613 572 "},"𝟬":{"x_min":33.328125,"x_max":661.109375,"ha":694,"o":"m 661 468 b 347 955 661 756 527 955 b 33 468 166 955 33 756 b 347 -18 33 179 166 -18 b 661 468 527 -18 661 179 m 487 473 b 347 113 487 281 455 113 b 206 473 238 113 206 281 b 347 823 206 665 238 823 b 487 473 455 823 487 665 "},"𝝒":{"x_min":-17,"x_max":874.828125,"ha":843,"o":"m 874 625 l 647 625 l 291 287 b 344 497 326 355 344 425 b 321 593 344 534 337 568 b 231 641 302 625 271 641 b 159 616 201 641 176 631 b 135 558 144 601 135 581 b 152 512 135 540 141 525 b 214 487 166 495 187 487 b 264 437 248 487 264 470 b 246 331 264 412 259 377 b 201 204 233 280 217 237 l -17 0 l 210 0 l 572 338 b 517 125 535 270 517 201 b 540 29 517 86 524 54 b 630 -20 559 -4 590 -20 b 702 4 662 -20 685 -12 b 726 63 717 19 726 40 b 710 109 726 81 722 97 b 647 134 697 126 674 134 b 597 184 613 134 597 151 b 615 293 597 211 602 247 b 660 422 628 345 644 388 l 874 625 "},"𝙚":{"x_min":98.609375,"x_max":683.328125,"ha":628,"o":"m 552 198 b 390 122 497 137 433 122 b 272 230 323 122 270 154 b 279 284 272 247 272 263 l 656 284 l 666 323 b 683 447 677 368 683 409 b 495 656 683 573 622 656 b 195 498 393 656 277 612 b 98 209 145 429 98 308 b 336 -18 98 69 186 -18 b 627 106 454 -18 513 5 l 552 198 m 323 416 b 454 525 343 481 409 525 b 527 458 497 525 527 506 b 522 416 527 445 526 433 l 323 416 "},"𝛦":{"x_min":52.78125,"x_max":1019.453125,"ha":992,"o":"m 1019 906 l 277 906 l 272 884 l 298 884 b 402 836 380 884 402 869 b 395 786 402 826 401 811 l 229 108 b 84 22 218 61 186 22 l 58 22 l 52 0 l 845 0 l 937 275 l 915 275 b 558 52 855 118 777 52 l 465 52 b 377 90 400 52 377 68 b 380 104 377 94 379 98 l 472 462 l 597 462 b 697 391 640 462 697 456 b 688 308 697 368 690 326 l 712 308 l 793 644 l 770 644 b 595 512 740 530 679 512 l 484 512 l 568 856 l 790 856 b 941 736 861 856 937 838 b 938 687 941 720 940 705 l 961 687 l 1019 906 "},"„":{"x_min":62.5,"x_max":577.78125,"ha":617,"o":"m 422 -195 b 577 18 516 -150 577 -65 b 466 141 577 87 529 141 b 384 62 418 141 384 109 b 468 -8 384 18 415 -8 b 494 -5 476 -8 486 -6 b 504 -2 501 -2 504 -2 b 523 -20 515 -2 523 -11 b 409 -169 523 -68 484 -118 l 422 -195 m 100 -195 b 255 18 194 -150 255 -65 b 144 141 255 87 206 141 b 62 62 95 141 62 109 b 145 -8 62 18 93 -8 b 172 -5 154 -8 163 -6 b 181 -2 179 -2 181 -2 b 201 -20 193 -2 201 -11 b 87 -169 201 -66 162 -116 l 100 -195 "},"Â":{"x_min":20.828125,"x_max":981.953125,"ha":1003,"o":"m 712 1051 l 538 1283 l 452 1283 l 280 1051 l 327 1051 l 495 1194 l 665 1051 l 712 1051 m 981 0 l 981 26 b 851 154 909 34 890 63 l 509 936 l 481 936 l 195 258 b 20 26 113 63 101 34 l 20 0 l 297 0 l 297 26 b 200 83 230 26 200 40 b 212 141 200 100 205 123 l 276 300 l 640 300 l 697 169 b 723 72 713 130 723 93 b 704 38 723 59 715 44 b 627 26 687 29 677 26 l 627 0 l 981 0 m 620 356 l 300 356 l 459 738 l 620 356 "},"𝓴":{"x_min":76.390625,"x_max":1013.890625,"ha":1125,"o":"m 963 290 b 681 50 811 98 725 50 b 655 80 665 50 655 69 b 701 212 655 130 701 155 b 625 325 701 252 679 288 l 625 329 b 916 543 781 355 916 454 b 784 636 916 591 862 636 b 519 512 687 636 602 595 l 515 513 l 575 623 b 913 870 702 633 913 711 b 770 970 913 927 858 970 b 459 704 643 970 566 904 b 280 793 418 711 340 737 l 237 747 b 422 636 288 683 354 650 l 76 0 l 247 0 l 290 79 b 745 566 454 380 640 566 b 777 538 751 566 777 566 b 522 365 777 466 676 380 l 497 302 b 562 248 554 298 562 273 b 511 80 562 180 511 155 b 651 -19 511 13 575 -19 b 1013 251 779 -19 873 72 l 963 290 m 613 706 b 763 901 704 884 725 901 b 788 868 773 901 788 891 b 615 705 788 762 693 724 l 613 706 "},"Į":{"x_min":25.546875,"x_max":438.046875,"ha":463,"o":"m 242 0 b 167 -126 189 -37 167 -76 b 270 -229 167 -191 210 -229 b 424 -123 333 -229 374 -198 l 396 -101 b 297 -151 356 -138 326 -151 b 245 -97 267 -151 245 -136 b 306 0 245 -65 263 -34 l 438 0 l 438 26 b 301 155 324 30 301 51 l 301 765 b 438 893 301 870 321 887 l 438 919 l 25 919 l 25 893 b 160 765 143 886 160 875 l 160 155 b 25 26 160 47 142 30 l 25 0 l 242 0 "},"𝟁":{"x_min":104.171875,"x_max":1043.0625,"ha":976,"o":"m 1043 656 b 702 383 876 656 741 538 b 523 112 654 186 622 137 l 654 641 l 487 641 l 356 112 b 279 205 302 125 279 148 b 320 461 279 250 320 384 b 106 656 320 576 245 656 l 106 526 b 141 448 127 518 141 495 b 104 195 141 400 104 275 b 323 -19 104 76 166 0 l 256 -284 l 423 -284 l 490 -19 b 859 315 709 6 813 130 b 980 526 895 462 936 512 l 1043 656 "},"𝙏":{"x_min":218.0625,"x_max":1090.28125,"ha":890,"o":"m 1090 938 l 272 938 l 218 797 l 555 797 l 356 0 l 537 0 l 736 797 l 1069 797 l 1090 938 "},"´":{"x_min":129.171875,"x_max":440.28125,"ha":463,"o":"m 129 704 l 184 704 l 398 838 b 440 897 427 856 440 875 b 391 941 440 925 422 941 b 333 909 370 941 358 934 l 129 704 "},"𝖨":{"x_min":62.5,"x_max":494.4375,"ha":557,"o":"m 494 102 l 340 102 l 340 816 l 494 816 l 481 919 l 81 919 l 62 816 l 216 816 l 216 102 l 62 102 l 81 0 l 481 0 l 494 102 "},"𝒽":{"x_min":52.328125,"x_max":957.875,"ha":1046,"o":"m 928 270 b 598 26 781 98 667 26 b 566 55 578 26 566 38 b 599 138 566 79 584 113 l 742 366 b 800 526 780 426 800 483 b 699 612 800 580 760 612 b 370 393 607 612 500 547 l 366 395 l 474 608 b 795 863 571 609 795 697 b 707 954 795 902 770 954 b 403 651 600 954 528 875 b 234 736 342 656 282 679 l 206 706 b 381 611 262 640 317 622 l 52 0 l 159 0 l 198 73 b 693 570 355 370 573 570 b 728 534 719 570 728 552 b 705 480 728 519 719 501 l 557 262 b 493 84 520 206 493 131 b 591 -15 493 18 532 -15 b 957 247 685 -15 813 76 l 928 270 m 498 655 b 703 909 595 848 648 909 b 753 861 735 909 753 887 b 499 652 753 737 584 652 l 498 655 "},"‷":{"x_min":104.171875,"x_max":677.78125,"ha":782,"o":"m 677 569 l 586 877 b 523 941 576 911 563 941 b 484 895 497 941 484 919 b 504 841 484 876 495 858 l 652 556 l 677 569 m 487 570 l 395 879 b 333 941 386 912 373 941 b 294 897 306 941 294 920 b 313 843 294 877 305 859 l 462 558 l 487 570 m 297 570 l 205 879 b 143 941 195 912 183 941 b 104 897 116 941 104 920 b 123 843 104 877 115 859 l 272 558 l 297 570 "},"Ĉ":{"x_min":38.890625,"x_max":879.171875,"ha":926,"o":"m 708 998 l 534 1230 l 448 1230 l 276 998 l 323 998 l 491 1141 l 661 998 l 708 998 m 852 181 b 547 41 748 83 672 41 b 300 141 451 41 361 76 b 200 473 234 212 200 320 b 533 883 200 713 323 883 b 756 777 623 883 695 843 b 829 623 791 740 812 700 l 861 623 l 848 938 l 820 938 b 762 893 812 909 788 893 b 666 918 738 893 695 909 b 501 938 611 933 555 938 b 163 794 372 938 252 893 b 38 451 84 705 38 590 b 172 104 38 313 87 187 b 500 -19 252 25 373 -19 b 879 156 663 -19 798 41 l 852 181 "},"𝜗":{"x_min":28.421875,"x_max":705,"ha":769,"o":"m 46 284 b 142 368 63 305 113 368 b 158 348 154 368 158 359 b 147 294 158 330 153 311 b 108 130 129 238 108 188 b 295 -13 108 16 195 -13 b 627 276 467 -13 567 133 b 695 265 650 270 671 266 l 702 291 b 639 311 679 294 660 304 b 705 668 681 425 705 545 b 489 941 705 804 645 941 b 243 683 338 941 243 830 b 532 309 243 509 382 375 b 299 15 502 204 435 15 b 220 123 235 15 220 69 b 271 381 220 222 271 295 b 210 444 271 422 252 444 b 28 297 133 444 65 352 l 46 284 m 588 672 b 546 355 588 565 571 458 b 360 691 428 426 360 552 b 478 895 360 763 383 895 b 588 672 581 895 588 744 "},"𝘪":{"x_min":95.828125,"x_max":451.390625,"ha":306,"o":"m 451 943 l 323 943 l 291 813 l 419 813 l 451 943 m 369 637 l 358 644 l 247 611 l 95 0 l 211 0 l 369 637 "},"𝐩":{"x_min":26.390625,"x_max":727.78125,"ha":772,"o":"m 294 640 l 27 640 l 27 606 b 104 516 88 597 104 577 l 104 -163 b 26 -251 104 -222 93 -240 l 26 -284 l 404 -284 l 404 -251 b 297 -109 319 -247 297 -202 l 297 65 b 461 -18 363 0 398 -18 b 727 345 627 -18 727 130 b 476 656 727 550 630 656 b 294 544 394 656 341 627 l 294 640 m 297 480 b 322 526 297 488 306 508 b 416 577 350 559 384 577 b 522 325 487 577 522 495 b 404 58 522 133 480 58 b 297 148 358 58 318 95 l 297 480 "},"𝙁":{"x_min":111.109375,"x_max":1006.953125,"ha":808,"o":"m 1006 938 l 344 938 l 111 0 l 291 0 l 395 420 l 691 420 l 726 562 l 430 562 l 490 797 l 990 797 l 1006 938 "},"𝓵":{"x_min":59.71875,"x_max":877.78125,"ha":903,"o":"m 59 595 b 226 502 93 562 177 513 b 83 148 151 387 83 245 b 238 -19 83 36 144 -19 b 586 237 354 -19 455 54 l 536 275 b 266 50 405 98 311 50 b 231 95 250 50 231 58 b 411 493 231 194 341 376 b 700 583 516 501 619 533 b 877 852 806 648 877 745 b 725 970 877 936 805 970 b 273 575 601 970 450 833 b 95 648 244 577 151 611 l 59 595 m 462 584 b 718 901 516 686 638 901 b 752 862 745 901 752 884 b 463 583 752 711 601 613 l 462 584 "},"Ö":{"x_min":47.21875,"x_max":955.5625,"ha":1003,"o":"m 698 1141 b 629 1211 698 1179 666 1211 b 561 1143 591 1211 561 1180 b 627 1073 561 1104 590 1073 b 698 1141 666 1073 698 1104 m 422 1141 b 352 1211 422 1179 390 1211 b 284 1143 315 1211 284 1180 b 351 1073 284 1104 313 1073 b 422 1141 390 1073 422 1104 m 955 459 b 501 938 955 734 773 938 b 47 463 230 938 47 745 b 501 -19 47 175 231 -19 b 955 459 768 -19 955 173 m 797 468 b 681 97 797 301 758 170 b 502 30 633 51 572 30 b 330 93 438 30 377 50 b 205 461 245 170 205 295 b 301 795 205 593 241 727 b 500 888 355 858 425 888 b 670 823 565 888 620 865 b 797 468 750 756 797 626 "},"𝛿":{"x_min":56.21875,"x_max":627.046875,"ha":643,"o":"m 627 844 b 475 927 627 905 545 927 b 243 736 384 927 243 869 b 388 554 243 661 324 618 b 56 186 193 534 56 351 b 259 -15 56 75 124 -15 b 579 215 418 -15 531 95 b 604 370 597 261 604 325 b 293 777 604 566 293 645 b 418 870 293 830 365 870 b 563 780 545 870 470 780 b 627 844 606 780 627 815 m 488 373 b 261 25 488 241 386 25 b 164 166 202 25 164 90 b 413 512 164 290 293 512 b 488 373 467 512 488 434 "},"𝙉":{"x_min":111.109375,"x_max":1127.78125,"ha":1006,"o":"m 1127 938 l 950 938 l 802 350 l 562 938 l 344 938 l 111 0 l 288 0 l 462 697 l 748 2 l 887 -25 l 1127 938 "},"𝞪":{"x_min":65.28125,"x_max":976.390625,"ha":942,"o":"m 976 641 l 797 641 l 706 522 b 488 656 673 602 613 656 b 65 218 233 656 65 400 b 295 -19 65 77 151 -19 b 576 106 447 -19 519 48 l 579 106 b 758 -19 594 -19 684 -19 l 834 90 l 840 112 b 730 300 734 112 736 245 l 976 641 m 554 362 b 548 290 554 340 552 316 b 347 112 506 213 433 112 b 241 243 276 112 241 166 b 448 526 241 376 336 526 b 554 362 513 526 554 466 "},"Ř":{"x_min":23.609375,"x_max":916.671875,"ha":926,"o":"m 619 1230 l 570 1230 l 402 1087 l 236 1230 l 187 1230 l 358 998 l 447 998 l 619 1230 m 916 0 l 916 26 b 786 91 855 31 826 40 l 508 443 b 759 670 681 469 759 550 b 691 837 759 731 737 800 b 401 919 631 886 533 919 l 23 919 l 23 893 b 141 765 130 884 141 868 l 141 172 b 23 26 141 50 127 34 l 23 0 l 406 0 l 406 26 b 283 155 300 33 283 50 l 283 425 l 361 427 l 691 0 l 916 0 m 283 809 b 354 868 283 858 306 868 b 608 681 526 868 608 806 b 529 523 608 612 579 551 b 283 476 465 488 416 479 l 283 809 "},"𝞄":{"x_min":48.609375,"x_max":679.171875,"ha":714,"o":"m 343 525 b 505 309 434 525 505 477 b 368 112 505 234 466 112 b 243 287 272 112 243 204 l 243 555 b 212 656 243 597 223 636 l 190 656 l 48 606 b 76 450 72 580 76 509 l 76 245 b 365 -19 76 80 176 -19 b 679 318 541 -19 679 122 b 343 656 679 554 525 656 l 343 525 "},"𝗛":{"x_min":111.109375,"x_max":881.953125,"ha":993,"o":"m 881 0 l 881 938 l 701 938 l 701 554 l 291 554 l 291 938 l 111 938 l 111 0 l 291 0 l 291 412 l 701 412 l 701 0 l 881 0 "},"𝙿":{"x_min":43.0625,"x_max":665.28125,"ha":729,"o":"m 76 919 b 43 886 58 919 43 904 l 43 863 b 76 830 43 844 58 830 l 140 830 l 140 88 l 76 88 b 43 55 58 88 43 73 l 43 33 b 76 0 43 15 58 0 l 286 0 b 319 33 304 0 319 15 l 319 55 b 286 88 319 73 304 88 l 222 88 l 222 369 l 408 369 b 665 645 550 369 665 493 b 408 919 665 797 550 919 l 76 919 m 222 458 l 222 830 l 387 830 b 584 645 495 830 584 747 b 387 458 584 541 495 458 l 222 458 "},"𝑧":{"x_min":58.328125,"x_max":648.609375,"ha":693,"o":"m 648 626 l 212 626 l 162 436 l 187 430 b 331 515 219 507 252 515 l 513 515 l 58 0 l 73 -13 b 243 20 125 9 187 20 b 380 0 288 20 336 13 b 475 -18 409 -6 444 -18 b 622 93 538 -18 622 17 b 566 151 622 126 601 151 b 513 98 540 151 513 125 b 530 45 513 67 530 63 b 493 11 530 23 513 11 b 298 132 430 11 426 132 b 205 102 266 132 231 122 l 201 104 l 648 604 l 648 626 "},"É":{"x_min":16.671875,"x_max":829.171875,"ha":849,"o":"m 340 1051 l 395 1051 l 609 1186 b 651 1244 638 1204 651 1222 b 602 1288 651 1272 633 1288 b 544 1256 581 1288 569 1281 l 340 1051 m 829 234 l 790 234 b 469 51 727 87 668 51 l 419 51 b 279 116 316 51 279 58 l 279 454 l 488 454 b 645 319 608 454 629 436 l 677 319 l 677 644 l 645 644 b 488 511 629 534 608 511 l 279 511 l 279 816 b 327 866 279 861 288 866 l 509 866 b 723 720 670 866 702 845 l 758 720 l 752 919 l 16 919 l 16 893 b 137 763 120 887 137 866 l 137 158 b 16 26 137 51 123 33 l 16 0 l 765 0 l 829 234 "},"𝛶":{"x_min":38.890625,"x_max":1031.953125,"ha":851,"o":"m 1031 838 b 931 923 1020 894 988 923 b 747 811 851 923 795 868 l 486 500 l 412 712 b 201 927 375 822 338 927 b 141 916 183 927 159 922 b 38 856 120 909 51 872 l 50 833 b 123 848 73 843 97 848 b 209 815 155 848 187 840 b 255 730 225 798 247 752 l 358 448 l 275 108 b 106 22 254 22 180 22 l 101 0 l 556 0 l 562 22 l 533 22 b 426 72 498 22 426 23 b 431 108 426 84 429 97 l 513 437 l 761 736 b 937 868 797 779 877 868 b 1009 827 965 868 997 854 l 1031 838 "},"𝕽":{"x_min":69.4375,"x_max":1168.0625,"ha":1228,"o":"m 1140 162 b 1047 102 1116 136 1083 102 b 988 277 1025 102 1001 169 b 881 502 977 377 947 459 l 881 505 b 1066 756 1025 556 1066 677 b 740 973 1066 875 951 973 l 598 869 b 347 970 547 929 468 970 b 140 906 261 970 191 952 b 69 758 100 870 69 819 b 172 486 69 630 172 626 b 94 373 172 426 129 386 l 105 340 b 369 572 287 368 369 455 b 266 850 369 693 266 731 b 333 925 266 902 300 925 b 440 606 416 925 440 722 b 411 168 440 413 440 168 b 236 268 393 168 268 248 l 80 -4 l 109 -20 b 180 50 148 25 170 40 b 343 -34 219 29 284 -1 b 638 437 498 158 543 222 l 711 455 b 772 243 745 455 762 355 b 918 -19 784 102 800 33 l 951 -19 b 1168 138 1043 8 1137 95 l 1140 162 m 827 708 b 658 494 827 605 772 509 b 669 633 665 519 669 586 b 629 822 669 694 655 768 b 722 876 670 866 697 876 b 827 708 793 876 827 795 "},"³":{"x_min":18.0625,"x_max":404.171875,"ha":417,"o":"m 283 709 b 366 823 350 742 366 784 b 216 938 366 888 301 938 b 29 806 131 938 79 899 l 63 780 b 183 861 101 841 133 861 b 261 795 231 861 261 837 b 129 679 261 745 226 712 l 129 638 b 168 642 162 642 165 642 b 291 529 244 642 291 601 b 197 430 291 472 254 430 b 126 458 172 430 156 436 b 69 484 100 477 84 484 b 18 441 41 484 18 470 b 144 363 18 397 70 363 b 404 554 298 363 404 444 b 283 706 404 620 366 686 l 283 709 "},"𝜑":{"x_min":69.4375,"x_max":876.390625,"ha":925,"o":"m 343 26 b 186 220 255 26 186 111 b 484 590 186 402 325 573 l 491 612 l 456 612 b 69 215 234 612 69 415 b 333 -15 69 69 183 -15 l 273 -254 l 388 -254 l 444 -15 b 876 393 712 -15 876 197 b 730 608 876 544 812 608 b 390 206 541 608 443 411 l 343 26 m 527 330 b 698 530 555 444 631 530 b 759 401 729 530 759 513 b 454 26 759 219 586 26 l 527 330 "},"𝞾":{"x_min":84.71875,"x_max":730.5625,"ha":764,"o":"m 431 525 b 554 405 502 525 554 495 b 354 112 554 293 479 112 b 262 216 286 112 262 159 b 272 287 262 238 266 263 l 338 555 b 344 594 343 569 344 581 b 333 656 344 620 338 643 l 311 656 l 156 606 b 165 566 162 598 165 583 b 145 450 165 533 155 490 l 95 245 b 84 163 88 216 84 188 b 318 -19 84 48 162 -19 b 730 425 522 -19 730 176 b 463 656 730 586 615 656 l 431 525 "},"𝐓":{"x_min":43.0625,"x_max":883.328125,"ha":926,"o":"m 883 659 l 880 938 l 47 938 l 43 659 l 83 659 b 351 894 106 825 179 888 l 351 162 b 216 34 351 59 336 44 l 216 0 l 712 0 l 712 34 b 576 162 591 43 576 56 l 576 894 b 843 659 747 888 819 825 l 883 659 "},"[":{"x_min":122.21875,"x_max":415.28125,"ha":463,"o":"m 415 -216 l 415 -181 l 300 -181 b 227 -106 254 -181 227 -162 l 227 818 b 300 884 227 868 252 884 l 415 884 l 415 919 l 122 919 l 122 -216 l 415 -216 "},"𝓈":{"x_min":86.59375,"x_max":572.71875,"ha":715,"o":"m 179 337 b 456 533 279 379 358 420 l 458 533 b 481 386 471 484 481 434 b 222 26 481 169 354 26 b 147 63 186 26 147 43 b 228 141 147 104 228 70 b 169 193 228 177 200 193 b 86 88 128 193 86 147 b 225 -15 86 19 154 -15 b 465 77 319 -15 400 15 b 572 316 540 147 572 230 b 492 568 572 400 542 486 b 550 693 535 611 550 661 b 511 737 550 726 528 737 b 437 619 487 737 437 695 b 444 581 437 608 440 594 b 167 375 353 468 251 404 l 179 337 "},"𝚆":{"x_min":15.28125,"x_max":711.109375,"ha":729,"o":"m 711 886 b 677 919 711 904 695 919 l 533 919 b 500 886 515 919 500 904 l 500 863 b 533 830 500 844 515 830 l 590 830 b 500 100 555 559 500 130 l 498 100 b 415 519 498 131 444 377 b 373 552 411 538 393 552 l 352 552 b 311 519 331 552 315 538 b 227 100 280 377 227 131 l 226 100 b 134 830 226 130 170 559 l 191 830 b 225 863 209 830 225 844 l 225 886 b 191 919 225 904 209 919 l 48 919 b 15 886 29 919 15 904 l 15 863 b 48 830 15 844 29 830 l 68 830 l 172 22 b 211 -11 175 2 191 -11 l 229 -11 b 270 22 250 -11 266 2 b 362 452 302 165 362 443 l 363 452 b 454 22 363 443 423 165 b 495 -11 458 2 476 -11 l 513 -11 b 552 22 533 -11 550 2 l 658 830 l 677 830 b 711 863 695 830 711 844 l 711 886 "},"𝞳":{"x_min":52.78125,"x_max":808.328125,"ha":746,"o":"m 808 548 l 781 656 b 325 415 600 638 436 512 l 322 415 l 377 641 l 211 641 l 52 0 l 219 0 l 276 231 l 309 259 l 472 0 l 687 0 l 452 370 b 802 526 561 452 637 512 l 808 548 "},"𝑋":{"x_min":34.71875,"x_max":1125,"ha":1097,"o":"m 1125 906 l 816 906 l 811 884 l 823 884 b 886 851 868 884 884 873 b 865 804 886 836 877 819 l 637 548 l 554 797 b 545 836 548 812 545 825 b 618 884 545 879 576 884 l 644 884 l 650 906 l 256 906 l 251 884 l 263 884 b 405 769 366 884 390 812 l 523 448 l 234 129 b 40 22 183 73 115 31 l 34 0 l 380 0 l 386 22 l 355 22 b 277 66 302 22 277 40 b 294 105 277 79 281 91 l 545 384 l 641 115 b 647 79 645 101 647 90 b 554 22 647 27 606 22 l 538 22 l 533 0 l 923 0 l 929 22 l 909 22 b 800 116 840 22 816 69 l 666 486 l 926 781 b 1113 884 977 840 1018 884 l 1119 884 l 1125 906 "},"𝟳":{"x_min":48.609375,"x_max":654.171875,"ha":694,"o":"m 654 938 l 80 938 l 48 779 l 458 779 l 166 0 l 327 0 l 654 938 "},"𝗱":{"x_min":34.71875,"x_max":643.0625,"ha":719,"o":"m 643 11 b 634 175 637 61 634 130 l 634 938 l 468 938 l 468 602 b 322 656 416 643 375 656 b 34 315 147 656 34 520 b 301 -19 34 109 136 -19 b 470 47 356 -19 418 -8 l 473 47 l 473 -15 l 483 -19 l 643 11 m 468 234 b 338 112 440 163 409 112 b 208 319 256 112 208 208 b 340 525 208 425 252 525 b 468 429 400 525 429 494 l 468 234 "},"ª":{"x_min":5.5625,"x_max":375,"ha":383,"o":"m 375 614 b 336 596 361 601 350 596 b 318 645 320 596 318 606 l 318 805 b 172 939 318 895 269 939 b 22 846 84 939 22 900 b 66 803 22 821 41 803 b 109 838 90 803 109 820 b 108 849 109 841 109 845 b 105 868 106 857 105 863 b 168 900 105 885 137 900 b 218 842 200 900 218 880 l 218 800 b 36 713 91 753 73 745 b 5 642 16 696 5 670 b 104 546 5 586 47 546 b 230 607 145 546 184 564 b 293 546 238 563 255 546 b 375 588 325 546 341 556 l 375 614 m 219 659 b 204 628 219 647 215 638 b 145 613 180 617 163 613 b 93 674 116 613 93 641 b 219 766 93 710 122 731 l 219 659 "},"𝐆":{"x_min":51.390625,"x_max":1048.609375,"ha":1081,"o":"m 1048 398 l 570 398 l 570 363 b 712 261 690 356 712 333 l 712 137 b 579 19 712 66 677 19 b 363 140 472 19 412 59 b 297 469 318 216 297 326 b 552 913 297 756 391 913 b 744 836 618 913 684 888 b 877 629 804 783 829 734 l 912 629 l 912 955 l 875 955 b 813 891 854 905 840 891 b 750 911 800 891 781 897 b 534 959 669 944 606 959 b 51 459 256 959 51 736 b 544 -26 51 162 265 -26 b 929 61 688 -26 838 8 l 929 225 b 1048 363 929 312 944 352 l 1048 398 "},"š":{"x_min":53,"x_max":484.9375,"ha":540,"o":"m 484 936 l 436 936 l 268 793 l 101 936 l 53 936 l 223 704 l 312 704 l 484 936 m 198 418 b 139 512 159 441 139 481 b 243 606 139 577 183 606 b 400 436 326 606 368 561 l 421 436 l 414 625 l 398 625 b 376 611 387 612 382 611 b 337 622 366 611 353 615 b 244 637 308 636 278 637 b 53 466 130 637 53 576 b 219 265 53 395 104 329 l 294 223 b 368 119 340 198 368 162 b 253 16 368 62 323 16 b 76 212 157 16 105 77 l 54 212 l 54 -5 l 72 -5 b 105 11 80 8 89 11 b 169 -1 121 11 136 9 b 271 -13 201 -12 241 -13 b 465 159 376 -13 465 66 b 343 330 465 238 432 276 l 198 418 "},"𝐹":{"x_min":52.78125,"x_max":1004.171875,"ha":858,"o":"m 1004 906 l 281 906 l 276 886 l 302 886 b 408 831 386 886 408 861 b 402 798 408 822 405 809 l 230 108 b 83 22 218 61 188 22 l 58 22 l 52 0 l 527 0 l 533 22 l 488 22 b 379 79 405 22 379 44 b 384 108 379 88 383 100 l 470 461 l 605 461 b 702 391 645 461 702 456 b 695 306 702 366 700 326 l 718 306 l 801 643 l 779 643 b 600 511 750 525 686 511 l 484 511 l 570 855 l 775 855 b 927 734 840 855 923 843 b 926 684 927 715 927 695 l 948 684 l 1004 906 "},"1":{"x_min":154.171875,"x_max":547.21875,"ha":694,"o":"m 547 0 l 547 20 b 415 105 443 20 415 45 l 415 934 l 402 939 l 154 812 l 154 793 l 191 807 b 254 823 216 816 240 823 b 295 755 283 823 295 802 l 295 132 b 163 20 295 55 266 26 l 163 0 l 547 0 "},"𝖱":{"x_min":102.78125,"x_max":806.953125,"ha":818,"o":"m 806 0 l 465 420 b 712 673 618 443 712 543 b 359 919 712 830 594 919 l 102 919 l 102 0 l 223 0 l 223 415 l 320 415 l 663 0 l 806 0 m 223 518 l 223 816 l 338 816 b 588 675 519 816 588 775 b 347 518 588 568 522 518 l 223 518 "},"𝘍":{"x_min":102.78125,"x_max":943.0625,"ha":743,"o":"m 943 919 l 331 919 l 102 0 l 223 0 l 330 431 l 741 431 l 768 536 l 356 536 l 426 816 l 929 816 l 943 919 "},"𝔑":{"x_min":69.4375,"x_max":1076.390625,"ha":1149,"o":"m 1076 709 b 886 943 930 723 1022 887 b 791 962 858 954 825 962 b 587 838 708 962 626 923 l 584 838 b 326 965 534 918 427 965 b 69 750 187 965 69 887 b 227 486 69 622 227 605 b 123 373 227 426 162 386 l 136 343 b 366 556 255 372 366 461 b 206 829 366 712 206 691 b 300 922 206 876 241 922 b 450 562 440 922 450 668 b 379 122 450 406 450 122 b 213 208 361 122 241 191 l 83 6 l 113 -12 b 175 55 137 23 165 47 b 343 -30 194 52 305 -8 b 547 256 418 50 500 166 b 623 555 604 366 623 459 b 609 762 623 620 618 688 b 731 902 609 840 675 902 b 843 769 836 902 816 830 b 968 688 858 734 888 701 l 968 686 b 741 250 855 613 741 429 b 870 -30 741 113 768 5 l 890 -30 b 1072 123 954 -1 1038 79 l 1045 145 b 947 76 1027 126 980 76 b 904 288 904 76 904 243 b 1076 690 904 458 922 620 l 1076 709 "},"𝟘":{"x_min":38.890625,"x_max":711.109375,"ha":750,"o":"m 711 459 b 375 938 711 676 636 938 b 38 459 113 938 38 676 b 375 -19 38 243 113 -19 b 711 459 636 -19 711 243 m 566 779 b 650 459 630 725 650 538 b 566 140 650 380 629 194 l 566 779 m 505 93 b 375 41 473 62 419 41 b 244 93 330 41 276 62 l 244 826 b 375 877 272 859 333 877 b 505 826 419 877 475 862 l 505 93 m 183 140 b 100 459 120 194 100 380 b 183 779 100 538 120 725 l 183 140 "},"𝐲":{"x_min":22.21875,"x_max":669.453125,"ha":694,"o":"m 669 640 l 458 640 l 458 606 b 533 561 518 604 533 594 b 518 493 533 544 530 529 l 423 231 l 323 490 b 295 570 308 529 295 565 b 345 605 295 591 311 602 l 368 606 l 368 640 l 22 640 l 22 606 b 69 587 52 602 61 598 b 162 384 81 570 134 454 l 327 -18 l 302 -91 b 211 -205 279 -161 244 -205 b 187 -181 198 -205 187 -194 b 188 -173 187 -181 187 -177 b 191 -154 190 -166 191 -159 b 108 -81 191 -113 155 -81 b 22 -175 55 -81 22 -122 b 156 -284 22 -240 77 -284 b 273 -238 204 -284 244 -269 b 380 -22 302 -206 331 -152 l 586 530 b 669 606 608 590 626 601 l 669 640 "},"𝓣":{"x_min":90.28125,"x_max":1423.609375,"ha":1431,"o":"m 1387 971 b 1187 918 1326 936 1234 918 b 706 971 1040 918 861 971 b 388 914 580 971 472 958 b 225 666 288 861 225 768 b 338 481 225 580 273 516 b 488 451 383 458 433 451 b 780 745 623 451 744 556 l 713 762 b 491 527 662 602 601 527 b 351 676 418 527 351 572 b 625 894 351 794 463 894 b 1120 791 769 894 909 791 b 1423 912 1229 791 1345 844 l 1387 971 m 997 775 b 680 361 858 662 812 625 b 331 47 559 119 459 47 b 220 90 269 47 236 69 l 220 91 b 301 186 276 101 301 145 b 206 279 301 233 268 279 b 90 150 141 279 90 219 b 338 -29 90 45 176 -29 b 741 134 472 -29 625 18 b 891 368 804 197 855 275 b 1045 725 940 488 958 636 l 997 775 "},"𝗀":{"x_min":30.21875,"x_max":648.296875,"ha":689,"o":"m 648 512 l 648 605 l 553 605 b 439 623 512 605 474 611 b 335 643 402 637 381 643 b 88 411 190 643 88 536 b 159 247 88 339 118 285 b 136 221 151 237 145 230 b 76 101 92 180 76 132 b 127 14 76 69 89 39 b 30 -142 62 -21 30 -78 b 267 -299 30 -249 133 -299 b 635 -81 445 -299 635 -242 b 401 83 635 26 544 78 b 255 89 353 85 302 87 b 188 142 201 92 188 115 b 245 203 188 161 214 185 b 330 192 277 194 301 192 b 562 415 463 192 562 283 b 539 512 562 453 555 483 l 648 512 m 452 412 b 331 292 452 347 406 292 b 196 419 248 292 196 342 b 327 544 196 485 251 544 b 452 412 406 544 452 497 m 278 -20 b 478 -37 333 -20 421 -21 b 524 -92 517 -46 524 -64 b 449 -178 524 -127 494 -160 b 278 -199 399 -198 335 -199 b 139 -119 197 -199 139 -176 b 251 -20 139 -76 182 -41 l 278 -20 "},"ī":{"x_min":-29.171875,"x_max":402.78125,"ha":386,"o":"m 402 704 l 402 779 l -29 779 l -29 704 l 402 704 m 351 0 l 351 20 b 248 145 259 27 248 43 l 248 633 l 241 638 l 27 562 l 27 540 b 86 547 52 547 73 547 b 131 459 120 547 131 525 l 131 144 b 22 20 131 38 118 26 l 22 0 l 351 0 "},"𝛑":{"x_min":27.78125,"x_max":845.828125,"ha":876,"o":"m 811 176 b 727 77 797 109 769 77 b 650 304 676 77 650 152 b 665 501 650 394 655 461 l 827 501 l 827 640 l 293 640 b 123 593 220 640 163 625 b 27 429 86 563 54 508 l 62 429 b 268 501 88 477 156 501 b 234 312 268 451 256 388 b 136 148 204 209 170 155 b 93 120 119 145 104 136 b 76 66 81 104 76 86 b 186 -25 76 5 112 -25 b 356 326 294 -25 356 93 l 356 363 l 354 501 l 540 501 b 525 444 536 488 531 469 b 500 358 512 402 504 375 b 470 181 480 284 470 226 b 501 54 470 130 480 87 b 648 -19 531 4 580 -19 b 787 36 704 -19 751 -1 b 845 176 826 75 845 122 l 811 176 "},"𝘣":{"x_min":102.78125,"x_max":743.0625,"ha":689,"o":"m 431 943 l 420 950 l 315 916 l 102 65 b 312 -13 151 6 231 -13 b 743 434 530 -13 743 188 b 534 643 743 562 665 643 b 340 575 472 643 401 619 l 431 943 m 301 419 b 488 544 351 501 425 544 b 627 400 580 544 627 487 b 344 84 627 198 462 84 b 229 130 298 84 256 101 l 301 419 "},"𝚹":{"x_min":48.609375,"x_max":1031.953125,"ha":1081,"o":"m 1031 466 b 547 961 1031 754 826 961 b 48 465 258 961 48 761 b 538 -25 48 177 251 -25 b 1031 466 826 -25 1031 177 m 297 547 b 534 915 312 783 397 915 b 781 547 679 915 765 784 l 297 547 m 784 422 b 541 20 777 158 694 20 b 294 422 390 20 302 154 l 784 422 "},"𝟀":{"x_min":-111.109375,"x_max":869.453125,"ha":799,"o":"m 869 641 l 677 641 l 448 352 l 448 358 b 238 656 448 519 391 656 l 143 548 l 137 526 b 306 312 268 518 306 422 b 294 193 306 273 302 231 l -111 -270 l 79 -270 l 301 11 l 301 5 b 497 -284 301 -115 343 -284 l 591 -175 l 597 -152 b 443 62 480 -141 443 -44 b 454 168 443 97 447 133 l 869 641 "},"𝕞":{"x_min":76.390625,"x_max":1076.390625,"ha":1153,"o":"m 1076 0 l 1076 415 b 861 638 1076 548 997 638 b 662 511 759 638 712 591 b 463 638 630 597 552 638 b 284 543 391 638 323 605 l 281 543 l 281 625 l 76 625 l 76 0 l 281 0 l 281 348 b 458 579 281 451 340 579 b 473 577 463 579 468 579 l 473 0 l 679 0 l 679 348 b 855 579 679 451 737 579 b 870 577 861 579 865 579 l 870 0 l 1076 0 m 1015 61 l 931 61 l 931 568 b 1015 407 997 541 1015 470 l 1015 61 m 618 61 l 534 61 l 534 568 b 618 407 600 541 618 470 l 618 61 m 220 61 l 137 61 l 137 563 l 220 563 l 220 61 "},"𝑰":{"x_min":58.328125,"x_max":773.609375,"ha":697,"o":"m 773 929 l 270 929 l 265 897 l 316 897 b 395 843 375 897 395 876 b 391 813 395 834 394 825 l 231 116 b 116 31 219 62 201 31 l 63 31 l 58 0 l 561 0 l 566 31 l 515 31 b 434 79 451 31 436 47 b 436 113 434 94 434 106 l 597 812 b 715 897 609 866 630 897 l 768 897 l 773 929 "},"G":{"x_min":44.4375,"x_max":984.71875,"ha":1003,"o":"m 984 491 l 629 491 l 629 466 b 752 338 738 458 752 447 l 752 120 b 568 36 752 75 675 36 b 202 450 350 36 202 191 b 309 787 202 587 236 713 b 541 883 369 848 445 883 b 744 806 619 883 691 856 b 843 645 786 766 808 730 l 875 645 l 863 938 l 833 938 b 770 893 825 912 800 893 b 709 906 756 893 736 897 b 525 938 647 927 600 938 b 193 819 390 938 276 895 b 44 454 100 734 44 606 b 159 129 44 318 81 211 b 534 -19 251 33 393 -19 b 887 77 677 -19 811 15 l 887 355 b 984 466 887 445 904 459 l 984 491 "},"𝓜":{"x_min":83.328125,"x_max":1729.171875,"ha":1806,"o":"m 1713 959 b 1641 970 1697 969 1656 970 b 1362 820 1548 970 1452 912 b 1041 356 1245 702 1133 529 b 840 87 1006 291 900 87 b 825 106 827 87 825 100 b 851 190 825 129 844 175 b 1298 936 915 334 1102 663 l 1284 959 b 1233 970 1266 968 1254 970 b 906 805 1133 970 1026 925 b 586 365 812 712 713 575 b 294 47 440 126 386 47 b 209 73 259 47 227 48 l 209 75 b 297 163 272 75 297 123 b 200 261 297 211 261 261 b 83 134 134 261 83 205 b 279 -29 83 30 165 -29 b 469 58 358 -29 415 2 b 712 419 544 134 615 258 b 1063 844 836 623 926 748 l 1065 843 b 705 268 951 686 811 481 b 656 100 673 204 656 144 b 769 -5 656 37 711 -5 b 941 69 840 -5 890 19 b 1113 330 998 125 1047 212 b 1515 856 1281 630 1390 770 l 1518 855 b 1123 106 1254 504 1123 248 b 1288 -25 1123 18 1181 -25 b 1611 194 1404 -25 1500 61 l 1559 241 b 1327 56 1443 112 1369 56 b 1291 94 1302 56 1291 68 b 1729 936 1291 180 1454 512 l 1713 959 "},"`":{"x_min":25,"x_max":336.109375,"ha":463,"o":"m 336 704 l 134 909 b 75 941 111 934 95 941 b 25 897 44 941 25 926 b 66 837 25 875 40 854 l 280 704 l 336 704 "},"𝛝":{"x_min":16.671875,"x_max":861.109375,"ha":899,"o":"m 861 409 b 765 415 836 409 804 411 l 765 493 b 675 823 765 629 734 738 b 420 961 609 915 526 961 b 262 923 358 961 306 948 b 162 738 195 886 162 825 b 561 395 162 555 295 441 l 561 388 b 545 123 561 261 555 172 b 451 23 531 56 500 23 b 363 72 408 23 379 38 b 343 263 350 102 343 166 l 343 301 b 302 405 343 344 330 380 b 205 441 276 430 243 441 b 90 397 163 441 125 426 b 16 293 56 369 31 334 l 48 276 b 116 344 75 322 98 344 b 150 277 138 344 150 322 l 150 238 b 451 -19 150 66 250 -19 b 745 222 608 -19 705 61 b 763 375 754 255 759 306 b 859 372 804 373 836 372 l 861 409 m 559 469 b 402 595 491 501 440 543 b 347 769 365 648 347 706 b 437 902 347 858 376 902 b 508 845 468 902 491 883 b 559 469 537 776 555 651 "},"𝘚":{"x_min":86.109375,"x_max":829.171875,"ha":751,"o":"m 829 827 b 590 938 791 890 712 938 b 248 633 418 938 248 813 b 466 404 248 536 319 470 b 604 258 559 362 604 320 b 373 86 604 161 512 86 b 140 284 280 86 168 138 l 115 284 l 86 97 b 352 -19 133 12 234 -19 b 734 304 547 -19 734 104 b 529 525 734 397 675 459 b 373 677 458 556 373 605 b 556 833 373 755 462 833 b 761 662 659 833 744 777 l 787 662 l 829 827 "},"𝕳":{"x_min":58.328125,"x_max":1104.171875,"ha":1171,"o":"m 859 973 b 679 886 787 895 725 886 b 533 970 636 886 602 904 b 177 604 415 877 177 734 b 433 225 177 447 431 329 b 416 162 433 186 427 162 b 230 280 398 162 251 266 l 58 8 l 88 -11 b 158 62 129 37 148 52 b 331 -34 190 47 273 0 l 508 155 b 623 319 584 234 623 273 b 519 481 623 361 612 401 b 663 548 595 534 626 548 b 865 255 791 548 865 409 b 694 -148 865 151 847 -36 b 525 -38 677 -97 612 -38 b 244 -261 394 -38 298 -166 l 273 -284 b 452 -220 337 -226 412 -220 b 587 -284 497 -220 536 -241 l 623 -284 b 1104 313 820 -129 1104 59 b 726 688 1104 502 958 634 b 486 525 659 637 622 605 b 386 725 445 576 386 652 b 412 802 386 752 393 779 b 591 704 462 731 526 704 b 888 952 725 704 861 825 l 859 973 "},"𝘓":{"x_min":102.78125,"x_max":783.328125,"ha":776,"o":"m 783 102 l 248 102 l 452 919 l 331 919 l 102 0 l 733 0 l 783 102 "},"𝒐":{"x_min":61.109375,"x_max":748.609375,"ha":779,"o":"m 748 412 b 470 641 748 561 634 641 b 61 236 254 641 61 475 b 320 -13 61 84 156 -13 b 748 412 548 -13 748 154 m 587 416 b 344 41 587 238 472 41 b 222 219 261 41 222 84 b 463 586 222 376 341 586 b 587 416 527 586 587 543 "},"ŏ":{"x_min":40.28125,"x_max":652.78125,"ha":694,"o":"m 502 922 b 348 787 462 823 423 787 b 193 922 261 787 211 834 l 152 922 b 345 704 152 787 215 704 b 543 922 459 704 526 775 l 502 922 m 652 320 b 352 638 652 512 522 638 b 40 316 165 638 40 509 b 340 -13 40 123 172 -13 b 652 320 527 -13 652 127 m 527 283 b 363 25 527 122 466 25 b 238 94 313 25 269 50 b 165 379 187 169 165 269 b 326 600 165 518 230 600 b 458 530 386 600 425 572 b 527 283 502 473 527 377 "},"ý":{"x_min":19.4375,"x_max":659.71875,"ha":694,"o":"m 198 704 l 254 704 l 468 838 b 509 897 497 856 509 875 b 461 941 509 925 491 941 b 402 909 440 941 427 934 l 198 704 m 659 625 l 475 625 l 475 604 b 538 570 518 604 538 593 b 533 545 538 565 537 555 l 398 162 l 243 509 b 225 566 234 529 225 551 b 304 604 225 591 244 601 l 304 625 l 19 625 l 19 605 b 93 556 55 600 79 587 l 276 165 b 334 25 302 109 334 45 b 279 -125 334 2 306 -84 b 209 -186 256 -158 229 -186 b 173 -176 201 -186 188 -184 b 101 -158 148 -162 126 -158 b 41 -222 68 -158 41 -187 b 138 -302 41 -268 79 -302 b 381 -34 244 -302 309 -231 l 590 533 b 659 604 609 584 626 600 l 659 625 "},"𝓏":{"x_min":72.21875,"x_max":856.953125,"ha":960,"o":"m 825 247 b 551 39 706 83 612 39 b 527 58 540 39 527 47 b 551 142 527 89 551 103 b 448 219 551 182 518 219 b 348 197 426 219 391 219 l 347 198 l 656 456 b 823 580 762 491 823 534 b 780 612 823 602 802 612 b 612 488 747 612 681 582 b 506 464 579 471 541 464 b 400 509 468 464 426 476 b 425 594 412 535 425 566 b 369 663 425 630 405 663 b 304 584 330 663 304 626 b 340 496 304 555 318 523 b 198 435 304 460 259 435 b 131 452 175 435 155 441 l 115 416 b 200 394 140 400 172 394 b 370 470 256 394 326 423 b 508 423 408 441 456 423 b 568 432 529 423 550 425 l 569 430 l 248 169 b 72 19 113 107 72 58 b 102 -7 72 4 83 -7 b 237 79 137 -7 177 11 b 413 178 302 154 354 178 b 454 140 434 178 454 161 b 426 48 454 108 426 90 b 509 -14 426 8 450 -14 b 856 225 602 -14 708 18 l 825 247 "},"º":{"x_min":8.328125,"x_max":422.21875,"ha":431,"o":"m 422 752 b 220 938 422 862 338 938 b 8 740 93 938 8 859 b 209 547 8 627 93 547 b 422 752 331 547 422 636 m 320 716 b 222 593 320 636 286 593 b 144 640 187 593 161 609 b 109 790 122 680 109 736 b 205 893 109 851 148 893 b 320 716 273 893 320 820 "},"𝚶":{"x_min":48.609375,"x_max":1031.953125,"ha":1081,"o":"m 1031 465 b 547 959 1031 752 826 959 b 48 463 258 959 48 759 b 538 -26 48 176 251 -26 b 1031 465 826 -26 1031 176 m 786 455 b 541 19 786 169 701 19 b 294 458 383 19 294 165 b 534 913 294 750 381 913 b 786 455 697 913 786 751 "},"𝖯":{"x_min":102.78125,"x_max":711.109375,"ha":729,"o":"m 102 919 l 102 0 l 223 0 l 223 395 l 390 395 b 711 663 593 395 711 505 b 358 919 711 827 600 919 l 102 919 m 223 498 l 223 816 l 338 816 b 588 665 519 816 588 763 b 345 498 588 556 522 498 l 223 498 "},"𝐢":{"x_min":20.828125,"x_max":355.5625,"ha":386,"o":"m 298 851 b 193 959 298 911 251 959 b 83 851 130 959 83 912 b 190 744 83 790 129 744 b 298 851 251 744 298 790 m 355 0 l 355 33 b 288 118 306 40 288 58 l 288 640 l 20 640 l 20 606 b 95 518 81 594 95 580 l 95 122 b 22 33 95 58 86 48 l 22 0 l 355 0 "},"ń":{"x_min":22.21875,"x_max":673.609375,"ha":694,"o":"m 265 704 l 320 704 l 534 839 b 576 897 563 857 576 875 b 527 941 576 925 558 941 b 469 909 506 941 494 934 l 265 704 m 673 0 l 673 20 b 588 118 605 27 588 43 l 588 425 b 425 639 588 562 530 639 b 225 526 361 639 297 608 l 223 526 l 223 634 l 212 639 b 22 576 144 614 98 598 l 22 552 b 62 558 31 557 47 558 b 111 468 101 558 111 536 l 111 130 b 25 20 111 48 95 26 l 25 0 l 318 0 l 318 20 b 227 100 247 26 227 45 l 227 483 b 370 562 291 545 325 562 b 472 422 438 562 472 520 l 472 145 b 386 20 472 54 455 26 l 384 0 l 673 0 "},"‴":{"x_min":104.171875,"x_max":677.78125,"ha":782,"o":"m 484 570 l 509 558 l 658 843 b 677 897 666 859 677 877 b 638 941 677 920 665 941 b 576 879 598 941 586 912 l 484 570 m 294 570 l 319 558 l 468 843 b 487 897 476 859 487 877 b 448 941 487 920 475 941 b 386 879 408 941 395 912 l 294 570 m 104 569 l 129 556 l 277 841 b 297 895 286 858 297 876 b 258 941 297 919 284 941 b 195 877 218 941 205 911 l 104 569 "},"𝗧":{"x_min":19.4375,"x_max":870.828125,"ha":890,"o":"m 870 797 l 856 938 l 38 938 l 19 797 l 356 797 l 356 0 l 537 0 l 537 797 l 870 797 "},"𝜧":{"x_min":58.328125,"x_max":1487.5,"ha":1411,"o":"m 1487 929 l 1147 929 l 734 279 l 608 929 l 266 929 l 261 897 l 315 897 b 395 852 373 897 395 884 b 390 806 395 843 394 819 l 236 131 b 113 31 222 69 200 31 l 63 31 l 58 0 l 475 0 l 479 31 l 426 31 b 350 73 363 31 352 43 b 354 129 350 91 351 115 l 465 612 l 590 0 l 668 0 l 1061 608 l 1062 608 l 948 116 b 830 31 936 65 918 31 l 781 31 l 776 0 l 1279 0 l 1284 31 l 1230 31 b 1148 86 1170 31 1148 51 b 1152 113 1148 94 1150 104 l 1312 806 b 1436 897 1325 862 1344 897 l 1483 897 l 1487 929 "},"𝚭":{"x_min":38.890625,"x_max":880.5625,"ha":963,"o":"m 880 336 l 844 336 b 708 104 804 218 786 159 b 427 48 651 63 559 48 l 312 48 l 838 916 l 838 938 l 112 938 l 81 651 l 120 651 b 454 886 183 850 240 877 l 569 890 l 38 22 l 38 0 l 843 0 l 880 336 "},"𝑅":{"x_min":52.78125,"x_max":1006.953125,"ha":1028,"o":"m 1006 22 b 865 141 927 29 891 87 l 705 460 b 952 697 854 489 952 582 b 652 907 952 815 875 907 l 276 907 l 270 885 l 298 885 b 405 833 381 885 405 862 b 398 798 405 822 401 810 l 226 108 b 80 22 213 61 186 22 l 58 22 l 52 0 l 504 0 l 509 22 l 483 22 b 377 76 402 22 377 43 b 381 108 377 87 379 97 l 468 440 b 520 435 487 437 501 435 b 561 437 531 435 547 436 l 769 0 l 1004 0 l 1006 22 m 569 851 b 616 855 584 854 597 855 b 790 682 704 855 790 832 b 525 485 790 565 709 485 b 480 490 512 485 498 486 l 569 851 "},"𝔚":{"x_min":66.609375,"x_max":1423.5625,"ha":1493,"o":"m 1422 723 b 1101 962 1263 754 1380 962 b 937 912 1043 962 983 936 b 784 962 902 937 844 962 b 572 841 673 962 615 903 l 569 841 b 331 965 520 909 441 965 b 66 755 184 965 66 889 b 224 486 66 615 224 604 b 120 373 224 428 161 385 l 134 343 b 361 555 237 366 361 447 b 204 828 361 690 204 701 b 297 922 204 879 243 922 b 452 586 419 922 452 719 b 336 248 452 328 380 273 b 93 -3 226 246 127 135 l 122 -12 b 301 105 140 41 216 105 b 641 -33 409 105 473 -33 b 865 41 745 -33 815 -2 b 1106 -33 922 -6 1011 -33 b 1291 28 1174 -33 1238 -9 b 1423 229 1370 85 1423 171 b 1324 571 1423 389 1324 447 b 1422 700 1324 632 1349 691 l 1422 723 m 1315 697 b 1162 510 1224 658 1162 579 b 1276 146 1162 375 1276 266 b 1158 35 1276 101 1236 35 b 968 158 1095 35 1006 69 b 1026 351 1001 211 1026 294 b 874 693 1024 505 874 562 b 1056 903 874 778 951 903 b 1315 700 1187 903 1115 726 l 1315 697 m 404 243 b 626 646 597 380 626 504 b 597 786 626 697 608 758 b 748 903 616 837 680 903 b 855 836 802 903 827 883 b 751 603 793 764 751 680 b 830 397 751 532 780 462 b 881 258 856 362 881 311 b 726 35 881 150 830 35 b 405 241 631 35 563 211 l 404 243 "},"¤":{"x_min":-30.4375,"x_max":724.421875,"ha":694,"o":"m 724 55 l 591 188 b 645 365 631 251 645 298 b 591 539 645 433 631 479 l 724 675 l 657 742 l 521 608 b 348 662 467 646 416 662 b 172 608 281 662 233 647 l 39 742 l -30 675 l 105 539 b 48 364 65 483 48 430 b 105 188 48 297 65 247 l -30 55 l 39 -14 l 172 122 b 348 65 230 81 283 65 b 521 122 413 65 466 83 l 657 -14 l 724 55 m 550 366 b 348 154 550 247 462 154 b 143 365 234 154 143 248 b 345 574 143 479 234 574 b 550 366 460 574 550 482 "},"𝞦":{"x_min":27.78125,"x_max":1156.953125,"ha":1028,"o":"m 1156 938 l 943 938 l 633 622 l 476 938 l 262 938 l 491 476 l 27 0 l 241 0 l 563 331 l 730 0 l 944 0 l 705 476 l 1156 938 "},"𝔳":{"x_min":65.28125,"x_max":644.4375,"ha":715,"o":"m 644 430 b 580 579 644 472 615 540 b 455 650 566 591 504 630 l 436 650 b 290 573 395 619 334 590 b 148 733 263 670 148 668 b 169 793 148 772 158 779 l 145 813 b 65 680 98 777 65 731 b 152 490 65 601 152 572 l 152 166 b 86 77 152 120 126 91 l 86 58 b 381 -25 201 58 323 15 l 401 -25 b 486 50 441 9 465 34 b 644 262 555 101 644 173 l 644 430 m 294 162 l 294 506 b 366 547 313 526 340 547 b 440 520 386 547 418 540 b 502 268 501 465 502 362 b 458 91 502 180 502 127 l 294 162 "},"𝓓":{"x_min":83.328125,"x_max":1258.328125,"ha":1376,"o":"m 1234 850 b 1106 785 1173 830 1161 821 b 648 970 1004 896 838 970 b 298 878 536 970 405 946 b 129 599 205 818 129 724 b 443 318 129 416 251 318 b 775 691 577 318 775 435 b 773 741 775 707 775 713 l 704 741 b 441 399 702 481 566 399 b 255 588 320 399 255 481 b 373 810 255 682 304 757 b 656 893 443 863 533 893 b 1026 728 798 893 941 839 b 773 424 906 632 848 542 b 538 117 659 242 598 161 b 280 196 463 156 388 196 b 154 174 231 196 188 189 b 83 84 111 154 83 124 b 151 -3 83 46 106 14 b 300 -24 187 -18 237 -24 b 519 9 386 -24 451 -13 b 754 -29 583 -13 665 -29 b 1247 449 1004 -29 1247 175 b 1162 718 1247 542 1215 635 b 1258 785 1197 753 1215 767 l 1234 850 m 640 67 b 975 416 788 141 901 271 b 1084 616 1006 478 1044 556 l 1086 616 b 1111 466 1101 570 1111 521 b 748 46 1111 186 936 46 b 640 64 712 46 668 55 l 640 67 m 430 70 b 298 52 388 57 345 52 b 209 89 238 52 209 61 b 270 120 209 113 252 120 b 430 71 320 120 373 109 l 430 70 "},"p":{"x_min":6.9375,"x_max":652.78125,"ha":694,"o":"m 220 636 l 212 639 b 12 568 138 609 88 591 l 12 545 b 47 547 25 547 34 547 b 104 468 94 547 104 533 l 104 -181 b 6 -277 104 -254 88 -269 l 6 -301 l 343 -301 l 343 -276 b 220 -172 238 -274 220 -259 l 220 45 b 361 -13 270 0 302 -13 b 652 343 526 -13 652 141 b 420 639 652 515 555 639 b 220 529 343 639 281 605 l 220 636 m 220 464 b 362 555 220 505 298 555 b 533 287 465 555 533 450 b 365 30 533 134 465 30 b 220 122 300 30 220 80 l 220 464 "},"𝔜":{"x_min":65.28125,"x_max":991.671875,"ha":1064,"o":"m 591 839 b 329 965 538 926 413 965 b 65 748 183 965 65 889 b 219 464 65 618 219 575 b 115 337 219 407 154 350 l 126 307 b 358 525 230 329 358 422 b 202 828 358 662 202 721 b 294 922 202 876 237 922 b 413 832 344 922 380 890 b 455 583 455 760 455 648 b 119 137 455 325 315 222 l 119 118 b 380 -16 205 98 322 48 l 637 128 l 620 160 l 498 111 b 334 204 459 147 383 183 l 334 207 b 629 643 529 333 629 423 b 618 764 629 689 623 719 b 736 903 618 823 670 903 b 818 521 816 903 818 718 b 656 -163 818 50 704 -110 b 481 -73 613 -113 544 -73 b 215 -262 333 -73 259 -160 l 243 -276 b 411 -196 281 -226 343 -196 b 584 -283 487 -196 530 -226 l 602 -283 b 991 533 844 -55 991 160 b 755 962 991 754 937 962 b 594 839 675 962 616 897 l 591 839 "},"𝖿":{"x_min":27.78125,"x_max":512.5,"ha":467,"o":"m 512 879 b 336 948 451 930 401 948 b 205 893 288 948 238 926 b 140 686 163 848 140 783 l 140 629 l 27 629 l 27 530 l 140 530 l 140 0 l 250 0 l 250 530 l 408 530 l 408 629 l 250 629 l 250 706 b 345 850 250 809 293 850 b 456 795 383 850 409 830 l 479 797 l 512 879 "},"y":{"x_min":19.4375,"x_max":659.71875,"ha":694,"o":"m 659 625 l 475 625 l 475 604 b 538 570 518 604 538 593 b 533 545 538 565 537 555 l 398 162 l 243 509 b 225 566 234 529 225 551 b 304 604 225 591 244 601 l 304 625 l 19 625 l 19 605 b 93 556 55 600 79 587 l 276 165 b 334 25 302 109 334 45 b 279 -125 334 2 306 -84 b 209 -186 256 -158 229 -186 b 173 -176 201 -186 188 -184 b 101 -158 148 -162 126 -158 b 41 -222 68 -158 41 -187 b 138 -302 41 -268 79 -302 b 381 -34 244 -302 309 -231 l 590 533 b 659 604 609 584 626 600 l 659 625 "},"𝛃":{"x_min":62.5,"x_max":727.78125,"ha":772,"o":"m 550 570 b 668 747 629 611 668 669 b 601 900 668 809 645 861 b 426 961 555 940 497 961 b 216 881 336 961 266 934 b 120 718 173 836 140 782 b 91 461 101 652 91 566 l 91 -74 b 62 -284 91 -174 81 -244 l 256 -284 b 284 -74 275 -238 284 -169 l 284 17 b 413 -19 325 -7 368 -19 b 626 64 497 -19 568 8 b 727 314 694 129 727 212 b 548 568 727 447 668 532 l 550 570 m 284 687 b 302 856 284 766 290 823 b 384 918 316 898 344 918 b 455 847 415 918 438 894 b 475 707 469 808 475 761 b 468 637 475 683 473 659 b 443 593 461 608 452 593 l 380 605 b 313 568 336 605 313 593 b 369 532 313 544 331 532 l 429 544 b 480 493 444 544 462 526 b 522 301 508 443 522 380 b 501 94 522 203 515 135 b 402 24 484 47 451 24 b 284 100 350 24 309 48 l 284 687 "},"𝒛":{"x_min":48.609375,"x_max":693.0625,"ha":738,"o":"m 693 626 l 693 640 l 193 640 l 129 421 l 162 417 b 265 487 183 478 201 487 l 494 487 l 48 15 l 73 -19 b 202 7 115 -2 156 7 b 480 -25 295 7 387 -25 b 668 111 570 -25 668 6 b 583 196 668 157 629 196 b 504 114 538 196 504 157 b 531 42 504 78 531 64 b 506 15 531 25 525 15 b 306 164 463 15 413 164 b 252 158 288 164 270 162 l 251 160 l 693 626 "},"‗":{"x_min":0,"x_max":694.453125,"ha":694,"o":"m 694 -265 l 694 -195 l 0 -195 l 0 -265 l 694 -265 m 694 -416 l 694 -347 l 0 -347 l 0 -416 l 694 -416 "},"𝚒":{"x_min":116.671875,"x_max":622.21875,"ha":729,"o":"m 422 790 b 365 847 422 820 397 847 b 306 790 331 847 306 820 b 365 731 306 758 331 731 b 422 790 397 731 422 758 m 622 55 b 588 88 622 73 606 88 l 420 88 l 420 591 b 387 625 420 609 405 625 l 161 625 b 127 591 143 625 127 609 l 127 569 b 161 536 127 551 143 536 l 340 536 l 340 88 l 150 88 b 116 55 131 88 116 73 l 116 33 b 150 0 116 15 131 0 l 588 0 b 622 33 606 0 622 15 l 622 55 "},"ë":{"x_min":35.0625,"x_max":589.234375,"ha":617,"o":"m 517 794 b 447 863 517 831 485 863 b 379 795 410 863 379 833 b 446 726 379 756 408 726 b 517 794 485 726 517 756 m 240 794 b 171 863 240 831 208 863 b 103 795 133 863 103 833 b 169 726 103 756 132 726 b 240 794 208 726 240 756 m 567 227 b 353 81 498 125 446 81 b 198 158 289 81 237 106 b 135 384 148 225 142 279 l 562 384 b 515 543 557 459 543 504 b 322 638 471 605 408 638 b 35 301 147 638 35 497 b 298 -13 35 109 135 -13 b 589 218 437 -13 535 66 l 567 227 m 137 429 b 285 588 153 533 207 588 b 421 429 376 588 405 541 l 137 429 "},"𝝼":{"x_min":76.390625,"x_max":655.5625,"ha":683,"o":"m 470 629 l 463 615 b 481 509 479 581 481 545 b 245 180 481 365 384 225 l 243 180 l 243 640 l 76 640 l 76 -19 l 112 -19 b 655 505 398 -19 655 261 b 631 656 655 576 647 629 l 470 629 "},"𝖭":{"x_min":102.78125,"x_max":834.71875,"ha":938,"o":"m 834 -19 l 834 919 l 713 919 l 713 247 l 270 919 l 102 919 l 102 0 l 223 0 l 223 783 l 738 0 l 834 -19 "},"‐":{"x_min":54.171875,"x_max":395.828125,"ha":463,"o":"m 395 268 l 395 359 l 54 359 l 54 268 l 395 268 "},"𝛠":{"x_min":34.71875,"x_max":675,"ha":710,"o":"m 526 -245 b 568 -284 554 -245 568 -261 l 602 -284 b 636 -194 625 -251 636 -222 b 515 -84 636 -123 595 -84 l 506 -84 l 395 -88 b 255 -54 345 -90 298 -77 b 147 62 204 -26 168 13 l 150 63 b 361 -19 201 8 272 -19 b 573 63 444 -19 515 8 b 675 318 641 129 675 213 b 597 550 675 409 648 487 b 366 656 537 622 461 656 b 144 569 279 656 204 627 b 34 273 70 498 34 398 b 236 -175 34 54 101 -94 b 466 -244 306 -218 383 -243 l 526 -245 m 470 302 b 450 94 470 205 463 136 b 362 23 434 47 405 23 b 281 79 325 23 298 41 b 252 302 262 120 252 195 b 272 537 252 415 258 493 b 362 613 287 588 318 613 b 443 556 401 613 427 595 b 470 302 461 513 470 429 "},"𝛟":{"x_min":33.328125,"x_max":873.609375,"ha":907,"o":"m 550 656 l 550 938 l 356 938 l 356 656 l 351 656 b 136 575 265 656 194 629 b 33 316 68 511 33 425 b 112 87 33 226 59 150 b 345 -19 173 16 251 -19 l 356 -19 l 356 -284 l 550 -284 l 550 -19 l 558 -19 b 772 63 643 -19 713 8 b 873 318 838 129 873 213 b 795 548 873 409 847 486 b 565 656 736 620 659 656 l 550 656 m 550 23 l 550 613 l 563 613 b 643 555 601 613 627 594 b 669 301 659 511 669 427 b 650 93 669 202 662 133 b 561 23 634 45 605 23 l 550 23 m 356 23 l 347 23 b 265 79 309 23 281 43 b 237 302 245 120 237 195 b 256 537 237 415 243 493 b 347 613 272 588 302 613 l 356 613 l 356 23 "},"𝙱":{"x_min":40.28125,"x_max":666.671875,"ha":729,"o":"m 73 919 b 40 886 55 919 40 904 l 40 863 b 73 830 40 844 55 830 l 133 830 l 133 88 l 73 88 b 40 55 55 88 40 73 l 40 33 b 73 0 40 15 55 0 l 436 0 b 666 252 563 0 666 112 b 487 480 666 363 590 456 b 638 686 576 511 638 591 b 406 919 638 815 534 919 l 73 919 m 215 522 l 215 830 l 406 830 b 558 686 490 830 558 765 b 377 522 558 594 477 522 l 215 522 m 215 88 l 215 433 l 420 433 b 586 252 512 433 586 351 b 406 88 586 162 505 88 l 215 88 "},"w":{"x_min":29.171875,"x_max":963.890625,"ha":1003,"o":"m 963 625 l 793 625 l 793 604 b 854 562 840 594 854 584 b 830 469 854 540 845 506 l 705 161 l 588 472 b 565 555 572 515 565 531 b 645 604 565 584 580 594 l 645 625 l 363 625 l 363 604 b 459 508 415 598 433 583 l 487 430 l 361 154 l 223 516 b 215 558 218 530 215 544 b 279 604 215 587 230 598 l 279 625 l 29 625 l 29 604 b 102 516 61 601 73 591 l 290 41 b 326 -19 306 -1 318 -19 b 361 34 333 -19 344 -1 l 516 368 l 643 40 b 676 -19 663 -12 666 -19 b 715 48 686 -19 693 -6 l 906 529 b 963 604 929 584 936 594 l 963 625 "},"𝛓":{"x_min":31.9375,"x_max":616.671875,"ha":644,"o":"m 463 -6 l 475 -6 b 550 -80 525 -6 550 -34 b 526 -144 550 -104 541 -126 b 469 -175 509 -165 490 -175 l 320 -111 b 262 -133 298 -111 277 -119 b 236 -197 244 -150 236 -170 b 265 -252 236 -219 245 -237 b 363 -281 290 -272 322 -281 b 520 -227 425 -281 476 -263 b 606 -29 577 -180 606 -115 b 377 162 606 98 530 162 b 219 180 306 162 252 169 b 126 316 156 201 126 247 b 177 461 126 377 143 426 b 337 516 215 498 269 516 l 526 422 b 586 447 548 422 569 430 b 616 520 606 466 616 491 b 566 618 616 561 600 593 b 434 656 531 643 487 656 b 225 583 361 656 290 631 b 83 416 168 540 119 484 b 31 238 48 352 31 293 b 91 44 31 150 51 84 b 272 -20 129 5 190 -20 b 301 -19 281 -20 291 -20 l 463 -6 "},"𝟓":{"x_min":30.5625,"x_max":652.78125,"ha":694,"o":"m 652 938 l 205 938 l 70 459 b 320 429 197 452 261 447 b 518 218 448 388 518 312 b 379 73 518 133 456 73 b 254 131 347 73 302 90 b 115 195 197 180 152 195 b 30 111 66 195 30 159 b 234 -11 30 45 111 -11 b 626 325 463 -11 626 122 b 386 622 626 469 537 579 b 176 650 333 637 290 643 l 206 762 l 590 762 l 652 938 "},"𝗢":{"x_min":48.609375,"x_max":1031.953125,"ha":1081,"o":"m 1031 468 b 540 961 1031 759 823 961 b 48 468 256 961 48 759 b 541 -25 48 175 258 -25 b 1031 468 826 -25 1031 175 m 840 468 b 541 116 840 256 734 116 b 240 468 347 116 240 256 b 540 819 240 677 347 819 b 840 468 733 819 840 677 "},"𝞖":{"x_min":83.328125,"x_max":1087.5,"ha":1039,"o":"m 1087 938 l 906 938 l 811 554 l 401 554 l 497 938 l 316 938 l 83 0 l 263 0 l 366 412 l 776 412 l 673 0 l 854 0 l 1087 938 "},"𝜾":{"x_min":76.390625,"x_max":380.5625,"ha":442,"o":"m 354 144 b 279 80 327 112 306 80 b 250 115 262 80 250 97 b 261 182 250 140 256 161 l 368 642 l 94 594 l 100 562 b 151 567 122 567 138 567 b 179 542 172 567 179 557 b 170 492 179 532 175 510 l 81 108 b 76 65 77 93 76 79 b 169 -12 76 21 98 -12 b 380 128 266 -12 336 48 l 354 144 "},"𝒋":{"x_min":-25,"x_max":575,"ha":599,"o":"m 575 775 b 483 861 575 813 537 861 b 391 775 431 861 391 813 b 483 688 391 733 431 688 b 575 775 537 688 575 733 m 533 641 l 259 593 l 265 561 b 316 565 287 565 304 565 b 344 540 337 565 344 555 b 340 505 344 533 343 518 l 223 -5 b 122 -227 198 -115 166 -227 b 108 -215 115 -227 108 -227 b 137 -152 108 -195 137 -200 b 58 -79 137 -116 108 -79 b -25 -180 1 -79 -25 -131 b 105 -287 -25 -233 15 -287 b 341 -112 225 -287 304 -184 b 391 20 368 -59 383 -16 l 533 641 "},"𝘾":{"x_min":165.28125,"x_max":1106.953125,"ha":1004,"o":"m 1106 830 b 797 961 1043 938 927 961 b 165 327 455 961 165 670 b 552 -25 165 119 297 -25 b 998 175 719 -25 862 45 l 926 269 b 590 116 802 163 709 116 b 362 361 429 116 362 227 b 786 819 362 648 584 819 b 1040 623 913 819 1005 759 l 1055 623 l 1106 830 "},"𝘷":{"x_min":198.609375,"x_max":770.828125,"ha":658,"o":"m 770 629 l 652 629 l 383 213 l 316 629 l 198 629 l 308 -19 l 338 -19 l 770 629 "},"𝔞":{"x_min":70.828125,"x_max":665.28125,"ha":736,"o":"m 665 81 l 648 106 b 598 80 626 87 611 80 b 568 136 570 80 568 123 l 568 441 b 631 511 568 480 595 508 l 631 530 b 400 650 533 558 461 611 l 380 650 b 166 493 320 594 237 551 b 70 265 105 443 70 355 b 197 -25 70 130 111 45 l 216 -25 b 427 83 286 4 366 45 b 508 -25 441 38 473 -6 l 527 -25 l 665 81 m 426 134 b 311 77 408 112 337 77 b 212 276 250 77 212 176 b 305 540 212 376 223 465 l 426 466 l 426 134 "},"𝔬":{"x_min":69.4375,"x_max":627.78125,"ha":699,"o":"m 627 430 b 563 579 627 472 598 540 b 438 650 550 591 487 630 l 419 650 b 136 520 340 593 229 547 l 136 166 b 69 77 136 120 109 91 l 69 58 b 365 -25 184 58 306 15 l 384 -25 b 469 50 420 11 448 34 b 627 262 538 101 627 173 l 627 430 m 277 162 l 277 506 b 350 547 297 526 323 547 b 423 520 369 547 401 540 b 486 268 484 465 486 362 b 441 91 486 180 486 129 l 277 162 "},"Ĵ":{"x_min":-8.328125,"x_max":509.71875,"ha":518,"o":"m 509 998 l 336 1230 l 250 1230 l 77 998 l 125 998 l 293 1141 l 462 998 l 509 998 m 491 919 l 93 919 l 93 893 b 222 763 205 883 222 876 l 222 130 b 170 33 222 61 213 33 b 127 94 143 33 141 59 b 59 152 112 133 91 152 b -8 80 22 152 -8 116 b 131 -19 -8 15 48 -19 b 363 256 279 -19 363 66 l 363 762 b 491 893 363 869 379 884 l 491 919 "},"𝔪":{"x_min":81.9375,"x_max":1188.890625,"ha":1264,"o":"m 1188 116 l 1162 141 l 1145 123 b 1101 105 1129 106 1112 105 b 1070 222 1079 105 1070 123 l 1070 495 b 1131 543 1070 525 1106 538 l 1131 563 b 954 650 1081 568 1002 611 l 934 650 l 697 537 b 580 650 680 588 647 627 l 561 650 l 341 540 b 255 650 334 581 311 626 l 234 650 l 81 506 l 102 477 b 170 519 145 518 161 519 b 204 477 188 519 204 512 l 204 193 b 140 113 204 150 184 113 l 140 94 b 265 -34 206 94 265 30 l 284 -34 b 409 94 284 30 343 94 l 409 113 b 345 193 363 113 345 150 l 345 493 b 484 552 377 509 469 552 b 531 529 501 552 516 543 b 566 411 563 497 566 438 l 566 193 b 502 113 566 150 547 113 l 502 94 b 627 -34 568 94 627 30 l 647 -34 b 772 94 647 30 704 94 l 772 113 b 708 193 726 113 708 150 l 708 493 l 843 555 l 929 490 l 929 172 b 1026 -25 929 55 972 1 l 1048 -25 l 1188 116 "},"ô":{"x_min":40,"x_max":653,"ha":694,"o":"m 557 704 l 383 936 l 297 936 l 124 704 l 172 704 l 340 847 l 509 704 l 557 704 m 653 320 b 352 638 653 512 522 638 b 40 316 165 638 40 509 b 340 -13 40 123 172 -13 b 653 320 527 -13 653 127 m 527 283 b 363 25 527 122 466 25 b 238 94 313 25 269 50 b 165 379 187 169 165 269 b 326 600 165 518 230 600 b 458 530 386 600 425 572 b 527 283 502 473 527 377 "},"𝝲":{"x_min":13.890625,"x_max":662.5,"ha":697,"o":"m 662 640 l 481 640 l 366 288 l 363 288 b 83 656 354 441 231 656 l 13 547 l 13 525 b 219 338 123 525 194 409 b 265 63 250 251 265 158 b 254 -251 265 -37 259 -165 l 402 -284 l 420 -270 l 420 69 l 662 640 "},"𝒢":{"x_min":115.046875,"x_max":1027.5625,"ha":1074,"o":"m 578 906 b 402 954 523 940 465 954 b 115 751 237 954 115 863 b 347 552 115 643 208 576 b 310 405 322 504 310 444 b 501 229 310 295 392 229 b 692 290 566 229 630 248 l 694 288 b 341 22 608 123 512 22 b 169 109 253 22 177 66 l 172 109 b 212 91 180 95 195 91 b 273 162 251 91 273 125 b 202 227 273 197 240 227 b 120 131 153 227 120 186 b 355 -20 120 54 217 -20 b 813 290 587 -20 738 84 b 905 458 841 365 860 413 l 884 480 b 510 270 722 333 610 270 b 419 363 449 270 419 312 b 476 541 419 405 431 476 b 1027 823 752 541 1027 680 b 884 929 1027 891 962 929 b 365 594 730 929 498 805 b 172 751 244 611 172 670 b 412 912 172 837 267 912 b 566 881 460 912 513 905 l 578 906 m 970 819 b 501 583 970 711 738 583 b 891 877 590 741 772 877 b 970 819 934 877 970 858 "},"𝒀":{"x_min":54.171875,"x_max":1006.953125,"ha":763,"o":"m 1006 929 l 631 929 l 626 897 l 665 897 b 736 861 718 897 736 883 b 720 809 736 848 736 829 l 512 544 l 425 783 b 404 858 415 808 404 838 b 463 897 404 881 418 897 l 512 897 l 518 929 l 58 929 l 54 897 b 223 784 166 897 195 855 l 351 454 l 273 116 b 156 31 261 65 244 31 l 105 31 l 100 0 l 602 0 l 608 31 l 554 31 b 473 76 491 31 473 52 b 477 113 473 91 476 101 l 555 441 l 829 791 b 1002 897 876 851 922 897 l 1006 929 "},"Ŀ":{"x_min":40.28125,"x_max":854.171875,"ha":861,"o":"m 633 479 b 556 558 633 520 597 558 b 479 480 513 558 479 523 b 555 404 479 437 512 404 b 633 479 597 404 633 438 m 854 241 l 818 241 b 759 138 795 193 777 162 b 525 54 712 79 637 54 l 427 54 b 302 116 326 54 302 63 l 302 761 b 433 893 302 868 319 886 l 433 919 l 40 919 l 40 893 b 161 758 148 884 161 865 l 161 159 b 40 26 161 54 143 31 l 40 0 l 787 0 l 854 241 "},"𝜻":{"x_min":60.96875,"x_max":725.015625,"ha":656,"o":"m 458 951 b 244 790 306 923 244 858 b 347 708 244 744 298 715 b 60 191 156 534 60 375 b 270 -12 60 72 154 -12 b 372 -2 297 -12 355 -2 b 458 -66 431 -2 458 -20 b 356 -177 458 -134 411 -177 b 270 -119 313 -177 334 -119 b 185 -194 194 -119 185 -165 b 292 -281 185 -237 219 -281 b 461 -191 342 -281 413 -233 b 563 0 525 -134 563 -65 b 347 129 563 87 477 129 b 208 248 262 129 208 169 b 448 683 208 436 323 600 b 725 862 579 683 725 794 b 658 904 725 887 708 904 b 400 759 576 904 458 811 b 356 816 383 763 356 777 b 468 922 356 845 390 893 l 458 951 "},"𝓺":{"x_min":48.609375,"x_max":1156.953125,"ha":1268,"o":"m 1113 310 l 737 -26 l 736 -25 l 1084 624 l 916 624 l 902 599 l 900 599 b 777 641 873 627 830 641 b 384 430 665 641 497 551 b 179 351 341 394 280 351 b 65 373 138 351 108 354 l 48 313 b 181 281 91 290 137 281 b 288 299 229 281 255 288 b 244 133 261 245 244 186 b 406 -19 244 40 315 -19 b 605 44 484 -19 544 2 l 608 44 l 431 -284 l 602 -284 b 851 -27 616 -265 715 -154 b 1156 268 997 108 1100 206 l 1113 310 m 825 523 b 613 137 825 415 725 241 b 444 49 538 67 495 49 b 404 101 420 49 404 72 b 523 370 404 158 434 242 b 783 573 623 512 722 573 b 825 523 805 573 825 558 "},"𝝉":{"x_min":45.828125,"x_max":697.21875,"ha":651,"o":"m 697 625 l 343 625 b 45 375 194 625 80 468 l 77 375 b 272 498 120 458 212 498 l 316 498 l 234 226 b 213 87 222 186 213 134 b 337 -9 213 15 275 -9 b 544 177 434 -9 525 87 l 513 186 b 420 87 479 104 443 87 b 376 158 388 87 376 119 b 387 236 376 183 380 211 l 461 498 l 668 498 l 697 625 "},"𝕦":{"x_min":76.390625,"x_max":679.171875,"ha":756,"o":"m 679 0 l 679 625 l 473 625 l 473 277 b 297 46 473 174 413 46 b 281 48 291 46 287 46 l 281 625 l 76 625 l 76 210 b 291 -12 76 77 156 -12 b 470 82 365 -12 431 20 l 473 82 l 473 0 l 679 0 m 618 62 l 534 62 l 534 564 l 618 564 l 618 62 m 220 57 b 137 218 155 85 137 153 l 137 564 l 220 564 l 220 57 "},"𝑛":{"x_min":41.671875,"x_max":648.609375,"ha":690,"o":"m 648 132 l 630 148 b 544 74 611 124 577 74 b 523 94 529 74 525 85 b 525 107 523 100 523 105 l 606 428 b 622 525 613 456 622 491 b 544 612 622 571 605 612 b 322 450 461 612 377 520 b 244 349 319 446 251 349 l 240 349 l 311 612 l 90 580 l 93 559 b 131 563 102 560 118 563 b 173 519 169 563 173 544 l 41 0 l 148 0 l 194 171 b 288 341 202 200 238 266 b 472 525 331 406 419 525 b 505 473 497 525 505 499 b 495 414 505 453 498 425 l 416 107 b 406 52 412 92 406 70 b 463 -11 406 20 419 -11 b 641 124 536 -11 602 77 l 648 132 "},"𝖘":{"x_min":72.21875,"x_max":701.390625,"ha":774,"o":"m 250 744 b 390 836 280 801 341 836 b 490 733 448 836 490 802 b 422 648 490 676 445 648 b 356 680 408 648 372 652 l 322 680 l 205 576 b 73 387 137 516 73 456 b 248 201 73 280 143 201 b 350 244 295 201 325 222 b 450 308 386 276 418 308 b 508 191 481 308 508 276 b 486 79 508 150 497 108 b 325 163 433 151 380 163 b 72 -20 229 163 150 104 l 100 -43 b 252 20 154 1 202 20 b 406 -33 301 20 365 5 l 441 -33 b 701 273 515 41 701 175 b 651 422 701 316 693 380 b 556 465 629 445 598 465 b 444 394 512 465 465 415 b 356 358 418 370 406 358 b 266 469 309 358 266 400 b 287 579 266 518 277 559 b 440 491 327 515 384 491 b 651 688 563 491 651 586 b 429 893 651 815 543 893 b 216 759 345 893 258 851 l 250 744 "},"𝐯":{"x_min":29.171875,"x_max":673.609375,"ha":694,"o":"m 673 640 l 463 640 l 463 606 b 540 561 523 604 540 594 b 525 498 540 544 536 525 l 425 245 l 315 527 b 302 570 304 555 302 561 b 351 604 302 591 316 600 l 376 606 l 376 640 l 29 640 l 29 606 b 76 587 59 602 68 598 b 168 391 88 570 140 459 l 334 -19 l 370 -19 l 593 530 b 673 606 619 594 630 602 l 673 640 "},"𝚙":{"x_min":23.609375,"x_max":668.0625,"ha":729,"o":"m 222 592 b 188 625 222 610 206 625 l 56 625 b 23 592 38 625 23 610 l 23 569 b 56 536 23 551 38 536 l 140 536 l 140 -217 l 56 -217 b 23 -250 38 -217 23 -231 l 23 -273 b 56 -306 23 -291 38 -306 l 305 -306 b 338 -273 323 -306 338 -291 l 338 -250 b 305 -217 338 -231 323 -217 l 222 -217 l 222 78 b 404 -7 266 25 329 -7 b 668 312 555 -7 668 143 b 425 633 668 479 568 633 b 222 558 350 633 275 607 l 222 592 m 222 431 b 398 544 240 496 311 544 b 587 312 497 544 587 446 b 384 81 587 181 493 81 b 222 235 305 81 238 146 l 222 431 "},"𝗙":{"x_min":111.109375,"x_max":791.671875,"ha":808,"o":"m 791 797 l 773 938 l 111 938 l 111 0 l 291 0 l 291 420 l 587 420 l 587 562 l 291 562 l 291 797 l 791 797 "},"𝛯":{"x_min":72.21875,"x_max":1029.171875,"ha":981,"o":"m 1029 906 l 345 906 l 294 695 l 316 695 b 450 801 337 773 377 801 l 865 801 b 962 741 922 801 962 801 b 958 695 962 729 962 713 l 980 695 l 1029 906 m 845 625 l 823 625 b 691 533 805 561 790 533 l 490 533 b 402 590 438 533 402 541 b 406 625 402 598 405 618 l 384 625 l 312 334 l 334 334 b 444 427 350 379 390 427 l 701 427 b 755 370 731 427 755 405 b 752 334 755 370 755 359 l 773 334 l 845 625 m 873 219 l 851 219 b 706 113 816 115 787 113 l 236 113 b 145 170 184 113 145 122 l 145 200 l 145 219 l 127 219 l 72 0 l 818 0 l 873 219 "},"𝗿":{"x_min":76.390625,"x_max":563.890625,"ha":571,"o":"m 563 494 l 563 630 b 458 656 540 647 501 656 b 245 518 398 656 309 623 l 243 518 l 243 640 l 76 640 l 76 0 l 243 0 l 243 262 b 459 525 275 416 373 525 b 541 494 498 525 523 512 l 563 494 "},"𝞍":{"x_min":34.71875,"x_max":845.828125,"ha":881,"o":"m 523 961 l 356 961 l 356 656 b 34 318 113 656 34 497 b 356 -19 34 138 125 -19 l 356 -284 l 523 -284 l 523 -19 b 845 318 755 -19 845 138 b 523 656 845 495 765 656 l 523 961 m 522 525 b 672 320 605 525 672 466 b 522 112 672 175 616 112 l 522 525 m 358 112 b 208 320 259 112 208 175 b 358 525 208 466 275 525 l 358 112 "},"𝜜":{"x_min":54.171875,"x_max":1005.5625,"ha":1054,"o":"m 1005 31 l 954 31 b 888 84 916 31 894 51 l 758 951 l 690 951 l 209 136 b 59 31 162 55 122 38 l 54 0 l 415 0 l 423 31 l 345 31 b 315 68 327 31 315 41 b 323 98 315 80 320 93 l 434 291 l 655 291 l 676 141 b 679 94 677 133 679 108 b 608 31 679 55 654 31 l 565 31 l 559 0 l 1002 0 l 1005 31 m 647 355 l 472 355 l 615 602 l 647 355 "},"𝐨":{"x_min":34.71875,"x_max":661.109375,"ha":694,"o":"m 661 318 b 352 656 661 515 527 656 b 34 316 169 656 34 519 b 347 -19 34 119 173 -19 b 661 318 526 -19 661 122 m 456 302 b 348 23 456 95 429 23 b 238 302 268 23 238 101 b 348 613 238 540 263 613 b 456 302 430 613 456 540 "},"ß":{"x_min":16.671875,"x_max":650,"ha":694,"o":"m 101 116 b 16 20 101 43 87 26 l 16 0 l 218 0 l 218 762 b 337 911 218 854 263 911 b 463 716 416 911 463 838 b 331 540 463 606 422 550 b 291 519 302 537 291 531 b 336 495 291 504 304 497 b 519 208 458 491 519 395 b 486 52 519 145 504 77 b 430 27 473 34 452 27 b 390 69 404 27 393 38 l 387 100 b 329 155 384 131 359 155 b 266 88 293 155 266 126 b 401 -12 266 29 322 -12 b 650 258 541 -12 650 105 b 563 452 650 337 619 405 b 394 523 519 491 479 506 b 584 737 543 591 584 637 b 348 948 584 866 493 948 b 101 630 180 948 101 845 l 101 116 "},"𝟜":{"x_min":27.78125,"x_max":727.78125,"ha":750,"o":"m 727 222 l 727 252 l 727 283 l 606 283 l 606 938 l 530 938 l 27 279 l 27 222 l 401 222 l 401 0 l 606 0 l 606 222 l 727 222 m 545 61 l 462 61 l 462 747 l 545 861 l 545 61 m 401 283 l 101 283 l 401 669 l 401 283 "},"Ű":{"x_min":19.4375,"x_max":979.171875,"ha":1003,"o":"m 469 998 l 525 998 l 738 1131 b 779 1194 768 1150 779 1169 b 731 1236 779 1220 759 1236 b 672 1204 713 1236 700 1231 l 469 998 m 252 998 l 308 998 l 522 1131 b 562 1194 551 1150 562 1169 b 515 1236 562 1220 543 1236 b 455 1204 497 1236 483 1231 l 252 998 m 979 919 l 656 919 l 656 893 b 787 712 769 886 787 855 l 787 347 b 736 123 787 234 781 179 b 525 41 691 72 613 41 b 347 104 445 41 387 65 b 286 329 291 158 286 220 l 286 762 b 412 893 286 866 301 883 l 412 919 l 19 919 l 19 893 b 144 776 129 884 144 869 l 144 345 b 256 44 144 198 180 101 b 493 -19 313 1 391 -19 b 773 81 620 -19 715 15 b 848 362 836 152 848 227 l 848 716 b 979 893 848 848 862 881 l 979 919 "},"𝛈":{"x_min":16.671875,"x_max":756.953125,"ha":806,"o":"m 756 -284 b 727 -72 737 -241 727 -170 l 727 455 b 684 595 727 513 713 559 b 541 656 651 636 602 656 b 343 536 455 656 390 616 l 341 536 b 205 656 341 616 295 656 b 94 615 165 656 129 643 b 16 506 59 587 33 551 l 48 491 b 116 558 72 536 95 558 b 150 480 138 558 150 533 l 150 0 l 343 0 l 343 483 b 366 516 343 490 351 501 b 465 563 398 548 430 563 b 534 443 512 563 534 523 l 534 -73 b 538 -191 534 -129 536 -169 b 565 -284 543 -226 551 -256 l 756 -284 "},"¶":{"x_min":83.328125,"x_max":738.890625,"ha":822,"o":"m 738 -213 l 738 -183 b 616 -56 633 -175 616 -155 l 616 752 b 738 893 616 855 631 883 l 738 919 l 373 919 b 83 654 169 919 83 834 b 352 379 83 459 177 393 l 352 -40 b 229 -183 352 -156 337 -176 l 229 -213 l 444 -213 l 444 888 l 525 888 l 525 -213 l 738 -213 m 352 409 b 188 656 233 422 188 497 b 352 888 188 812 220 876 l 352 409 "},"𝙂":{"x_min":148.609375,"x_max":1090.28125,"ha":1036,"o":"m 1090 830 b 781 961 1022 936 915 961 b 148 325 431 961 148 663 b 540 -25 148 116 279 -25 b 958 109 754 -25 865 48 l 1055 497 l 700 497 l 700 355 l 855 355 l 811 176 b 580 116 727 136 661 116 b 347 363 412 116 347 230 b 762 819 347 650 569 819 b 1023 623 897 819 987 761 l 1038 623 l 1090 830 "},"𝖖":{"x_min":76.390625,"x_max":725,"ha":797,"o":"m 725 508 l 725 541 b 488 659 641 548 558 600 l 455 659 b 198 483 334 570 301 555 b 76 236 118 426 76 331 b 231 -33 76 129 138 22 l 265 -33 l 451 54 l 451 -304 l 644 -304 l 644 445 b 697 508 644 473 655 508 l 725 508 m 451 109 b 376 76 425 95 395 76 b 269 277 329 76 269 183 b 347 520 269 369 283 450 l 451 451 l 451 109 "},"𝔗":{"x_min":65,"x_max":1002.875,"ha":1064,"o":"m 950 926 b 819 811 911 829 851 811 b 670 864 786 811 726 826 b 370 965 594 915 498 965 b 65 676 187 965 65 828 b 320 454 65 557 176 454 l 320 487 b 165 661 237 490 165 551 b 334 826 165 762 258 826 b 569 736 437 826 504 780 l 570 732 b 487 593 515 675 487 637 b 573 390 487 512 573 455 b 494 304 573 339 538 304 b 444 318 479 304 461 308 l 430 289 b 525 266 459 273 491 266 b 726 429 638 266 726 321 b 582 635 726 521 582 568 b 612 712 582 662 590 696 b 740 672 652 691 701 672 b 979 918 897 672 957 835 l 950 926 m 979 175 b 805 89 929 115 886 89 b 359 222 648 89 541 222 b 108 7 248 222 155 133 l 133 -10 b 298 83 180 68 263 83 b 693 -33 427 83 501 -33 b 1002 153 857 -33 934 48 l 979 175 "},"𝟡":{"x_min":38.890625,"x_max":711.109375,"ha":750,"o":"m 505 375 l 505 165 b 406 97 473 140 441 115 b 111 40 326 52 201 40 l 111 -16 b 555 127 255 -16 447 27 b 711 497 656 220 711 359 b 529 894 711 647 665 812 b 372 938 481 923 427 938 b 38 618 183 938 38 811 b 331 313 38 444 154 313 b 502 375 394 313 458 330 l 505 375 m 566 776 b 650 505 630 702 650 600 b 566 230 650 419 627 294 l 566 776 m 505 445 b 347 375 459 411 408 375 b 244 409 316 375 263 383 l 244 831 b 375 877 272 865 333 877 b 505 827 418 877 477 862 l 505 445 m 183 427 b 100 615 120 475 100 538 b 183 812 100 690 122 765 l 183 427 "},"𝕆":{"x_min":62.5,"x_max":993.0625,"ha":1056,"o":"m 993 461 b 534 938 993 734 815 938 b 62 461 248 938 62 744 b 529 -19 62 193 255 -19 b 993 461 805 -19 993 190 m 820 761 b 931 461 900 679 931 572 b 820 165 931 354 897 241 l 820 761 m 759 109 b 529 41 702 68 600 41 b 295 109 459 41 352 69 l 295 811 b 529 877 348 854 462 877 b 759 811 604 877 700 859 l 759 109 m 234 165 b 123 461 161 243 123 354 b 234 761 123 572 155 679 l 234 165 "},"𝜰":{"x_min":43.0625,"x_max":1088.890625,"ha":890,"o":"m 1088 873 b 979 940 1070 904 1016 940 b 765 808 895 940 815 868 l 547 545 l 454 812 b 252 951 423 900 344 951 b 43 844 156 951 101 918 l 70 815 b 159 852 98 836 123 852 b 283 719 223 852 263 770 l 386 455 l 304 111 b 195 31 287 40 250 31 l 145 31 l 134 0 l 636 0 l 644 31 l 588 31 b 509 79 552 31 509 31 b 515 119 509 93 512 106 l 590 443 l 758 644 b 1000 876 801 695 934 876 b 1061 843 1022 876 1045 856 l 1088 873 "},"­":{"x_min":54.171875,"x_max":395.828125,"ha":463,"o":"m 395 269 l 395 356 l 54 356 l 54 269 l 395 269 "},"𝜕":{"x_min":55.5625,"x_max":654.171875,"ha":654,"o":"m 270 868 b 373 886 305 879 336 886 b 555 634 515 886 555 756 b 545 537 555 601 551 568 b 412 604 516 588 456 604 b 55 209 209 604 55 405 b 244 -15 55 91 108 -15 b 654 566 569 -15 654 361 b 393 927 654 802 568 927 b 256 895 345 927 295 919 l 270 868 m 509 443 b 488 306 509 400 501 352 b 261 26 450 165 368 26 b 168 162 173 26 168 109 b 425 562 168 355 287 562 b 509 443 462 562 509 533 "},":":{"x_min":112.5,"x_max":266.671875,"ha":386,"o":"m 266 559 b 190 637 266 601 231 637 b 112 559 145 637 112 604 b 190 483 112 518 148 483 b 266 559 231 483 266 518 m 266 61 b 190 138 266 102 231 138 b 112 61 145 138 112 105 b 190 -15 112 19 148 -15 b 266 61 231 -15 266 19 "},"𝞂":{"x_min":34.71875,"x_max":766.671875,"ha":722,"o":"m 766 508 l 766 640 l 348 640 b 34 312 226 640 34 554 b 350 -19 34 118 173 -19 b 659 276 562 -19 659 166 b 537 505 659 356 615 444 l 537 508 l 766 508 m 486 291 b 350 112 486 218 447 112 b 208 318 255 112 208 202 b 343 508 208 429 258 508 b 486 291 401 477 486 411 "},"𝙝":{"x_min":76.390625,"x_max":752.78125,"ha":708,"o":"m 386 576 l 476 938 l 309 938 l 76 0 l 243 0 l 344 406 b 504 525 397 494 469 525 b 576 463 544 525 576 511 b 572 429 576 454 575 441 l 465 0 l 631 0 l 743 447 b 752 520 750 475 752 498 b 587 656 752 608 700 656 b 388 576 513 656 456 630 l 386 576 "},"𝕁":{"x_min":55.5625,"x_max":687.5,"ha":778,"o":"m 687 919 l 456 919 l 456 47 b 372 41 429 41 400 41 b 116 227 231 41 141 77 l 55 227 b 354 -19 70 50 186 -19 b 687 222 515 -19 687 29 l 687 919 m 626 209 b 518 50 626 134 587 79 l 518 858 l 626 858 l 626 209 "},"𝑵":{"x_min":58.328125,"x_max":1283.328125,"ha":1207,"o":"m 1283 929 l 866 929 l 861 897 l 912 897 b 991 838 976 897 991 872 b 988 811 991 830 991 820 l 877 325 l 569 929 l 247 929 l 243 897 l 295 897 b 394 825 329 897 370 884 l 231 116 b 113 31 219 62 198 31 l 63 31 l 58 0 l 476 0 l 481 31 l 427 31 b 348 77 365 31 350 45 l 348 88 b 351 113 348 98 350 105 l 479 681 l 844 0 l 923 0 l 1105 808 b 1226 897 1118 866 1141 897 l 1279 897 l 1283 929 "},"𝑥":{"x_min":41.671875,"x_max":708.328125,"ha":764,"o":"m 423 400 l 395 476 b 291 613 379 522 352 579 l 108 567 l 112 541 b 165 550 126 547 147 550 b 301 426 241 550 277 493 l 347 298 l 256 158 b 159 76 212 90 176 76 b 94 104 125 76 130 104 b 41 53 59 104 41 75 b 113 -12 41 22 63 -12 b 276 115 191 -12 231 47 l 363 251 l 419 94 b 520 -12 437 44 463 -12 b 680 141 601 -12 663 121 l 661 155 b 576 76 631 96 598 76 b 440 350 513 76 481 264 l 516 468 b 593 521 536 498 551 521 b 654 508 616 521 623 508 b 708 567 690 508 708 540 b 640 613 708 596 684 613 b 486 496 570 613 522 551 l 423 400 "},"𝟇":{"x_min":66.671875,"x_max":908.328125,"ha":942,"o":"m 730 961 l 563 961 l 487 656 b 66 206 205 656 66 422 b 319 -19 66 79 137 -19 l 252 -284 l 419 -284 l 486 -19 b 908 433 759 -19 908 215 b 654 656 908 559 841 656 l 730 961 m 620 525 b 730 405 686 525 730 490 b 719 320 730 381 727 352 b 518 112 683 175 612 112 l 620 525 m 354 112 b 241 225 280 112 241 147 b 255 320 241 251 245 283 b 456 525 291 466 373 525 l 354 112 "},"𝗖":{"x_min":68.0625,"x_max":955.5625,"ha":1004,"o":"m 859 269 b 562 116 762 163 681 116 b 259 476 355 116 259 298 b 583 819 259 694 402 819 b 886 623 711 819 816 759 l 901 623 l 901 830 b 558 961 809 938 688 961 b 68 473 262 961 68 750 b 559 -25 68 188 248 -25 b 955 175 726 -25 852 45 l 859 269 "},"𝒫":{"x_min":52.78125,"x_max":1230.5625,"ha":1264,"o":"m 1188 929 b 1072 872 1144 913 1106 895 b 765 954 986 925 875 954 b 219 572 434 954 219 761 b 416 392 219 463 301 392 b 731 779 618 392 718 592 l 704 779 b 419 433 663 565 575 433 b 276 567 340 433 276 490 b 763 913 276 743 479 913 b 1030 846 855 913 955 893 b 687 377 894 747 811 597 b 268 22 531 99 441 22 b 101 132 169 22 101 85 l 104 132 b 145 115 112 118 134 115 b 205 182 184 115 205 147 b 134 249 205 222 173 249 b 52 150 88 249 52 208 b 293 -20 52 58 145 -20 b 847 420 511 -20 687 99 b 1069 817 933 592 976 725 b 1145 646 1115 777 1145 720 b 1015 439 1145 531 1093 439 b 968 479 986 439 968 456 b 1018 554 968 497 972 528 l 1004 579 b 923 470 955 553 923 510 b 1023 378 923 422 955 378 b 1230 621 1141 378 1230 499 b 1106 850 1230 717 1180 795 b 1198 903 1133 870 1162 888 l 1188 929 "},"𝑞":{"x_min":55.5625,"x_max":643.0625,"ha":636,"o":"m 643 594 l 530 594 l 520 540 l 516 540 b 416 612 513 576 483 612 b 290 565 377 612 333 594 b 55 143 166 484 55 313 b 179 -16 55 63 90 -16 b 405 126 229 -16 312 -2 l 413 126 l 352 -129 b 223 -237 340 -180 318 -237 l 197 -237 l 193 -254 l 540 -254 l 544 -237 l 525 -237 b 456 -170 483 -237 456 -212 b 461 -130 456 -158 456 -144 l 643 594 m 497 469 b 326 91 497 312 413 154 b 245 68 301 73 269 68 b 173 155 186 68 173 118 b 344 534 173 277 255 462 b 429 572 372 556 400 572 b 497 469 479 572 497 529 "},"𝖳":{"x_min":20.828125,"x_max":823.609375,"ha":844,"o":"m 823 816 l 809 919 l 34 919 l 20 816 l 361 816 l 361 0 l 483 0 l 483 816 l 823 816 "},"Ģ":{"x_min":44.4375,"x_max":984.71875,"ha":1003,"o":"m 984 491 l 629 491 l 629 466 b 752 338 738 458 752 447 l 752 120 b 568 36 752 75 675 36 b 202 450 350 36 202 191 b 309 787 202 587 236 713 b 541 883 369 848 445 883 b 744 806 619 883 691 856 b 843 645 786 766 808 730 l 875 645 l 863 938 l 833 938 b 770 893 825 912 800 893 b 709 906 756 893 736 897 b 525 938 647 927 600 938 b 193 819 390 938 276 895 b 44 454 100 734 44 606 b 159 129 44 318 81 211 b 534 -19 251 33 393 -19 b 887 77 677 -19 811 15 l 887 355 b 984 466 887 445 904 459 l 984 491 m 497 -388 b 652 -172 593 -343 652 -255 b 541 -51 652 -100 604 -51 b 458 -130 491 -51 458 -83 b 538 -201 458 -177 487 -201 b 579 -195 554 -201 568 -195 b 598 -213 590 -195 598 -204 b 483 -362 598 -259 559 -311 l 497 -388 "},"m":{"x_min":22.21875,"x_max":1076.390625,"ha":1081,"o":"m 1076 0 l 1076 20 l 1040 23 b 980 107 998 26 980 44 l 980 389 b 819 639 980 552 931 639 b 593 522 738 639 668 602 b 445 639 568 601 520 639 b 233 532 383 639 325 626 l 230 532 l 230 634 l 219 639 b 26 576 148 612 102 597 l 26 552 b 70 558 44 557 55 558 b 119 466 106 558 119 534 l 119 122 b 22 20 119 41 100 22 l 22 0 l 330 0 l 330 20 b 236 97 256 23 236 37 l 236 483 b 254 507 236 486 244 495 b 401 566 281 540 350 566 b 491 412 461 566 491 508 l 491 119 b 397 20 491 34 476 26 l 397 0 l 708 0 l 708 20 b 608 132 629 22 608 41 l 608 482 b 756 566 650 541 691 566 b 863 411 836 566 863 520 l 863 125 b 773 20 863 44 851 29 l 773 0 l 1076 0 "},"𝖸":{"x_min":29.171875,"x_max":845.828125,"ha":875,"o":"m 845 919 l 713 919 l 437 502 l 161 919 l 29 919 l 376 400 l 376 0 l 498 0 l 498 400 l 845 919 "},"𝖂":{"x_min":69.4375,"x_max":1480.5625,"ha":1557,"o":"m 1479 727 b 1147 973 1304 742 1451 973 b 987 915 1090 973 1033 953 b 790 973 951 944 863 973 b 580 894 697 973 636 941 b 359 970 530 945 448 970 b 81 758 206 970 81 892 b 184 486 81 630 184 626 b 106 373 184 426 141 386 l 118 340 b 381 572 300 368 381 455 b 279 849 381 695 279 730 b 345 924 279 899 315 924 b 451 618 430 924 451 726 b 338 289 451 348 373 308 b 69 63 206 289 113 176 l 98 43 b 247 101 143 88 200 101 b 640 -25 395 101 391 -25 b 883 21 738 -25 833 -11 b 1116 -25 941 -14 1023 -25 b 1318 39 1197 -25 1266 1 b 1472 310 1406 101 1472 178 b 1387 588 1472 437 1387 509 b 1480 699 1387 630 1412 663 l 1479 727 m 1356 672 b 1186 475 1225 622 1186 544 b 1255 172 1186 329 1255 293 b 1166 28 1255 86 1216 28 b 1025 153 1122 28 1062 70 b 1090 328 1063 201 1090 242 b 1004 545 1090 400 1047 490 b 944 695 973 587 944 627 b 1081 903 944 776 997 903 b 1356 675 1200 903 1144 675 l 1356 672 m 413 275 b 680 651 569 360 680 480 b 623 851 680 687 668 776 b 741 903 661 898 712 903 b 883 831 795 903 855 878 b 762 582 813 747 762 666 b 831 400 762 523 784 462 b 873 267 854 371 873 323 b 748 33 873 162 822 33 b 413 272 655 33 580 215 l 413 275 "},"𝝙":{"x_min":55.5625,"x_max":944.453125,"ha":1000,"o":"m 944 0 l 519 958 l 480 958 l 55 0 l 944 0 m 705 141 l 294 141 l 500 650 l 705 141 "},"𝞚":{"x_min":27.78125,"x_max":897.21875,"ha":953,"o":"m 897 0 l 720 958 l 681 958 l 27 0 l 208 0 l 623 650 l 716 0 l 897 0 "},"𝓘":{"x_min":65.28125,"x_max":1356.953125,"ha":1385,"o":"m 195 91 b 276 185 251 101 276 145 b 181 278 276 233 243 278 b 65 149 116 278 65 219 b 326 -29 65 45 165 -29 b 781 151 512 -29 652 33 b 951 410 850 213 902 309 b 1222 624 1104 441 1186 555 l 1162 660 b 995 501 1108 573 1048 526 l 994 503 b 1183 838 1055 641 1101 780 b 1227 834 1198 835 1213 834 b 1356 921 1304 834 1356 862 b 1284 970 1356 948 1327 970 b 1172 941 1266 970 1219 963 b 1004 953 1136 946 1070 953 b 675 838 888 953 762 921 b 591 648 629 794 591 723 b 643 498 591 585 612 535 b 752 420 670 462 705 437 b 727 367 743 402 736 384 b 316 46 606 102 473 46 b 195 90 281 46 215 65 l 195 91 m 1068 838 b 793 496 933 758 858 624 b 718 612 743 520 718 563 b 1068 842 718 731 809 842 l 1068 838 "},"𝛻":{"x_min":58.328125,"x_max":833.328125,"ha":871,"o":"m 833 906 l 58 906 l 241 -20 l 277 -20 l 833 906 m 693 776 l 338 176 l 218 776 l 693 776 "},"á":{"x_min":50.40625,"x_max":612.90625,"ha":617,"o":"m 164 704 l 219 704 l 433 838 b 475 897 462 856 475 875 b 426 941 475 925 457 941 b 368 909 405 941 393 934 l 164 704 m 612 91 b 553 65 589 72 575 65 b 510 156 528 65 510 93 l 510 422 b 471 576 510 506 504 536 b 307 638 437 616 385 638 b 147 597 244 638 186 622 b 76 486 99 566 76 522 b 136 422 76 448 107 422 b 200 479 172 422 200 452 b 192 537 200 508 192 512 b 289 605 192 575 233 605 b 397 480 351 605 397 566 l 397 405 b 147 293 240 347 189 320 b 50 130 93 256 50 202 b 196 -13 50 38 110 -13 b 397 87 255 -13 324 4 l 399 87 b 487 -13 405 13 436 -13 b 612 52 535 -13 571 0 l 612 91 m 397 176 b 349 88 397 136 389 116 b 268 66 325 73 296 66 b 172 173 214 66 172 100 b 219 280 172 216 186 250 b 397 372 254 312 311 341 l 397 176 "},"𝜓":{"x_min":41.671875,"x_max":987.5,"ha":918,"o":"m 987 609 l 951 609 b 668 286 738 609 706 452 b 431 26 633 134 533 45 l 570 594 l 458 594 l 319 26 b 204 201 248 36 204 97 b 247 458 204 281 247 380 b 125 612 247 537 204 612 b 48 609 100 612 75 612 l 41 587 b 126 468 106 580 126 523 b 81 213 126 375 81 291 b 294 -15 81 41 186 -15 l 308 -15 l 248 -254 l 361 -254 l 419 -15 b 791 291 591 -15 751 113 b 987 587 819 415 854 569 l 987 609 "},"𝖅":{"x_min":61.109375,"x_max":976.390625,"ha":1049,"o":"m 716 388 b 943 672 863 441 943 550 b 852 890 943 766 909 838 b 594 973 790 945 700 973 b 202 711 379 973 254 843 l 236 697 b 530 890 313 820 415 890 b 713 666 637 890 713 813 b 545 441 713 516 636 441 b 354 531 505 441 419 448 l 323 511 b 458 390 345 466 384 419 l 458 387 b 300 251 375 359 336 309 l 329 231 b 541 334 402 322 458 334 b 737 56 638 334 737 227 b 609 -225 737 -73 718 -225 b 486 -62 540 -225 500 -144 b 305 102 473 9 434 102 b 61 -123 156 102 73 -72 l 90 -143 b 206 -84 136 -102 173 -84 b 577 -270 334 -84 305 -270 b 976 76 825 -270 976 -109 b 716 386 976 238 881 351 l 716 388 "},"K":{"x_min":45.828125,"x_max":1004.171875,"ha":1003,"o":"m 1004 0 l 1004 26 b 787 177 940 26 902 51 l 462 533 l 720 780 b 937 893 816 872 843 886 l 937 919 l 577 919 l 577 893 l 612 891 b 669 848 658 890 669 876 b 561 711 669 813 627 773 l 313 483 l 313 761 b 438 893 313 868 323 884 l 438 919 l 47 919 l 47 893 b 172 762 156 886 172 865 l 172 173 b 45 26 172 52 155 31 l 45 0 l 437 0 l 437 26 b 313 154 336 34 313 47 l 313 411 l 350 440 l 488 297 b 679 61 598 183 679 98 b 620 27 679 41 661 29 l 583 26 l 583 0 l 1004 0 "},"7":{"x_min":27.78125,"x_max":623.609375,"ha":694,"o":"m 623 897 l 623 919 l 111 919 l 27 715 l 52 702 b 215 816 111 797 134 816 l 513 816 l 238 -11 l 329 -11 l 623 897 "},"𝝯":{"x_min":62.5,"x_max":951.390625,"ha":1021,"o":"m 951 922 l 62 922 l 487 -41 l 526 -41 l 951 922 m 711 777 l 506 276 l 302 777 l 711 777 "},"¨":{"x_min":25,"x_max":438.890625,"ha":463,"o":"m 438 794 b 369 863 438 831 406 863 b 301 795 331 863 301 833 b 368 726 301 756 330 726 b 438 794 406 726 438 756 m 162 794 b 93 863 162 831 130 863 b 25 795 55 863 25 833 b 91 726 25 756 54 726 b 162 794 130 726 162 756 "},"Y":{"x_min":30.5625,"x_max":976.390625,"ha":1003,"o":"m 976 919 l 673 919 l 673 893 b 768 850 745 891 766 880 b 748 791 768 834 762 812 l 547 483 l 344 790 b 319 855 329 812 319 837 b 384 891 319 877 340 890 l 418 893 l 418 919 l 30 919 l 30 893 b 255 675 97 890 127 862 l 437 408 l 437 170 b 297 26 437 47 420 34 l 297 0 l 722 0 l 722 26 b 579 154 605 31 579 45 l 579 420 l 784 737 b 976 893 862 856 894 886 l 976 919 "},"E":{"x_min":16.671875,"x_max":829.171875,"ha":849,"o":"m 829 234 l 790 234 b 469 51 727 87 668 51 l 419 51 b 279 116 316 51 279 58 l 279 454 l 488 454 b 645 319 608 454 629 436 l 677 319 l 677 644 l 645 644 b 488 511 629 534 608 511 l 279 511 l 279 816 b 327 866 279 861 288 866 l 509 866 b 723 720 670 866 702 845 l 758 720 l 752 919 l 16 919 l 16 893 b 137 763 120 887 137 866 l 137 158 b 16 26 137 51 123 33 l 16 0 l 765 0 l 829 234 "},"Ô":{"x_min":47.21875,"x_max":955.5625,"ha":1003,"o":"m 708 1051 l 534 1283 l 448 1283 l 276 1051 l 323 1051 l 491 1194 l 661 1051 l 708 1051 m 955 459 b 501 938 955 734 773 938 b 47 463 230 938 47 745 b 501 -19 47 175 231 -19 b 955 459 768 -19 955 173 m 797 468 b 681 97 797 301 758 170 b 502 30 633 51 572 30 b 330 93 438 30 377 50 b 205 461 245 170 205 295 b 301 795 205 593 241 727 b 500 888 355 858 425 888 b 670 823 565 888 620 865 b 797 468 750 756 797 626 "},"𝜌":{"x_min":41.671875,"x_max":655.5625,"ha":697,"o":"m 41 -254 l 156 -254 l 218 7 b 302 -17 244 -11 269 -17 b 655 396 502 -17 655 217 b 525 612 655 537 609 612 b 388 571 475 612 433 593 b 158 212 295 525 212 430 l 41 -254 m 294 330 b 468 534 325 460 394 534 b 538 418 500 534 538 506 b 294 23 538 263 434 23 b 230 52 277 23 250 30 l 294 330 "},"Ï":{"x_min":23.609375,"x_max":437.5,"ha":463,"o":"m 437 1141 b 368 1211 437 1179 405 1211 b 300 1143 330 1211 300 1180 b 366 1073 300 1104 329 1073 b 437 1141 405 1073 437 1104 m 161 1141 b 91 1211 161 1179 129 1211 b 23 1143 54 1211 23 1180 b 90 1073 23 1104 52 1073 b 161 1141 129 1073 161 1104 m 436 0 l 436 26 b 300 155 322 30 300 51 l 300 765 b 436 893 300 870 319 887 l 436 919 l 23 919 l 23 893 b 158 765 141 886 158 875 l 158 155 b 23 26 158 47 140 30 l 23 0 l 436 0 "},"𝟖":{"x_min":38.890625,"x_max":655.5625,"ha":694,"o":"m 655 259 b 447 559 655 376 604 452 b 636 754 579 600 636 665 b 365 955 636 865 538 955 b 54 712 173 955 54 859 b 245 451 54 606 108 533 b 38 218 115 419 38 341 b 333 -18 38 69 156 -18 b 655 259 534 -18 655 93 m 470 745 b 413 586 470 679 459 647 b 233 800 297 645 233 722 b 348 915 233 865 283 915 b 470 745 426 915 470 840 m 462 176 b 336 26 462 77 411 26 b 206 223 251 26 206 100 b 277 425 206 283 220 341 b 462 176 429 323 462 279 "},"𝜅":{"x_min":69.4375,"x_max":762.5,"ha":742,"o":"m 268 348 l 337 609 l 113 571 l 116 551 b 155 555 131 553 144 555 b 200 527 187 555 200 542 l 200 514 l 69 0 l 177 0 l 256 303 l 381 91 b 400 45 390 80 400 55 b 319 21 400 21 333 21 l 318 0 l 644 0 l 645 21 b 505 94 561 31 538 38 l 350 353 l 548 510 b 620 539 562 521 591 539 b 704 502 666 539 662 502 b 762 555 745 502 762 527 b 697 612 762 585 744 612 b 522 537 644 612 606 599 l 268 348 "},"𝙦":{"x_min":95.828125,"x_max":797.21875,"ha":711,"o":"m 797 656 l 773 656 l 634 602 b 501 656 609 633 556 656 b 95 197 293 656 95 440 b 297 -18 95 71 165 -18 b 473 37 362 -18 413 -9 l 476 36 l 395 -284 l 419 -284 l 576 -232 l 797 656 m 522 219 b 365 112 473 147 422 112 b 273 228 305 112 273 155 b 470 525 273 412 393 525 b 576 439 512 525 551 497 l 522 219 "},"𝘮":{"x_min":90.28125,"x_max":1076.390625,"ha":1050,"o":"m 351 637 l 340 645 l 241 611 l 90 0 l 197 0 l 301 419 b 498 544 350 500 459 544 b 580 464 551 544 580 519 b 570 402 580 446 576 427 l 472 0 l 579 0 l 683 419 b 877 544 730 499 837 544 b 962 464 931 544 962 520 b 954 406 962 448 959 428 l 852 0 l 959 0 l 1068 437 b 1076 500 1073 460 1076 481 b 925 643 1076 597 1011 643 b 705 552 856 643 773 612 b 545 643 680 612 619 643 b 331 557 473 643 391 615 l 351 637 "},"𝗍":{"x_min":1.390625,"x_max":398.609375,"ha":404,"o":"m 398 120 l 381 120 b 293 84 348 88 320 84 b 222 190 250 84 222 104 l 222 530 l 366 530 l 366 629 l 222 629 l 222 805 l 197 805 l 112 718 l 112 629 l 63 629 l 1 554 l 1 530 l 112 530 l 112 144 b 261 -13 112 48 165 -13 b 383 16 306 -13 348 -9 l 398 120 "},"𝓲":{"x_min":55.234375,"x_max":741.34375,"ha":775,"o":"m 741 878 b 651 969 741 928 701 969 b 564 884 606 969 564 928 b 652 792 564 831 602 792 b 741 878 702 792 741 830 m 624 284 b 363 49 484 114 409 49 b 334 89 345 49 334 69 b 360 185 334 123 349 164 l 588 624 l 424 624 b 185 512 395 589 321 512 b 71 533 145 512 114 514 l 55 473 b 188 442 98 451 144 442 b 348 483 262 442 302 458 l 280 356 b 185 108 224 252 185 187 b 328 -19 185 26 244 -19 b 674 245 456 -19 537 63 l 624 284 "},"𝒮":{"x_min":93.0625,"x_max":973.609375,"ha":1032,"o":"m 551 198 b 325 415 533 350 429 415 b 93 197 211 415 93 336 b 366 -20 93 40 231 -20 b 759 283 580 -20 759 95 b 534 681 759 466 534 529 b 777 894 534 808 670 894 b 927 781 851 894 927 866 b 776 633 927 694 861 641 l 776 604 b 973 783 870 604 973 681 b 779 944 973 900 870 944 b 427 655 630 944 427 854 b 645 265 427 472 645 412 b 377 20 645 104 506 20 b 179 190 266 20 179 93 b 334 355 179 294 268 355 b 523 193 409 355 480 338 l 551 198 "},"𝖍":{"x_min":62.5,"x_max":716.671875,"ha":800,"o":"m 716 465 b 580 659 716 565 676 643 l 547 659 l 343 580 l 343 737 b 540 920 343 851 406 920 l 540 955 b 454 963 484 963 470 963 b 226 862 348 963 268 918 b 116 965 201 891 165 926 l 88 940 b 150 713 122 900 150 812 l 150 205 b 62 106 150 120 123 113 l 62 72 b 329 -33 181 52 254 19 l 362 -33 b 494 179 383 12 438 100 l 463 198 l 416 147 l 343 188 l 343 525 l 450 561 b 523 422 498 529 523 500 l 523 -31 b 430 -277 523 -104 484 -209 l 455 -304 b 716 70 538 -252 716 -94 l 716 465 "},"𝗳":{"x_min":19.4375,"x_max":519.4375,"ha":472,"o":"m 519 886 b 334 959 463 941 427 959 b 100 698 208 959 100 876 l 100 640 l 19 640 l 19 508 l 100 508 l 100 0 l 266 0 l 266 508 l 391 508 l 391 640 l 266 640 l 266 711 b 348 827 266 781 290 827 b 465 759 388 827 430 818 l 488 761 l 519 886 "},"𝜄":{"x_min":69.078125,"x_max":314.90625,"ha":371,"o":"m 314 612 l 95 576 l 99 554 b 138 559 109 556 126 559 b 181 529 170 559 181 552 b 178 512 181 525 180 515 b 69 48 69 86 69 65 b 124 -15 69 11 85 -15 b 310 130 192 -15 262 68 l 292 144 b 203 72 242 90 234 72 b 185 87 194 72 185 77 b 187 106 185 93 185 98 l 314 612 "},"b":{"x_min":4.171875,"x_max":650,"ha":694,"o":"m 212 945 l 205 948 b 45 900 147 927 111 919 l 4 887 l 4 863 b 27 866 11 865 18 866 b 95 786 84 866 95 855 l 95 77 b 325 -13 95 30 212 -13 b 650 333 508 -13 650 127 b 400 638 650 505 548 638 b 212 522 315 638 241 593 l 212 945 m 212 441 b 350 551 212 500 276 551 b 473 486 400 551 444 527 b 527 273 508 437 527 356 b 476 90 527 193 509 131 b 347 30 445 51 401 30 b 212 102 275 30 212 58 l 212 441 "},"𝙶":{"x_min":51.390625,"x_max":687.5,"ha":729,"o":"m 687 391 b 654 424 687 410 672 424 l 458 424 b 425 391 440 424 425 410 l 425 369 b 458 335 425 350 440 335 l 538 335 b 373 73 529 185 475 73 b 131 457 252 73 131 231 b 377 844 131 684 254 844 b 541 610 469 844 530 742 b 575 580 543 594 556 580 l 588 580 b 622 613 606 580 622 595 l 622 899 b 588 932 622 917 606 932 l 584 932 b 552 909 569 932 556 923 l 533 849 b 361 932 491 899 434 932 b 51 457 177 932 51 705 b 361 -15 51 212 177 -15 b 541 80 441 -15 500 23 l 541 32 b 575 0 541 14 556 0 l 588 0 b 622 32 606 0 622 14 l 622 335 l 654 335 b 687 369 672 335 687 350 l 687 391 "},"𝑇":{"x_min":34.71875,"x_max":930.5625,"ha":764,"o":"m 930 906 l 98 906 l 34 658 l 56 658 b 294 855 81 770 179 855 l 420 855 l 236 108 b 88 22 225 61 197 22 l 63 22 l 58 0 l 515 0 l 520 22 l 491 22 b 386 73 408 22 386 44 b 393 108 386 86 390 95 l 577 855 l 713 855 b 851 756 770 855 851 848 b 844 658 851 719 847 681 l 866 658 l 930 906 "},"𝕴":{"x_min":75,"x_max":1020.828125,"ha":1097,"o":"m 986 963 b 822 876 958 898 883 876 b 426 973 676 876 647 973 b 118 700 234 973 118 844 b 359 487 118 570 237 487 b 486 525 406 487 451 497 l 469 555 b 400 541 440 543 427 541 b 281 656 330 541 281 593 b 433 786 281 734 345 786 b 775 700 576 786 609 700 b 1020 952 959 700 1000 868 l 986 963 m 1001 538 b 831 645 979 611 908 645 b 608 465 725 645 608 579 b 729 138 608 327 729 284 b 626 11 729 73 690 11 b 518 141 577 11 543 63 b 308 338 488 231 456 338 b 75 112 169 338 98 181 l 102 93 b 220 151 148 133 186 151 b 615 -34 344 151 322 -34 b 956 213 805 -34 956 56 b 829 494 956 345 829 386 b 898 570 829 547 861 570 b 969 522 930 570 952 552 l 1001 538 "},"𝑼":{"x_min":100,"x_max":1125,"ha":1018,"o":"m 1125 929 l 709 929 l 704 897 l 755 897 b 834 850 816 897 833 883 b 831 816 834 838 834 823 l 722 323 b 486 63 687 170 619 63 b 309 216 372 63 309 138 b 319 309 309 241 313 286 l 434 813 b 550 897 447 870 459 897 l 604 897 l 609 929 l 105 929 l 100 897 l 151 897 b 234 834 220 897 234 862 b 231 813 234 826 233 819 l 134 387 b 113 255 123 337 113 281 b 447 -13 113 125 209 -13 b 793 187 661 -13 751 97 b 836 315 816 238 827 280 l 947 813 b 1066 897 959 872 981 897 l 1119 897 l 1125 929 "},"𝑮":{"x_min":76.390625,"x_max":1066.671875,"ha":1067,"o":"m 1066 475 l 587 475 l 580 443 l 629 443 b 705 395 691 443 704 427 b 700 362 705 384 704 375 l 620 73 b 512 45 593 55 561 45 b 295 336 336 45 295 220 b 716 888 295 594 455 888 b 947 695 851 888 947 801 b 938 640 947 677 944 659 l 970 640 l 1044 951 l 1012 951 b 933 905 1004 916 947 905 b 708 951 850 905 826 951 b 244 779 520 951 358 890 b 76 386 133 672 76 526 b 495 -16 76 175 208 -16 b 820 55 583 -16 697 -4 l 902 358 b 1026 443 918 416 943 443 l 1059 443 l 1066 475 "},"𝞱":{"x_min":90.28125,"x_max":768.0625,"ha":778,"o":"m 768 654 b 550 961 768 822 701 961 b 90 288 283 961 90 554 b 305 -19 90 120 155 -19 b 768 654 570 -19 768 393 m 302 538 b 516 829 338 684 423 829 b 602 668 575 829 602 758 b 586 538 602 627 597 583 l 302 538 m 554 406 b 338 112 513 247 423 112 b 251 266 281 112 251 175 b 270 406 251 308 258 355 l 554 406 "},"𝑔":{"x_min":26.703125,"x_max":683.890625,"ha":683,"o":"m 683 573 l 508 573 b 385 612 487 594 444 612 b 143 393 238 612 143 502 b 274 241 143 327 180 262 l 274 236 b 155 115 207 236 155 168 b 189 50 155 91 165 65 b 26 -100 103 22 26 -19 b 282 -259 26 -180 96 -259 b 582 -50 490 -259 582 -148 b 257 155 582 123 257 68 b 380 236 257 190 298 225 b 576 441 503 251 576 337 b 553 511 576 472 571 490 l 665 511 l 683 573 m 466 484 b 332 265 466 406 431 265 b 254 377 271 265 254 313 b 391 570 254 472 316 570 b 466 484 452 570 466 536 m 484 -95 b 307 -220 484 -156 434 -220 b 114 -86 175 -220 114 -151 b 180 13 114 -48 144 -12 b 217 36 192 22 205 29 b 484 -95 300 5 484 12 "},"𝞡":{"x_min":125,"x_max":1141.671875,"ha":1176,"o":"m 1141 602 b 756 959 1141 819 993 959 b 125 331 441 959 125 693 b 512 -26 125 113 275 -26 b 1141 602 830 -26 1141 238 m 356 552 b 720 818 423 712 563 818 b 950 590 873 818 950 730 b 948 552 950 577 950 566 l 356 552 m 919 411 b 547 115 859 241 719 115 b 316 343 394 115 316 202 b 320 411 316 366 318 388 l 919 411 "},"𝓆":{"x_min":41.6875,"x_max":1031.953125,"ha":1083,"o":"m 1006 280 b 555 -143 925 197 633 -56 l 551 -140 l 941 588 l 847 588 l 808 522 l 805 522 b 683 612 797 583 747 612 b 313 391 572 612 418 518 b 134 281 269 337 212 281 b 55 300 108 281 81 288 l 41 263 b 138 240 72 247 105 240 b 236 268 175 240 206 248 b 204 130 215 222 204 176 b 320 -15 204 43 250 -15 b 608 141 426 -15 511 36 l 611 140 l 376 -290 l 484 -290 b 727 -34 495 -273 581 -168 b 1031 255 870 95 975 195 l 1006 280 m 763 505 b 341 26 763 359 522 26 b 284 83 311 26 284 47 b 404 343 284 133 318 218 b 688 563 509 495 611 563 b 763 505 729 563 763 551 "},"𝓯":{"x_min":34.71875,"x_max":1040.28125,"ha":1067,"o":"m 34 -284 l 206 -284 l 423 133 b 527 120 452 125 487 120 b 773 215 609 120 688 144 l 736 265 b 545 190 663 201 595 190 b 461 207 512 190 487 194 l 623 498 b 1040 869 770 554 1040 688 b 891 970 1040 929 987 970 b 461 518 725 970 616 822 b 279 307 351 468 279 386 b 301 225 279 279 284 252 l 34 -284 m 670 600 b 879 901 697 655 812 901 b 915 859 904 901 915 893 b 673 597 915 752 786 651 l 670 600 "},"Ŋ":{"x_min":22.21875,"x_max":934.71875,"ha":986,"o":"m 263 919 l 22 919 l 22 895 l 41 895 b 127 759 109 895 127 843 l 127 127 b 48 22 127 68 120 22 l 48 0 l 358 0 l 358 22 l 338 22 b 269 154 287 22 269 93 l 269 613 b 511 877 305 790 408 877 b 783 431 684 877 783 698 b 606 26 783 183 708 26 b 576 59 586 26 576 41 b 587 119 576 70 587 104 b 498 209 587 163 558 209 b 411 104 441 209 411 152 b 561 -25 411 26 473 -25 b 934 470 815 -25 934 258 b 533 941 934 708 805 941 b 263 752 427 941 333 897 l 263 919 "},"𝘨":{"x_min":-9.84375,"x_max":797.984375,"ha":689,"o":"m 797 605 l 703 605 b 495 643 617 605 577 643 b 181 355 329 643 181 503 b 221 247 181 310 197 275 b 97 76 136 173 97 132 b 129 14 97 54 105 32 b -9 -177 42 -27 -9 -101 b 193 -299 -9 -260 73 -299 b 620 -42 373 -299 620 -232 b 276 89 620 79 477 82 b 221 126 234 90 221 108 b 295 203 221 153 247 178 b 377 192 324 194 348 192 b 672 471 521 192 672 311 b 667 512 672 485 670 498 l 775 512 l 797 605 m 560 457 b 404 290 560 373 496 290 b 294 382 334 290 294 326 b 462 544 294 460 369 544 b 560 457 526 544 560 514 m 273 -20 b 503 -71 347 -20 503 -20 b 229 -201 503 -169 358 -201 b 105 -135 155 -201 105 -180 b 245 -20 105 -85 162 -44 l 273 -20 "},"Ũ":{"x_min":19.4375,"x_max":979.171875,"ha":1003,"o":"m 701 1179 b 627 1109 677 1127 659 1109 b 554 1130 606 1109 580 1116 l 520 1147 b 423 1172 487 1163 454 1172 b 283 1031 354 1172 304 1122 l 323 1031 b 394 1095 338 1075 362 1095 b 451 1080 411 1095 430 1090 l 483 1065 b 595 1031 540 1037 561 1031 b 741 1179 672 1031 712 1073 l 701 1179 m 979 919 l 656 919 l 656 893 b 787 712 769 886 787 855 l 787 347 b 736 123 787 234 781 179 b 525 41 691 72 613 41 b 347 104 445 41 387 65 b 286 329 291 158 286 220 l 286 762 b 412 893 286 866 301 883 l 412 919 l 19 919 l 19 893 b 144 776 129 884 144 869 l 144 345 b 256 44 144 198 180 101 b 493 -19 313 1 391 -19 b 773 81 620 -19 715 15 b 848 362 836 152 848 227 l 848 716 b 979 893 848 848 862 881 l 979 919 "},"𝚠":{"x_min":20.828125,"x_max":705.5625,"ha":729,"o":"m 705 591 b 672 625 705 609 690 625 l 472 625 b 438 591 454 625 438 609 l 438 569 b 472 536 438 551 454 536 l 565 536 b 494 100 536 368 494 127 l 493 100 b 431 341 493 130 455 261 b 387 375 426 361 406 375 l 358 375 b 313 341 338 375 319 361 l 240 83 l 161 536 l 252 536 b 286 569 270 536 286 551 l 286 591 b 252 625 286 609 270 625 l 54 625 b 20 591 34 625 20 609 l 20 569 b 54 536 20 551 34 536 l 93 536 l 181 27 b 220 -5 184 8 201 -5 l 268 -5 b 312 27 287 -5 306 8 b 372 275 336 109 372 236 l 373 275 b 433 27 373 236 409 109 b 477 -5 438 8 458 -5 l 504 -5 b 544 27 523 -5 541 8 l 633 536 l 672 536 b 705 569 690 536 705 551 l 705 591 "},"L":{"x_min":16.671875,"x_max":830.5625,"ha":849,"o":"m 830 241 l 794 241 b 736 138 772 193 754 162 b 501 54 688 79 613 54 l 404 54 b 279 116 302 54 279 63 l 279 761 b 409 893 279 868 295 886 l 409 919 l 16 919 l 16 893 b 137 758 125 884 137 865 l 137 159 b 16 26 137 54 119 31 l 16 0 l 763 0 l 830 241 "},"𝐴":{"x_min":48.609375,"x_max":951.390625,"ha":996,"o":"m 951 0 l 951 22 l 929 22 b 826 119 870 22 836 51 l 718 926 l 693 926 l 198 125 b 48 22 148 44 97 27 l 48 0 l 351 0 l 351 22 l 311 22 b 251 62 275 22 252 37 b 265 98 251 72 255 87 l 381 293 l 656 293 l 675 136 b 677 106 676 126 677 115 b 577 22 677 51 655 22 l 555 22 l 555 0 l 951 0 m 647 344 l 411 344 l 604 659 l 612 659 l 647 344 "},"ď":{"x_min":37.5,"x_max":838.890625,"ha":814,"o":"m 683 636 b 838 850 776 682 838 766 b 727 973 838 919 790 973 b 645 894 679 973 645 941 b 727 823 645 850 676 823 b 755 826 737 823 747 825 b 765 829 762 829 765 829 b 784 811 776 829 784 820 b 670 662 784 764 745 714 l 683 636 m 681 58 l 681 80 b 650 79 658 79 656 79 b 588 158 600 79 588 94 l 588 945 l 581 948 b 377 887 515 925 466 911 l 377 865 b 408 866 388 866 397 866 b 472 795 459 866 472 852 l 472 579 b 326 639 419 623 381 639 b 37 284 166 639 37 482 b 294 -13 37 107 140 -13 b 472 79 372 -13 425 14 l 472 -9 l 477 -13 l 681 58 m 472 141 b 451 102 472 132 463 116 b 348 58 426 73 391 58 b 156 340 231 58 156 169 b 330 600 156 497 225 600 b 472 461 405 600 472 534 l 472 141 "},"𝖋":{"x_min":45.828125,"x_max":488.890625,"ha":514,"o":"m 454 973 b 381 922 430 930 397 922 b 243 966 338 922 302 966 b 102 787 131 966 102 848 b 115 647 102 741 115 690 b 45 568 115 576 73 568 l 45 533 l 116 533 l 150 -295 l 290 -295 l 325 533 l 458 533 l 458 623 l 373 623 b 184 733 293 623 184 633 b 233 793 184 777 213 793 b 341 763 277 793 281 763 b 488 961 441 763 484 904 l 454 973 "},"ŧ":{"x_min":15.28125,"x_max":388.890625,"ha":388,"o":"m 370 113 b 287 65 341 80 322 65 b 215 187 243 65 215 91 l 215 326 l 350 326 l 350 387 l 215 387 l 215 587 l 355 587 l 355 631 l 215 631 l 215 794 b 205 811 215 809 211 811 l 154 738 b 66 640 126 700 93 662 b 19 597 45 623 19 612 b 30 587 19 588 23 587 l 98 587 l 98 387 l 15 387 l 15 326 l 98 326 l 98 175 b 223 -6 98 81 119 -6 b 388 98 287 -6 344 26 l 370 113 "},"À":{"x_min":20.828125,"x_max":981.953125,"ha":1003,"o":"m 626 1051 l 425 1256 b 365 1288 401 1281 386 1288 b 315 1244 334 1288 315 1273 b 356 1184 315 1222 330 1201 l 570 1051 l 626 1051 m 981 0 l 981 26 b 851 154 909 34 890 63 l 509 936 l 481 936 l 195 258 b 20 26 113 63 101 34 l 20 0 l 297 0 l 297 26 b 200 83 230 26 200 40 b 212 141 200 100 205 123 l 276 300 l 640 300 l 697 169 b 723 72 713 130 723 93 b 704 38 723 59 715 44 b 627 26 687 29 677 26 l 627 0 l 981 0 m 620 356 l 300 356 l 459 738 l 620 356 "},"𝐌":{"x_min":19.4375,"x_max":1279.171875,"ha":1311,"o":"m 1279 0 l 1279 34 b 1156 175 1168 44 1156 73 l 1156 769 b 1279 904 1156 873 1177 897 l 1279 938 l 929 938 l 650 283 l 373 938 l 22 938 l 22 904 b 145 801 123 895 145 876 l 145 150 b 19 34 145 59 127 45 l 19 0 l 344 0 l 344 34 b 204 179 230 43 204 73 l 204 825 l 554 0 l 591 0 l 941 840 l 941 151 b 818 34 941 69 922 44 l 818 0 l 1279 0 "},"½":{"x_min":50.4375,"x_max":1029.59375,"ha":1042,"o":"m 1029 118 l 1004 127 b 924 90 983 97 961 90 l 767 90 l 883 202 b 1003 412 974 290 1003 344 b 828 564 1003 500 936 564 b 619 398 710 564 658 512 l 654 377 b 776 480 685 444 725 480 b 875 375 832 480 875 433 b 767 183 875 333 837 259 l 626 33 l 626 0 l 975 0 l 1029 118 m 826 939 l 762 939 l 133 -19 l 201 -19 l 826 939 m 301 375 l 301 408 b 222 462 242 408 222 426 l 222 933 l 203 939 l 53 862 l 53 829 b 111 848 89 845 101 848 b 124 807 119 848 124 839 l 124 454 b 50 408 124 422 110 412 l 50 375 l 301 375 "},"𝒴":{"x_min":126.390625,"x_max":1272.21875,"ha":1286,"o":"m 1145 913 l 891 565 b 456 155 686 283 552 155 b 416 195 429 155 416 176 b 536 405 416 229 438 283 b 730 751 681 588 730 665 b 481 954 730 869 619 954 b 126 676 304 954 126 843 b 284 527 126 591 195 527 b 527 743 384 527 487 588 l 500 743 b 293 569 456 626 386 569 b 183 673 230 569 183 613 b 472 905 183 818 306 905 b 647 790 555 905 647 854 b 488 520 647 743 626 697 b 340 243 380 380 340 311 b 458 113 340 161 386 113 b 747 327 536 113 650 193 l 751 322 b 608 50 690 216 665 162 b 170 -223 450 -1 170 -54 b 283 -313 170 -277 216 -313 b 737 52 466 -313 651 -113 b 969 197 812 86 877 113 l 948 218 b 758 106 887 166 818 129 b 1272 913 884 361 1037 600 l 1145 913 m 581 -2 b 283 -272 494 -162 401 -272 b 229 -220 252 -272 229 -247 b 581 -2 229 -116 383 -68 "},"'":{"x_min":66.671875,"x_max":184.71875,"ha":250,"o":"m 140 598 b 184 883 168 737 184 841 b 126 938 184 915 163 938 b 66 880 93 938 66 915 b 111 598 66 841 86 734 l 140 598 "},"𝞏":{"x_min":8.328125,"x_max":1165.28125,"ha":1178,"o":"m 1165 508 l 1165 640 l 243 640 b 8 420 113 640 54 562 l 126 368 b 255 506 144 434 172 498 b 193 295 216 450 193 363 b 286 40 193 180 227 94 b 452 -19 329 -1 391 -19 b 640 95 531 -19 604 18 l 643 95 b 831 -19 681 18 752 -19 b 994 37 891 -19 947 -1 b 1091 305 1055 87 1091 177 b 1037 508 1091 375 1072 447 l 1165 508 m 723 426 l 705 440 l 556 400 l 556 313 b 452 112 556 165 511 112 b 366 297 394 112 366 198 b 452 508 366 373 390 454 l 831 508 b 918 297 894 454 918 373 b 831 112 918 197 895 112 b 723 313 775 112 723 165 l 723 426 "},"𝞼":{"x_min":62.5,"x_max":887.5,"ha":853,"o":"m 887 641 l 469 641 b 62 220 329 641 62 506 b 306 -19 62 76 159 -19 b 690 277 519 -19 661 166 b 697 336 695 297 697 316 b 625 506 697 398 672 459 l 626 509 l 855 509 l 887 641 m 527 348 b 340 112 527 286 472 112 b 238 234 270 112 238 162 b 431 509 238 386 331 509 b 527 348 473 484 527 433 "},"𝐃":{"x_min":19.4375,"x_max":958.328125,"ha":1003,"o":"m 19 938 l 19 904 b 134 811 108 895 134 875 l 134 136 b 19 34 134 69 100 37 l 19 0 l 448 0 b 798 112 588 0 713 38 b 958 479 898 200 958 336 b 452 938 958 765 769 938 l 19 938 m 359 830 b 433 891 359 869 379 891 b 659 751 537 891 606 843 b 716 458 700 680 716 577 b 647 148 716 336 690 211 b 440 48 600 81 531 48 b 359 138 377 48 359 76 l 359 830 "},"𝚍":{"x_min":56.9375,"x_max":701.390625,"ha":729,"o":"m 701 55 b 668 88 701 73 687 88 l 584 88 l 584 812 b 551 845 584 830 569 845 l 419 845 b 386 812 401 845 386 830 l 386 789 b 419 755 386 770 401 755 l 504 755 l 504 560 b 316 632 455 606 387 632 b 56 312 166 632 56 481 b 305 -8 56 144 159 -8 b 504 83 386 -8 455 27 l 504 33 b 537 0 504 15 518 0 l 668 0 b 701 33 687 0 701 15 l 701 55 m 504 236 b 326 80 484 147 412 80 b 137 312 227 80 137 179 b 340 544 137 444 231 544 b 504 431 420 544 486 495 l 504 236 "},"Ć":{"x_min":38.890625,"x_max":879.171875,"ha":926,"o":"m 406 998 l 462 998 l 676 1133 b 718 1191 705 1151 718 1169 b 669 1236 718 1219 700 1236 b 611 1204 648 1236 636 1229 l 406 998 m 852 181 b 547 41 748 83 672 41 b 300 141 451 41 361 76 b 200 473 234 212 200 320 b 533 883 200 713 323 883 b 756 777 623 883 695 843 b 829 623 791 740 812 700 l 861 623 l 848 938 l 820 938 b 762 893 812 909 788 893 b 666 918 738 893 695 909 b 501 938 611 933 555 938 b 163 794 372 938 252 893 b 38 451 84 705 38 590 b 172 104 38 313 87 187 b 500 -19 252 25 373 -19 b 879 156 663 -19 798 41 l 852 181 "},"𝜞":{"x_min":58.328125,"x_max":1040.28125,"ha":881,"o":"m 1040 929 l 269 929 l 265 897 l 318 897 b 395 866 372 897 394 894 b 391 815 395 855 394 829 l 231 116 b 113 31 219 62 198 31 l 63 31 l 58 0 l 579 0 l 586 31 l 513 31 b 431 79 455 31 431 44 b 436 113 431 88 433 100 l 609 866 l 825 866 b 955 743 887 866 955 834 b 948 673 955 723 954 700 l 980 673 l 1040 929 "},"𝔻":{"x_min":97.21875,"x_max":940.28125,"ha":1003,"o":"m 97 919 l 97 0 l 483 0 b 940 461 755 0 940 190 b 483 919 940 738 759 919 l 97 919 m 768 751 b 879 475 847 677 879 581 b 768 175 879 384 845 231 l 768 751 m 706 137 b 475 61 658 87 543 61 l 327 61 l 327 858 l 476 858 b 706 793 545 858 648 830 l 706 137 m 266 61 l 158 61 l 158 858 l 266 858 l 266 61 "},"£":{"x_min":16.828125,"x_max":680.671875,"ha":694,"o":"m 477 456 l 477 518 l 304 518 b 289 711 293 614 289 657 b 420 901 289 831 337 901 b 498 829 472 901 497 878 b 552 736 500 756 511 736 b 622 810 593 736 622 767 b 441 939 622 883 545 939 b 171 614 276 939 171 812 b 180 518 171 581 173 554 l 32 518 l 32 456 l 182 456 l 189 410 b 211 203 204 312 211 229 b 207 174 211 193 209 185 b 143 181 180 179 164 181 b 16 74 66 181 16 138 b 111 -11 16 21 52 -11 b 247 74 159 -11 191 7 b 448 -10 341 9 387 -10 b 618 66 512 -10 572 17 b 680 189 647 98 680 164 b 672 196 680 194 677 196 b 640 173 664 196 654 189 b 483 105 597 126 547 105 b 276 154 415 105 366 116 b 311 371 309 321 311 330 b 309 456 311 399 311 428 l 477 456 m 197 105 b 176 62 197 94 190 78 b 111 27 157 37 137 27 b 52 78 76 27 52 48 b 122 130 52 112 77 130 b 197 105 157 130 197 117 "},"ů":{"x_min":12.5,"x_max":666.671875,"ha":694,"o":"m 484 848 b 348 987 484 923 422 987 b 208 849 270 987 208 926 b 344 711 208 772 268 711 b 484 848 422 711 484 772 m 437 849 b 344 758 437 798 397 758 b 255 849 295 758 255 798 b 344 940 255 898 297 940 b 437 849 395 940 437 899 m 666 69 l 658 69 b 579 148 594 69 579 84 l 579 624 l 359 624 l 359 601 b 462 511 443 595 462 584 l 462 190 b 430 109 462 141 452 129 b 313 66 395 79 354 66 b 215 176 259 66 215 112 l 215 624 l 12 624 l 12 605 b 98 512 79 601 98 581 l 98 163 b 268 -14 98 56 161 -14 b 466 105 319 -14 398 12 l 469 105 l 469 -8 l 476 -12 b 666 49 545 15 595 30 l 666 69 "},"𝚯":{"x_min":48.609375,"x_max":1031.953125,"ha":1081,"o":"m 715 309 b 695 480 702 369 695 426 b 712 633 695 531 701 583 l 676 633 b 658 573 670 604 665 584 b 620 554 650 561 637 554 l 469 554 b 429 568 451 554 438 558 b 397 633 419 577 408 600 l 361 633 b 381 473 375 576 381 522 b 361 309 381 411 375 356 l 397 309 b 423 373 406 341 415 363 b 468 387 431 383 445 387 l 619 387 b 679 309 650 387 670 361 l 715 309 m 1031 466 b 911 804 1031 600 991 712 b 547 961 818 909 697 961 b 208 840 412 961 300 920 b 48 465 102 747 48 622 b 169 130 48 331 88 220 b 538 -25 262 27 384 -25 b 875 95 672 -25 784 15 b 1031 466 979 188 1031 312 m 786 456 b 541 20 786 166 705 20 b 294 459 377 20 294 166 b 348 780 294 595 312 702 b 534 915 390 869 452 915 b 712 811 611 915 669 880 b 786 456 761 731 786 615 "},"Ğ":{"x_min":44.4375,"x_max":984.71875,"ha":1003,"o":"m 687 1216 b 533 1081 647 1118 608 1081 b 377 1216 445 1081 395 1129 l 337 1216 b 530 998 337 1081 400 998 b 727 1216 644 998 711 1069 l 687 1216 m 984 491 l 629 491 l 629 466 b 752 338 738 458 752 447 l 752 120 b 568 36 752 75 675 36 b 202 450 350 36 202 191 b 309 787 202 587 236 713 b 541 883 369 848 445 883 b 744 806 619 883 691 856 b 843 645 786 766 808 730 l 875 645 l 863 938 l 833 938 b 770 893 825 912 800 893 b 709 906 756 893 736 897 b 525 938 647 927 600 938 b 193 819 390 938 276 895 b 44 454 100 734 44 606 b 159 129 44 318 81 211 b 534 -19 251 33 393 -19 b 887 77 677 -19 811 15 l 887 355 b 984 466 887 445 904 459 l 984 491 "},"û":{"x_min":12.96875,"x_max":667.4375,"ha":694,"o":"m 557 704 l 383 936 l 297 936 l 125 704 l 172 704 l 340 847 l 510 704 l 557 704 m 667 69 l 659 69 b 579 148 595 69 579 84 l 579 624 l 360 624 l 360 601 b 463 511 443 595 463 584 l 463 190 b 431 109 463 141 453 129 b 314 66 396 79 354 66 b 215 176 260 66 215 112 l 215 624 l 12 624 l 12 605 b 99 512 79 601 99 581 l 99 163 b 268 -14 99 56 161 -14 b 467 105 320 -14 399 12 l 470 105 l 470 -8 l 477 -12 b 667 49 546 15 596 30 l 667 69 "},"𝑳":{"x_min":58.328125,"x_max":972.21875,"ha":1033,"o":"m 972 276 l 940 277 b 630 62 900 91 781 62 l 463 62 b 434 94 448 62 436 65 b 438 116 434 98 437 109 l 598 800 b 712 897 613 865 638 897 l 763 897 l 769 929 l 269 929 l 263 897 l 313 897 b 397 826 372 897 397 862 b 394 805 397 819 395 812 l 233 116 b 112 31 220 62 202 31 l 63 31 l 58 0 l 890 0 l 972 276 "},"Ź":{"x_min":13.890625,"x_max":830.5625,"ha":850,"o":"m 330 998 l 386 998 l 600 1133 b 641 1191 629 1151 641 1169 b 593 1236 641 1219 623 1236 b 534 1204 572 1236 559 1229 l 330 998 m 830 244 l 798 244 b 715 91 773 162 761 123 b 552 52 680 66 630 52 l 202 52 l 802 898 l 802 919 l 73 919 l 44 681 l 80 681 b 137 818 94 758 102 781 b 323 866 170 851 225 866 l 620 866 l 13 20 l 13 0 l 795 0 l 830 244 "},"𝝐":{"x_min":61.109375,"x_max":668.0625,"ha":668,"o":"m 668 640 l 636 640 b 590 613 629 620 604 613 b 454 640 559 613 551 640 b 61 205 238 640 61 413 b 288 -13 61 91 127 -13 b 598 150 475 -13 556 94 l 573 158 b 362 48 519 98 455 48 b 222 212 277 48 222 102 b 236 304 222 244 226 275 l 497 304 l 511 365 l 250 365 b 476 588 280 466 375 588 b 600 445 591 588 600 520 l 631 445 l 668 640 "},"𝚰":{"x_min":27.78125,"x_max":513.890625,"ha":585,"o":"m 513 0 l 513 34 b 381 147 408 41 381 56 l 381 800 b 513 904 381 877 411 900 l 513 938 l 27 938 l 27 904 b 156 800 127 897 156 877 l 156 147 b 27 34 156 61 131 44 l 27 0 l 513 0 "},"𝛽":{"x_min":34.71875,"x_max":719.453125,"ha":685,"o":"m 65 -146 b 34 -254 58 -175 44 -232 l 144 -254 b 176 -157 151 -239 168 -196 l 215 11 b 304 -17 244 -11 269 -17 b 570 116 418 -17 509 38 b 658 377 616 174 658 285 b 580 518 658 442 637 503 l 580 520 b 719 768 666 559 719 667 b 581 927 719 863 658 927 b 411 850 518 927 458 891 b 226 518 305 759 273 716 l 65 -146 m 369 636 b 533 857 398 755 429 857 b 618 718 594 857 618 782 b 534 546 618 684 595 546 b 473 553 515 546 484 553 b 408 516 423 553 408 531 b 452 485 408 499 427 485 b 511 496 477 485 484 496 b 540 409 533 496 540 456 b 295 23 540 274 458 23 b 227 55 279 23 251 30 l 369 636 "},"𝗵":{"x_min":76.390625,"x_max":631.9375,"ha":708,"o":"m 631 0 l 631 447 b 425 656 631 580 566 656 b 245 576 351 656 300 630 l 243 576 l 243 938 l 76 938 l 76 0 l 243 0 l 243 406 b 373 525 275 494 338 525 b 465 429 422 525 465 502 l 465 0 l 631 0 "},"𝕒":{"x_min":62.9375,"x_max":703.21875,"ha":779,"o":"m 703 0 l 703 413 b 429 639 703 587 583 639 b 93 423 258 639 158 584 l 151 407 b 382 578 197 507 267 578 b 497 445 439 578 497 498 b 62 163 497 312 62 439 b 293 -12 62 41 186 -12 b 497 70 368 -12 446 13 l 497 0 l 703 0 m 642 62 l 558 62 l 558 382 b 490 574 558 453 557 531 l 490 577 b 642 393 610 577 642 499 l 642 62 m 497 213 b 303 46 497 112 396 46 b 275 48 294 46 285 48 l 275 295 b 497 349 349 313 431 306 l 497 213 m 214 59 b 124 164 165 70 124 113 b 214 277 124 221 157 268 l 214 59 "},"⁏":{"x_min":82.984375,"x_max":276.03125,"ha":386,"o":"m 276 559 b 198 637 276 604 242 637 b 121 559 156 637 121 601 b 198 483 121 518 156 483 b 276 559 239 483 276 518 m 252 -169 b 137 -22 176 -119 137 -68 b 156 -2 137 -12 145 -2 b 195 -8 164 -2 182 -8 b 276 63 246 -8 276 18 b 194 141 276 109 239 141 b 82 18 131 141 82 93 b 238 -195 82 -69 141 -150 l 252 -169 "},"‒":{"x_min":0,"x_max":694.453125,"ha":694,"o":"m 694 268 l 694 359 l 0 359 l 0 268 l 694 268 "},"𝞨":{"x_min":65.28125,"x_max":1133.328125,"ha":1133,"o":"m 359 141 l 79 141 l 65 0 l 475 0 l 530 286 b 359 480 433 313 359 372 b 725 818 359 636 518 818 b 956 623 865 818 956 744 b 655 287 956 420 786 318 l 569 0 l 979 0 l 1034 141 l 754 141 l 769 181 b 1133 634 909 216 1133 379 b 761 959 1133 808 1012 959 b 176 445 408 959 176 668 b 363 181 176 300 273 206 l 359 141 "},"Ń":{"x_min":16.671875,"x_max":981.953125,"ha":1003,"o":"m 387 998 l 443 998 l 656 1133 b 698 1191 686 1151 698 1169 b 650 1236 698 1219 680 1236 b 591 1204 629 1236 616 1229 l 387 998 m 981 919 l 652 919 l 652 893 b 762 856 713 886 738 883 b 788 720 783 833 788 791 l 788 248 l 252 919 l 16 919 l 16 893 b 151 819 84 893 105 876 l 151 208 b 16 26 151 59 130 38 l 16 0 l 341 0 l 341 26 b 212 208 234 41 212 65 l 212 747 l 825 -15 l 850 -15 l 850 704 b 890 868 850 813 863 844 b 981 893 908 883 929 887 l 981 919 "},"𝗥":{"x_min":111.109375,"x_max":912.5,"ha":931,"o":"m 912 0 l 559 416 b 791 677 704 451 791 550 b 411 938 791 843 666 938 l 111 938 l 111 0 l 291 0 l 291 404 l 348 404 l 691 0 l 912 0 m 291 545 l 291 797 l 381 797 b 608 679 547 797 608 761 b 390 545 608 588 550 545 l 291 545 "},".":{"x_min":97.21875,"x_max":251.390625,"ha":347,"o":"m 251 59 b 175 138 251 101 215 138 b 97 61 131 138 97 104 b 173 -15 97 18 130 -15 b 251 59 215 -15 251 19 "},"𝚄":{"x_min":12.5,"x_max":713.890625,"ha":729,"o":"m 713 886 b 680 919 713 904 698 919 l 469 919 b 436 886 451 919 436 904 l 436 863 b 469 830 436 844 451 830 l 534 830 l 534 305 b 362 73 534 169 450 73 b 191 305 275 73 191 169 l 191 830 l 255 830 b 288 863 273 830 288 844 l 288 886 b 255 919 288 904 273 919 l 45 919 b 12 886 27 919 12 904 l 12 863 b 45 830 12 844 27 830 l 109 830 l 109 305 b 362 -15 109 137 215 -15 b 615 305 509 -15 615 137 l 615 830 l 680 830 b 713 863 698 830 713 844 l 713 886 "},"𝞸":{"x_min":62.5,"x_max":715.28125,"ha":754,"o":"m 715 413 b 477 656 715 559 622 656 b 62 223 277 656 62 475 b 304 -19 62 77 159 -19 b 715 413 504 -19 715 170 m 541 409 b 337 112 541 352 497 112 b 238 236 269 112 238 162 b 436 525 238 369 320 525 b 541 409 506 525 541 483 "},"𝘊":{"x_min":133.328125,"x_max":1048.609375,"ha":932,"o":"m 1048 769 b 737 938 997 895 861 938 b 133 316 412 938 133 654 b 500 -19 133 115 258 -19 b 925 165 654 -19 804 47 l 872 236 b 530 86 756 134 652 86 b 259 343 354 86 259 184 b 712 833 259 602 463 833 b 986 629 827 833 961 791 l 1012 629 l 1048 769 "},"𝝽":{"x_min":38.671875,"x_max":678.953125,"ha":696,"o":"m 384 112 b 212 251 272 112 212 161 b 583 477 212 388 388 477 l 594 602 l 583 609 b 363 580 516 609 435 605 b 313 637 331 590 313 609 b 549 748 313 708 424 748 l 538 876 l 523 880 b 324 836 451 880 390 861 b 285 888 297 851 285 872 b 305 937 285 908 291 919 l 198 961 l 176 961 b 144 875 152 930 144 906 b 208 769 144 819 167 797 b 147 645 167 734 147 691 b 228 523 147 588 172 550 l 228 519 b 38 233 103 454 38 348 b 313 -19 38 79 163 -19 l 437 -19 b 547 -83 488 -19 547 -30 b 447 -152 547 -138 505 -152 b 362 -119 424 -152 395 -150 l 340 -119 l 340 -255 b 445 -284 366 -279 410 -284 b 678 -63 585 -284 678 -197 b 469 112 678 68 559 112 l 384 112 "},"𝒔":{"x_min":76.390625,"x_max":581.9375,"ha":658,"o":"m 581 641 l 547 641 b 493 611 534 613 505 611 b 363 641 469 611 441 641 b 183 479 279 641 183 591 b 309 265 183 404 254 330 b 375 147 334 236 375 201 b 287 36 375 90 351 36 b 140 213 222 36 143 115 l 106 213 l 76 -15 l 111 -15 b 165 15 131 5 150 15 b 318 -13 201 15 234 -13 b 533 165 455 -13 533 73 b 429 372 533 259 487 302 b 334 513 381 427 334 473 b 398 590 334 572 361 590 b 520 419 451 590 519 520 l 551 419 l 581 641 "},"𝘔":{"x_min":104.171875,"x_max":1295.828125,"ha":1171,"o":"m 1295 919 l 1125 919 l 648 250 l 504 919 l 333 919 l 104 0 l 222 0 l 408 751 l 570 0 l 600 0 l 1136 754 l 948 0 l 1066 0 l 1295 919 "},"𝕠":{"x_min":62.5,"x_max":705.5625,"ha":768,"o":"m 705 306 b 383 636 705 505 583 636 b 62 312 187 636 62 508 b 383 -16 62 115 183 -16 b 705 306 580 -16 705 111 m 561 513 b 644 306 620 462 644 383 b 561 105 644 230 622 156 l 561 513 m 500 68 b 383 44 470 50 416 44 b 268 68 350 44 297 50 l 268 551 b 383 575 297 569 350 575 b 500 551 416 575 470 569 l 500 68 m 206 105 b 123 312 145 158 123 233 b 206 513 123 387 147 465 l 206 105 "},"𝒵":{"x_min":81.9375,"x_max":1266.671875,"ha":1294,"o":"m 565 720 b 398 615 519 645 477 615 b 277 733 334 615 277 656 b 465 900 277 796 333 900 b 851 810 615 900 737 853 b 633 474 773 743 700 636 b 609 476 625 476 616 476 b 434 386 544 476 481 437 l 458 364 b 590 408 511 404 550 408 b 606 406 595 408 601 408 b 440 108 555 273 506 172 b 243 151 370 130 301 151 b 81 70 148 151 81 114 b 237 -12 81 23 123 -12 b 462 47 319 -12 394 8 b 736 -20 600 0 665 -20 b 1044 225 908 -20 1018 68 l 1016 226 b 733 33 981 105 881 33 b 515 83 669 33 593 57 b 734 390 611 155 686 262 b 759 389 740 389 754 389 b 923 470 826 389 880 424 l 904 494 b 775 456 869 467 819 458 b 759 458 772 456 766 456 b 920 786 815 616 865 722 b 1105 750 983 765 1043 750 b 1266 830 1200 750 1266 787 b 1111 914 1266 873 1223 914 b 902 850 1045 914 975 896 b 494 954 786 897 644 954 b 220 733 308 954 220 828 b 398 573 220 634 308 573 b 590 709 497 573 548 627 l 565 720 m 1209 830 b 1119 791 1209 811 1170 791 b 963 826 1072 791 1020 805 b 1111 872 1006 858 1054 872 b 1209 830 1186 872 1209 853 m 393 70 b 237 29 350 43 298 29 b 138 70 162 29 138 48 b 229 109 138 90 177 109 b 393 70 287 109 325 95 "},"𝙆":{"x_min":111.109375,"x_max":1133.328125,"ha":989,"o":"m 1133 938 l 931 938 l 430 573 l 522 938 l 344 938 l 111 0 l 288 0 l 384 384 l 440 425 l 745 0 l 981 0 l 590 533 l 1129 919 l 1133 938 "},"𝐟":{"x_min":19.4375,"x_max":540.28125,"ha":463,"o":"m 19 641 l 19 580 l 98 580 l 98 122 b 19 34 98 59 83 41 l 19 1 l 405 1 l 405 34 b 291 150 308 37 291 59 l 291 580 l 411 580 l 411 641 l 291 641 l 291 808 b 361 918 291 890 311 918 b 401 891 386 918 401 908 b 370 812 401 872 370 861 b 454 733 370 769 406 733 b 540 822 505 733 540 770 b 341 961 540 904 459 961 b 154 890 252 961 191 936 b 98 641 108 834 98 751 l 19 641 "},"Ś":{"x_min":59.71875,"x_max":681.953125,"ha":772,"o":"m 279 998 l 334 998 l 548 1133 b 590 1191 577 1151 590 1169 b 541 1236 590 1219 572 1236 b 483 1204 520 1236 508 1229 l 279 998 m 651 643 l 620 938 l 591 938 b 547 891 586 908 570 891 b 486 908 533 891 511 897 b 340 938 433 930 397 938 b 98 695 202 938 98 847 b 268 456 98 609 143 523 b 501 295 356 409 452 348 b 541 186 527 266 541 234 b 376 30 541 94 473 30 b 90 276 244 30 154 108 l 59 276 l 100 -18 l 130 -18 b 169 27 130 11 148 27 b 234 12 184 27 208 23 b 398 -19 286 -9 340 -19 b 681 240 559 -19 681 84 b 466 512 681 345 613 426 b 218 750 320 597 218 655 b 358 881 218 826 272 881 b 559 773 441 881 511 836 b 616 643 584 740 600 704 l 651 643 "},"à":{"x_min":51.96875,"x_max":614.46875,"ha":617,"o":"m 440 704 l 239 909 b 179 941 215 934 200 941 b 129 897 149 941 129 926 b 171 837 129 875 145 854 l 385 704 l 440 704 m 614 91 b 554 65 590 72 576 65 b 511 156 529 65 511 93 l 511 422 b 472 576 511 506 506 536 b 308 638 439 616 386 638 b 149 597 246 638 188 622 b 78 486 100 566 78 522 b 138 422 78 448 108 422 b 201 479 174 422 201 452 b 193 537 201 508 193 512 b 290 605 193 575 235 605 b 399 480 353 605 399 566 l 399 405 b 149 293 242 347 190 320 b 51 130 95 256 51 202 b 197 -13 51 38 111 -13 b 399 87 257 -13 325 4 l 400 87 b 489 -13 407 13 438 -13 b 614 52 536 -13 572 0 l 614 91 m 399 176 b 350 88 399 136 390 116 b 270 66 326 73 297 66 b 174 173 215 66 174 100 b 221 280 174 216 188 250 b 399 372 256 312 313 341 l 399 176 "},"𝔏":{"x_min":65.453125,"x_max":869.609375,"ha":929,"o":"m 840 196 b 705 106 804 122 751 106 b 359 242 608 106 512 218 b 477 435 404 283 477 353 b 300 758 477 546 300 625 b 515 913 300 879 418 913 b 693 772 600 913 693 878 b 596 465 693 632 596 625 b 840 286 596 371 733 295 l 852 317 b 733 449 798 333 733 368 b 841 729 733 538 841 586 b 501 965 841 881 648 965 b 150 701 339 965 150 860 b 346 340 150 522 346 467 b 305 242 346 301 327 265 b 65 4 166 238 83 96 l 97 -5 b 252 103 127 86 197 103 b 647 -32 379 103 489 -32 b 869 185 773 -32 841 92 l 840 196 "},"𝓍":{"x_min":89.9375,"x_max":937.15625,"ha":1044,"o":"m 906 281 b 573 30 774 123 662 30 b 514 91 541 30 514 54 b 821 570 514 213 710 570 b 869 540 856 570 869 555 b 789 458 869 497 789 525 b 845 412 789 430 810 412 b 930 506 891 412 930 459 b 816 612 930 584 885 612 b 627 491 751 612 681 561 l 624 491 b 502 608 624 566 571 608 b 126 347 405 608 289 543 l 156 323 b 492 566 313 511 427 566 b 544 500 530 566 544 540 b 201 26 544 415 370 26 b 151 55 173 26 151 34 b 231 138 151 95 231 72 b 173 188 231 175 203 188 b 89 88 131 188 89 141 b 209 -15 89 19 139 -15 b 431 106 273 -15 344 18 l 434 106 b 559 -11 434 19 498 -11 b 937 258 682 -11 806 91 l 906 281 "},"𝙍":{"x_min":111.109375,"x_max":969.453125,"ha":931,"o":"m 344 938 l 111 0 l 291 0 l 391 404 l 448 404 l 691 0 l 912 0 l 662 416 b 969 744 838 455 969 587 b 644 938 969 868 862 938 l 344 938 m 426 545 l 490 797 l 580 797 b 780 711 722 797 780 770 b 525 545 780 598 693 545 l 426 545 "},"𝞯":{"x_min":68.0625,"x_max":748.609375,"ha":667,"o":"m 748 880 l 725 880 b 476 788 619 859 580 841 b 445 840 454 800 445 819 b 487 937 445 870 465 906 l 387 961 l 365 961 b 298 806 316 912 298 838 b 355 700 298 762 319 727 l 354 695 b 68 180 183 565 68 355 b 277 -19 68 11 183 -19 l 402 -19 b 498 -69 448 -19 498 -29 b 379 -152 498 -136 436 -152 b 302 -119 356 -152 329 -150 l 280 -119 l 247 -255 b 344 -284 266 -279 309 -284 b 638 -18 490 -284 638 -176 b 468 112 638 77 547 112 l 390 112 b 252 243 304 112 252 148 b 454 620 252 388 362 547 b 738 748 543 691 647 738 l 748 880 "},"𝗎":{"x_min":87.5,"x_max":597.21875,"ha":682,"o":"m 597 18 b 588 178 591 64 588 132 l 588 629 l 479 629 l 479 223 b 311 85 450 141 356 85 b 197 207 240 85 197 116 l 197 629 l 87 629 l 87 182 b 125 48 87 129 100 80 b 273 -13 158 16 218 -13 b 483 82 344 -13 429 22 l 486 -8 l 498 -15 l 597 18 "},"¦":{"x_min":93.0625,"x_max":184.71875,"ha":278,"o":"m 184 555 l 184 938 l 93 938 l 93 555 l 184 555 m 184 -19 l 184 363 l 93 363 l 93 -19 l 184 -19 "},"𝟔":{"x_min":38.890625,"x_max":659.71875,"ha":694,"o":"m 652 955 b 231 793 445 918 354 900 b 38 380 108 684 38 547 b 361 -17 38 134 165 -17 b 659 308 540 -17 659 113 b 400 584 659 476 558 584 b 283 561 355 584 325 579 b 652 919 336 762 450 877 l 652 955 m 448 229 b 363 19 448 59 426 19 b 293 59 330 19 306 33 b 255 340 269 105 255 207 b 273 508 255 420 263 500 b 325 522 283 516 302 522 b 448 229 416 522 448 445 "},"𝛭":{"x_min":52.78125,"x_max":1465.28125,"ha":1396,"o":"m 1465 906 l 1166 906 l 704 222 l 698 222 l 575 906 l 279 906 l 273 884 l 300 884 b 406 836 386 884 406 863 b 400 783 406 823 405 806 l 234 123 b 84 22 220 68 194 22 l 58 22 l 52 0 l 423 0 l 429 22 l 401 22 b 295 68 319 22 295 38 b 302 123 295 84 298 105 l 454 718 l 458 718 l 588 0 l 623 0 l 1102 718 l 1111 718 l 955 108 b 809 22 944 63 919 22 l 786 22 l 780 0 l 1238 0 l 1244 22 l 1218 22 b 1111 69 1137 22 1111 43 b 1113 108 1111 81 1111 98 l 1290 800 b 1436 884 1302 850 1325 884 l 1459 884 l 1465 906 "},"𝙯":{"x_min":29.171875,"x_max":736.109375,"ha":613,"o":"m 736 641 l 234 641 l 191 509 l 479 509 l 37 34 l 29 0 l 566 0 l 611 131 l 286 131 l 727 605 l 736 641 "},"𝜚":{"x_min":55.5625,"x_max":679.171875,"ha":707,"o":"m 306 -259 b 325 -187 319 -231 325 -208 b 130 72 325 -63 130 -98 b 138 133 130 109 133 112 l 141 133 b 306 -13 141 52 206 -13 b 679 398 544 -13 679 201 b 483 612 679 523 613 612 b 169 405 345 612 234 504 b 55 81 100 300 55 187 b 106 -87 55 16 66 -40 b 293 -227 170 -161 293 -175 b 287 -250 293 -237 291 -243 l 306 -259 m 568 450 b 313 26 568 338 488 26 b 216 176 243 26 216 118 b 479 572 216 368 362 572 b 568 450 547 572 568 502 "},"𝙒":{"x_min":275,"x_max":1576.390625,"ha":1385,"o":"m 1576 939 l 1394 939 l 1040 329 l 930 939 l 508 329 l 455 939 l 275 939 l 390 -20 l 429 -20 l 826 547 l 830 547 l 944 -19 l 983 -20 l 1576 939 "},"𝔘":{"x_min":69.4375,"x_max":1033.328125,"ha":1093,"o":"m 1033 90 l 1015 119 l 977 100 b 934 87 962 91 947 87 b 876 172 902 87 876 113 l 876 666 b 1027 927 876 801 880 886 l 1018 966 l 702 847 b 713 597 713 776 713 698 l 713 194 l 469 83 b 244 238 425 122 300 218 b 431 566 387 355 431 420 l 431 770 b 329 966 431 819 402 930 l 308 966 l 80 841 l 100 806 b 201 848 136 831 176 848 b 258 765 233 848 258 822 l 258 454 b 69 163 258 254 151 200 l 69 144 b 350 -30 154 122 291 36 l 713 145 b 808 -30 718 88 744 6 l 827 -30 l 1033 90 "},"𝚊":{"x_min":80.5625,"x_max":716.671875,"ha":729,"o":"m 716 176 b 683 210 716 194 701 210 l 669 210 b 636 176 651 210 636 194 l 636 129 b 600 83 636 100 616 83 b 565 117 579 83 565 99 l 565 440 b 322 637 565 557 448 637 l 291 637 b 116 546 226 637 116 632 b 169 494 116 511 144 494 b 220 544 191 494 219 511 l 222 544 b 322 549 250 549 287 549 b 484 440 422 549 484 490 l 484 419 b 80 194 251 412 80 343 b 269 -7 80 87 159 -7 b 494 64 347 -7 436 14 b 581 -3 506 28 536 -3 b 716 129 655 -3 716 54 l 716 176 m 484 192 b 302 80 484 128 408 80 b 162 194 222 80 162 132 b 484 344 162 271 255 337 l 484 192 "},"𝕘":{"x_min":62.96875,"x_max":721.3125,"ha":797,"o":"m 721 625 l 515 625 l 515 562 b 339 638 464 618 415 638 b 62 308 165 638 62 466 b 328 -13 62 148 150 -13 b 515 66 400 -13 471 5 l 515 -226 b 393 -243 475 -236 433 -243 b 139 -136 314 -243 176 -215 l 79 -165 b 368 -302 125 -268 265 -302 b 721 -58 532 -302 721 -256 l 721 625 m 660 -59 b 576 -208 660 -144 637 -163 l 576 563 l 660 563 l 660 -59 m 515 204 b 354 47 515 119 437 47 b 268 66 339 47 278 50 l 268 565 b 351 577 289 575 329 577 b 515 415 435 577 515 500 l 515 204 m 207 91 b 124 308 143 140 124 233 b 207 526 124 384 144 476 l 207 91 "},"𝗐":{"x_min":38.890625,"x_max":937.5,"ha":975,"o":"m 937 629 l 819 629 l 658 220 l 490 629 l 373 629 b 443 451 395 572 422 509 l 325 206 l 155 629 l 38 629 l 300 -19 l 329 -19 l 498 319 l 634 -19 l 665 -19 l 937 629 "},"e":{"x_min":34.71875,"x_max":588.890625,"ha":617,"o":"m 566 227 b 352 81 498 125 445 81 b 198 158 288 81 237 106 b 134 384 148 225 141 279 l 562 384 b 515 543 556 459 543 504 b 322 638 470 605 408 638 b 34 301 147 638 34 497 b 298 -13 34 109 134 -13 b 588 218 437 -13 534 66 l 566 227 m 137 429 b 284 588 152 533 206 588 b 420 429 376 588 405 541 l 137 429 "},"𝜵":{"x_min":59.71875,"x_max":833.328125,"ha":878,"o":"m 833 929 l 59 929 l 204 -22 l 270 -22 l 833 929 m 612 787 l 345 326 l 284 787 l 612 787 "},"ļ":{"x_min":26.390625,"x_max":356.9375,"ha":386,"o":"m 356 0 l 356 20 b 252 120 268 26 252 44 l 252 943 l 245 948 b 26 887 173 925 122 911 l 26 865 b 77 868 48 868 66 868 b 136 779 122 868 136 845 l 136 127 b 29 20 136 51 116 27 l 29 0 l 356 0 m 136 -388 b 291 -172 231 -343 291 -255 b 180 -51 291 -100 243 -51 b 97 -130 130 -51 97 -83 b 177 -201 97 -177 126 -201 b 218 -195 193 -201 206 -195 b 237 -213 229 -195 237 -204 b 122 -362 237 -259 198 -311 l 136 -388 "},"𝚤":{"x_min":65.28125,"x_max":326.390625,"ha":386,"o":"m 306 159 b 194 50 247 80 218 50 b 172 70 180 50 172 59 b 184 133 172 84 177 106 l 318 608 l 311 612 b 90 577 170 586 144 581 l 90 555 b 177 522 165 554 177 550 b 165 459 177 511 172 486 l 98 216 b 65 63 76 133 65 91 b 134 -15 65 11 93 -15 b 326 143 205 -15 252 29 l 306 159 "},"𝞀":{"x_min":52.78125,"x_max":675,"ha":710,"o":"m 75 -162 b 52 -284 75 -206 66 -252 l 218 -284 b 241 -153 234 -252 241 -209 l 241 37 b 377 -18 283 0 323 -18 b 570 51 451 -18 520 3 b 675 343 637 115 675 221 b 391 657 675 528 558 657 b 138 524 318 657 208 644 b 75 174 80 421 75 331 l 75 -162 m 501 319 b 369 112 501 214 456 112 b 241 208 309 112 280 143 b 252 397 241 290 241 351 b 377 525 276 500 329 525 b 501 319 459 525 501 457 "},"ò":{"x_min":40.28125,"x_max":652.78125,"ha":694,"o":"m 461 704 l 259 909 b 200 941 236 934 220 941 b 150 897 169 941 150 926 b 191 837 150 875 165 854 l 405 704 l 461 704 m 652 320 b 352 638 652 512 522 638 b 40 316 165 638 40 509 b 340 -13 40 123 172 -13 b 652 320 527 -13 652 127 m 527 283 b 363 25 527 122 466 25 b 238 94 313 25 269 50 b 165 379 187 169 165 269 b 326 600 165 518 230 600 b 458 530 386 600 425 572 b 527 283 502 473 527 377 "},"𝜥":{"x_min":58.328125,"x_max":1165.28125,"ha":1104,"o":"m 1165 929 l 818 929 l 812 897 l 845 897 b 888 868 873 897 888 883 b 868 836 888 858 880 847 l 530 561 l 527 561 l 583 808 b 695 897 595 861 615 897 l 733 897 l 741 929 l 259 929 l 254 897 l 305 897 b 386 847 365 897 386 879 b 380 815 386 837 383 826 l 220 116 b 106 31 208 62 194 31 l 65 31 l 58 0 l 550 0 l 556 31 l 504 31 b 423 84 441 31 425 47 b 425 113 423 94 423 106 l 491 406 l 683 118 b 705 62 690 108 705 84 b 665 31 705 43 694 31 l 625 31 l 619 0 l 1075 0 l 1080 31 b 893 136 998 31 958 40 l 627 530 l 972 809 b 1159 897 1037 862 1081 897 l 1165 929 "},"^":{"x_min":33.328125,"x_max":619.4375,"ha":651,"o":"m 619 412 l 368 919 l 284 919 l 33 412 l 127 412 l 326 813 l 525 412 l 619 412 "},"𝖫":{"x_min":102.78125,"x_max":758.328125,"ha":776,"o":"m 758 102 l 223 102 l 223 919 l 102 919 l 102 0 l 733 0 l 758 102 "},"𝞶":{"x_min":56.9375,"x_max":784.71875,"ha":729,"o":"m 612 630 l 602 616 b 605 587 604 606 605 597 b 276 180 605 409 445 230 l 273 180 l 387 641 l 220 641 l 56 -19 l 93 -19 b 784 623 450 -19 784 351 b 780 656 784 637 783 647 l 612 630 "},"𝐻":{"x_min":52.78125,"x_max":1281.953125,"ha":1213,"o":"m 1281 906 l 823 906 l 818 884 l 845 884 b 951 830 925 884 951 863 b 945 797 951 820 948 811 l 872 495 l 486 495 l 558 797 b 704 884 569 845 594 884 l 729 884 l 734 906 l 276 906 l 270 884 l 298 884 b 406 830 384 884 406 859 b 401 797 406 820 404 805 l 230 108 b 83 22 219 61 187 22 l 58 22 l 52 0 l 511 0 l 516 22 l 488 22 b 381 75 406 22 381 41 b 387 108 381 86 384 100 l 472 444 l 861 444 l 776 108 b 630 22 763 56 730 22 l 605 22 l 600 0 l 1056 0 l 1062 22 l 1036 22 b 927 69 954 22 927 40 b 933 108 927 83 930 95 l 1104 797 b 1251 884 1116 845 1145 884 l 1276 884 l 1281 906 "},"𝖺":{"x_min":49.03125,"x_max":543.484375,"ha":622,"o":"m 543 0 b 529 105 535 38 529 75 l 529 452 b 304 643 529 573 439 643 b 62 462 196 643 89 597 l 130 419 l 151 419 b 301 544 175 486 214 544 b 419 454 371 544 419 508 l 419 408 b 49 140 155 356 49 270 b 211 -13 49 36 115 -13 b 418 61 280 -13 358 6 l 425 0 l 543 0 m 419 183 b 239 84 357 112 292 84 b 158 155 183 84 158 111 b 228 248 158 197 178 222 b 419 308 268 270 336 294 l 419 183 "},"ū":{"x_min":12.5,"x_max":666.671875,"ha":694,"o":"m 562 704 l 562 779 l 130 779 l 130 704 l 562 704 m 666 69 l 658 69 b 579 148 594 69 579 84 l 579 624 l 359 624 l 359 601 b 462 511 443 595 462 584 l 462 190 b 430 109 462 141 452 129 b 313 66 395 79 354 66 b 215 176 259 66 215 112 l 215 624 l 12 624 l 12 605 b 98 512 79 601 98 581 l 98 163 b 268 -14 98 56 161 -14 b 466 105 319 -14 398 12 l 469 105 l 469 -8 l 476 -12 b 666 49 545 15 595 30 l 666 69 "},"𝘹":{"x_min":41.671875,"x_max":755.5625,"ha":669,"o":"m 755 629 l 625 629 l 438 419 l 344 629 l 213 629 l 347 331 l 41 0 l 172 0 l 387 243 l 497 0 l 627 0 l 477 327 l 755 629 "},"𝑣":{"x_min":100,"x_max":665.28125,"ha":703,"o":"m 343 630 l 337 636 b 120 577 268 605 193 595 l 120 556 b 200 529 138 556 200 556 b 193 494 200 517 195 505 l 112 202 b 100 116 104 174 100 145 b 261 -12 100 15 172 -12 b 530 131 363 -12 470 48 b 665 520 611 242 665 383 b 600 636 665 565 658 636 b 525 577 559 636 525 624 b 609 426 525 516 609 529 b 588 323 609 391 600 356 b 297 41 544 198 447 41 b 213 133 241 41 213 80 b 219 177 213 148 215 163 l 343 630 "},"𝒯":{"x_min":59.71875,"x_max":1259.71875,"ha":1267,"o":"m 1244 937 b 1087 880 1198 906 1145 880 b 609 953 948 880 762 953 b 177 656 359 953 177 835 b 387 456 177 531 273 456 b 688 751 544 456 652 563 l 661 751 b 397 498 611 594 533 498 b 234 666 311 498 234 555 b 530 890 234 785 356 890 b 1015 810 659 890 863 810 b 1259 912 1105 810 1197 860 l 1244 937 m 913 767 b 630 384 802 673 725 587 b 255 22 504 112 409 22 b 108 109 168 22 113 60 l 111 109 b 150 92 119 95 138 92 b 212 160 188 92 212 124 b 144 228 212 198 181 228 b 59 126 95 228 59 192 b 265 -21 59 42 152 -21 b 525 62 365 -21 445 9 b 773 422 643 140 731 274 b 931 748 816 573 858 676 l 913 767 "},"č":{"x_min":35.046875,"x_max":572.546875,"ha":617,"o":"m 550 936 l 501 936 l 333 793 l 166 936 l 118 936 l 289 704 l 378 704 l 550 936 m 553 216 b 357 86 486 119 436 86 b 141 356 229 86 141 197 b 330 598 141 501 218 598 b 412 531 380 598 398 583 l 421 501 b 487 437 432 461 457 437 b 553 495 523 437 553 463 b 339 638 553 573 455 638 b 151 568 273 638 207 613 b 35 294 76 505 35 409 b 298 -13 35 115 144 -13 b 458 44 358 -13 411 5 b 572 204 500 77 528 118 l 553 216 "},"’":{"x_min":109.71875,"x_max":302.78125,"ha":463,"o":"m 147 601 b 302 815 240 647 302 731 b 191 938 302 884 254 938 b 109 859 143 938 109 906 b 191 788 109 815 140 788 b 219 791 201 788 211 790 b 229 794 226 794 229 794 b 248 776 240 794 248 786 b 134 627 248 729 209 679 l 147 601 "},"𝟤":{"x_min":48.609375,"x_max":651.390625,"ha":694,"o":"m 651 98 l 245 98 l 468 375 b 619 681 584 520 619 572 b 345 938 619 820 511 938 b 51 661 201 938 80 826 l 151 637 b 336 840 170 776 258 840 b 509 659 441 840 509 775 b 369 419 509 583 454 519 l 291 325 l 291 326 l 48 29 l 48 0 l 611 0 l 651 98 "},"Q":{"x_min":47.21875,"x_max":973.609375,"ha":1003,"o":"m 973 -245 l 973 -220 b 591 -9 815 -211 693 -154 b 805 88 686 8 744 29 b 955 462 906 186 955 297 b 501 938 955 750 766 938 b 47 461 241 938 47 755 b 152 138 47 336 86 227 b 368 -1 205 68 259 36 l 425 -73 b 906 -245 519 -193 690 -245 l 973 -245 m 797 469 b 708 130 797 330 763 194 b 501 30 656 70 587 30 b 286 138 422 30 331 72 b 205 465 233 212 205 331 b 297 790 205 597 241 725 b 497 888 348 852 422 888 b 670 826 562 888 620 868 b 797 469 750 759 797 629 "},"𝗭":{"x_min":34.71875,"x_max":865.28125,"ha":907,"o":"m 865 141 l 315 141 l 834 916 l 834 938 l 105 938 l 87 797 l 551 797 l 34 22 l 34 0 l 844 0 l 865 141 "},"𝓁":{"x_min":67.21875,"x_max":793.609375,"ha":804,"o":"m 107 540 b 229 500 145 513 188 501 b 174 408 210 469 190 438 b 67 105 108 294 67 181 b 188 -15 67 25 122 -15 b 503 234 275 -15 357 63 l 474 258 b 197 26 339 102 263 26 b 147 86 160 26 147 52 b 346 500 147 179 274 383 b 793 861 590 536 793 715 b 704 954 793 925 763 954 b 257 541 590 954 403 756 b 126 576 215 541 172 544 l 107 540 m 372 550 b 589 844 445 662 521 775 b 703 909 624 880 664 909 b 751 866 735 909 751 893 b 374 548 751 733 592 597 l 372 550 "},"œ":{"x_min":41.671875,"x_max":958.328125,"ha":1003,"o":"m 943 201 b 762 79 877 112 829 79 b 583 384 650 79 593 175 l 936 384 b 888 552 931 469 920 509 b 713 638 850 606 784 638 b 533 533 637 638 590 611 b 322 638 463 611 408 638 b 152 577 255 638 198 618 b 41 302 84 519 41 412 b 327 -13 41 116 159 -13 b 531 118 422 -13 479 22 b 709 -13 573 23 623 -13 b 958 193 818 -13 886 43 l 943 201 m 804 426 l 581 426 b 694 598 583 541 620 598 b 804 463 758 598 804 541 l 804 426 m 476 270 b 333 22 476 109 426 22 b 218 93 283 22 245 45 b 166 354 186 148 166 250 b 211 548 166 444 183 516 b 313 598 237 579 276 598 b 476 270 420 598 476 487 "},"𝗶":{"x_min":69.4375,"x_max":270.828125,"ha":340,"o":"m 270 754 l 270 955 l 69 955 l 69 754 l 270 754 m 255 0 l 255 640 l 81 640 l 81 0 l 255 0 "},"𝕾":{"x_min":74.875,"x_max":1113.765625,"ha":1183,"o":"m 635 669 b 497 727 594 709 549 727 b 265 511 358 727 265 619 b 522 280 265 391 355 280 b 942 538 769 280 806 538 b 1054 436 1022 538 1054 508 b 622 202 1054 241 762 202 b 120 519 391 202 120 241 b 442 813 120 701 263 813 b 829 722 573 813 676 722 b 1065 954 965 722 1027 829 l 1034 973 b 870 909 991 920 917 909 b 535 970 777 909 697 970 b 74 516 263 970 74 734 b 624 -26 74 216 252 -26 b 1113 405 909 -26 1113 188 b 885 643 1113 573 1004 643 b 527 475 687 643 634 475 b 431 569 461 475 431 519 b 541 662 431 641 488 662 b 616 638 570 662 587 658 l 635 669 "},"𝑈":{"x_min":90.28125,"x_max":1076.390625,"ha":979,"o":"m 1076 906 l 711 906 l 705 884 l 731 884 b 836 833 812 884 834 865 b 830 797 836 818 833 806 l 711 309 b 440 47 675 159 594 47 b 240 202 305 47 240 127 b 250 297 240 226 244 276 l 375 797 b 522 884 387 847 412 884 l 545 884 l 551 906 l 95 906 l 90 884 l 115 884 b 219 841 190 884 219 869 b 218 831 219 838 219 834 l 112 373 b 93 241 109 361 93 252 b 401 -18 93 115 179 -18 b 779 302 665 -18 743 155 l 900 797 b 1048 884 912 847 944 884 l 1070 884 l 1076 906 "},"𝙟":{"x_min":-125,"x_max":611.109375,"ha":450,"o":"m 611 955 l 409 955 l 359 754 l 561 754 l 611 955 m 516 641 l 343 641 l 181 -6 b 52 -138 156 -109 108 -138 b -11 -69 19 -138 0 -104 l -36 -69 l -125 -187 b 38 -280 -79 -258 -29 -280 b 351 -22 175 -280 308 -195 l 516 641 "},"𝝺":{"x_min":25,"x_max":722.21875,"ha":769,"o":"m 722 90 l 722 112 b 551 308 630 112 593 166 l 445 663 b 162 961 376 895 279 961 l 93 851 l 93 829 b 311 637 186 829 269 805 l 25 0 l 206 0 l 370 413 l 420 223 b 658 -19 476 13 566 -19 l 722 90 "},"𝚲":{"x_min":12.5,"x_max":936.109375,"ha":982,"o":"m 936 0 l 936 34 b 868 65 908 34 886 44 b 783 233 847 88 819 145 l 484 958 l 445 958 l 150 201 b 90 79 126 141 106 101 b 12 34 72 55 45 40 l 12 0 l 293 0 l 293 34 b 211 50 254 37 227 43 b 183 91 193 58 183 72 b 222 226 183 108 195 152 l 380 662 l 383 662 l 533 273 b 594 84 573 169 594 105 b 533 38 594 58 573 43 l 488 34 l 488 0 l 936 0 "},"𝛢":{"x_min":48.609375,"x_max":951.390625,"ha":996,"o":"m 951 0 l 951 22 l 929 22 b 826 119 870 22 836 51 l 718 926 l 693 926 l 198 125 b 48 22 148 44 97 27 l 48 0 l 351 0 l 351 22 l 311 22 b 251 62 275 22 252 37 b 265 98 251 72 255 87 l 381 293 l 656 293 l 675 136 b 677 106 676 126 677 115 b 577 22 677 51 655 22 l 555 22 l 555 0 l 951 0 m 647 344 l 411 344 l 604 659 l 612 659 l 647 344 "},"𝜡":{"x_min":91.671875,"x_max":1152.78125,"ha":1107,"o":"m 1152 929 l 326 929 l 262 698 l 294 698 b 616 866 362 861 495 866 l 862 866 l 91 0 l 941 0 l 1002 259 l 970 259 b 661 63 923 79 787 63 l 391 63 l 1152 929 "},"𝑸":{"x_min":76.390625,"x_max":1048.625,"ha":1125,"o":"m 134 -155 l 151 -183 b 251 -154 209 -155 244 -154 b 430 -190 287 -154 361 -175 b 633 -214 481 -201 555 -214 b 991 -36 808 -214 912 -137 l 968 -18 b 766 -112 888 -109 813 -112 b 425 -65 654 -112 525 -65 b 393 -66 416 -65 404 -65 l 465 -25 b 1048 598 811 1 1051 278 b 670 951 1047 808 890 951 b 76 320 302 951 76 623 b 355 -15 76 149 191 10 l 134 -155 m 834 665 b 451 41 834 427 705 41 b 291 258 341 41 291 170 b 655 885 291 483 397 885 b 834 665 729 885 834 823 "},"𝑑":{"x_min":55.5625,"x_max":731.953125,"ha":739,"o":"m 731 928 l 515 894 l 520 873 b 558 878 530 875 545 878 b 604 850 594 878 604 868 b 601 833 604 844 602 839 l 527 543 l 525 543 b 412 612 523 576 491 612 b 55 159 198 612 55 303 b 177 -16 55 86 76 -16 b 415 129 229 -16 312 0 l 422 129 b 408 40 411 87 408 68 b 463 -16 408 15 419 -16 b 644 129 529 -16 602 66 l 629 146 b 543 68 609 116 570 68 b 522 80 529 68 522 72 b 525 97 522 84 523 93 l 731 928 m 504 472 b 481 326 504 429 497 375 b 254 68 443 198 351 68 b 176 159 215 68 176 91 b 426 571 176 293 288 571 b 504 472 483 571 504 537 "},"𝘐":{"x_min":81.9375,"x_max":711.109375,"ha":557,"o":"m 711 919 l 311 919 l 265 816 l 419 816 l 241 102 l 87 102 l 81 0 l 481 0 l 519 102 l 365 102 l 543 816 l 697 816 l 711 919 "},"𝘏":{"x_min":102.78125,"x_max":1040.28125,"ha":914,"o":"m 1040 919 l 919 919 l 819 520 l 352 520 l 452 919 l 331 919 l 102 0 l 223 0 l 327 418 l 794 418 l 690 0 l 811 0 l 1040 919 "},"𝚩":{"x_min":22.21875,"x_max":859.71875,"ha":926,"o":"m 591 506 b 812 716 754 540 812 611 b 462 938 812 859 686 938 l 22 938 l 22 904 b 144 791 116 897 144 873 l 144 143 b 22 34 144 65 123 45 l 22 0 l 479 0 b 859 261 726 0 859 112 b 591 505 859 393 744 486 l 591 506 m 366 822 b 445 897 366 876 390 897 b 583 706 540 897 583 829 b 366 518 583 570 540 518 l 366 822 m 366 476 l 402 476 b 620 261 550 476 620 402 b 454 44 620 120 562 44 b 366 136 393 44 366 69 l 366 476 "},"𝔹":{"x_min":97.21875,"x_max":869.453125,"ha":939,"o":"m 97 919 l 97 0 l 538 0 b 869 265 719 0 869 58 b 736 481 869 358 825 445 b 844 672 809 518 844 593 b 488 919 844 870 651 919 l 97 919 m 681 829 b 783 669 748 795 783 744 b 681 513 783 588 752 545 l 681 829 m 620 512 b 529 508 590 509 559 508 l 327 508 l 327 858 l 538 858 b 620 841 565 858 595 851 l 620 512 m 681 441 b 808 262 765 422 808 344 b 681 72 808 166 773 105 l 681 441 m 620 72 b 540 61 594 65 566 61 l 327 61 l 327 447 l 529 447 b 620 443 559 447 590 445 l 620 72 m 266 61 l 158 61 l 158 858 l 266 858 l 266 61 "},"𝝬":{"x_min":55.5625,"x_max":972.21875,"ha":1028,"o":"m 972 0 l 615 476 l 951 938 l 737 938 l 506 622 l 270 938 l 56 938 l 401 476 l 55 0 l 269 0 l 509 331 l 758 0 l 972 0 "},"¯":{"x_min":15.28125,"x_max":447.21875,"ha":463,"o":"m 447 759 l 447 834 l 15 834 l 15 759 l 447 759 "},"𝜎":{"x_min":55.5625,"x_max":759.71875,"ha":746,"o":"m 759 594 l 416 594 b 55 206 236 594 55 443 b 252 -15 55 106 109 -15 b 608 294 454 -15 608 138 b 491 493 608 398 522 405 l 731 493 l 759 594 m 397 493 b 497 313 443 465 497 402 b 258 26 497 201 395 26 b 168 168 183 26 168 123 b 394 493 168 365 301 484 l 397 493 "},"𝜳":{"x_min":41.671875,"x_max":1084.71875,"ha":964,"o":"m 1084 950 l 1038 950 b 784 756 902 950 829 879 b 727 550 761 688 756 615 b 555 431 695 476 638 431 l 643 808 b 809 897 665 901 730 897 l 818 929 l 315 929 l 306 897 b 341 898 316 898 329 898 b 441 837 387 898 441 891 b 437 808 441 827 440 818 l 351 431 b 227 526 290 434 227 455 b 245 613 227 556 237 586 b 269 755 259 659 269 706 b 94 951 269 866 213 951 l 48 951 l 41 919 b 95 831 80 918 95 863 b 44 570 95 741 44 661 b 336 366 44 425 213 366 l 281 131 b 141 31 262 45 225 31 l 109 31 l 102 0 l 605 0 l 612 31 l 588 31 b 477 79 545 31 477 36 b 486 129 477 95 481 112 l 540 366 b 894 522 677 366 812 402 b 970 741 937 584 954 669 b 1077 918 983 795 1004 918 l 1084 950 "},"𝗽":{"x_min":76.390625,"x_max":676.390625,"ha":711,"o":"m 237 576 l 237 640 l 76 640 l 76 -284 l 100 -284 l 243 -232 l 243 37 b 379 -18 284 0 326 -18 b 573 53 452 -18 519 1 b 676 344 641 118 676 229 b 547 624 676 474 631 574 b 425 657 509 646 466 657 b 240 576 356 657 288 631 l 237 576 m 243 403 b 379 525 270 474 308 525 b 502 319 461 525 502 457 b 370 112 502 214 458 112 b 243 208 311 112 281 143 l 243 403 "},"𝚝":{"x_min":34.71875,"x_max":622.21875,"ha":729,"o":"m 622 240 b 588 273 622 258 606 273 l 575 273 b 541 240 556 273 541 258 l 541 181 b 420 80 541 127 488 80 b 300 181 337 80 300 119 l 300 536 l 556 536 b 590 569 575 536 590 551 l 590 591 b 556 625 590 609 575 625 l 300 625 l 300 770 b 266 805 300 790 284 805 l 252 805 b 219 770 233 805 219 790 l 219 625 l 68 625 b 34 591 50 625 34 609 l 34 569 b 68 536 34 551 50 536 l 219 536 l 219 181 b 394 -8 219 66 283 -8 b 622 181 505 -8 622 62 l 622 240 "},"𝕓":{"x_min":69.4375,"x_max":727.78125,"ha":785,"o":"m 275 556 l 275 948 l 69 948 l 69 0 l 275 0 l 275 59 l 279 59 b 465 -13 325 1 391 -13 b 727 316 640 -13 727 162 b 462 638 727 476 640 638 b 277 556 394 638 320 612 l 275 556 m 583 531 b 666 316 648 486 666 390 b 583 97 666 240 645 147 l 583 531 m 522 68 b 438 47 501 52 463 47 b 275 215 351 47 275 129 l 275 415 b 445 577 275 501 361 577 b 522 554 472 577 500 576 l 522 68 m 213 61 l 130 61 l 130 887 l 213 887 l 213 61 "},"𝔥":{"x_min":66.671875,"x_max":661.109375,"ha":733,"o":"m 661 493 b 518 650 661 550 602 620 l 498 650 l 300 556 l 300 676 b 509 937 300 794 362 937 l 509 961 b 455 965 491 965 466 965 b 223 819 334 965 262 887 b 102 947 198 858 154 911 l 83 929 b 158 719 122 886 158 813 l 158 177 b 66 94 158 113 125 102 l 66 73 b 311 -25 176 56 272 1 l 330 -25 l 472 173 l 444 195 b 379 119 431 176 386 119 l 300 161 l 300 511 b 425 563 340 530 415 563 b 469 534 433 563 454 548 b 519 394 501 505 519 459 l 519 36 b 401 -269 519 -125 468 -191 l 420 -290 b 661 115 554 -191 661 -31 l 661 493 "},"𝛀":{"x_min":48.609375,"x_max":1004.171875,"ha":1081,"o":"m 363 130 l 165 130 b 94 237 105 130 94 159 l 59 237 l 59 0 l 479 0 l 469 215 b 280 543 347 244 280 387 b 526 915 280 715 366 915 b 772 540 690 915 772 715 b 583 215 772 386 705 244 l 573 0 l 993 0 l 993 237 l 958 237 b 880 130 958 161 943 130 l 688 130 l 691 170 b 1004 531 859 215 1004 351 b 526 961 1004 761 800 961 b 48 536 251 961 48 761 b 361 170 48 354 183 201 l 363 130 "},"é":{"x_min":34.71875,"x_max":588.890625,"ha":617,"o":"m 161 704 l 216 704 l 430 838 b 472 897 459 856 472 875 b 423 941 472 925 454 941 b 365 909 402 941 390 934 l 161 704 m 566 227 b 352 81 498 125 445 81 b 198 158 288 81 237 106 b 134 384 148 225 141 279 l 562 384 b 515 543 556 459 543 504 b 322 638 470 605 408 638 b 34 301 147 638 34 497 b 298 -13 34 109 134 -13 b 588 218 437 -13 534 66 l 566 227 m 137 429 b 284 588 152 533 206 588 b 420 429 376 588 405 541 l 137 429 "},"Ş":{"x_min":59.71875,"x_max":681.953125,"ha":772,"o":"m 312 -137 l 322 -144 b 361 -138 333 -140 344 -138 b 434 -188 413 -138 434 -152 b 358 -250 434 -226 405 -250 b 268 -233 329 -250 305 -245 l 248 -276 b 365 -298 288 -293 322 -298 b 538 -181 472 -298 538 -254 b 419 -86 538 -120 494 -86 b 383 -90 405 -86 397 -87 l 411 -19 b 681 240 565 -13 681 88 b 466 512 681 345 613 426 b 218 750 320 597 218 655 b 358 881 218 826 272 881 b 559 773 441 881 511 836 b 616 643 584 740 600 704 l 651 643 l 620 938 l 591 938 b 547 891 586 908 570 891 b 486 908 533 891 511 897 b 340 938 433 930 397 938 b 98 695 202 938 98 847 b 268 456 98 609 143 523 b 501 295 356 409 452 348 b 541 186 527 266 541 234 b 376 30 541 94 473 30 b 90 276 244 30 154 108 l 59 276 l 100 -18 l 130 -18 b 169 27 130 11 148 27 b 234 12 184 27 208 23 b 362 -18 275 -5 318 -15 l 312 -137 "},"𝛳":{"x_min":69.4375,"x_max":988.890625,"ha":1024,"o":"m 988 548 b 641 929 988 740 894 929 b 69 308 287 929 69 590 b 419 -15 69 116 212 -15 b 988 548 756 -15 988 284 m 270 511 b 630 877 318 693 420 877 b 827 616 772 877 827 763 b 819 511 827 584 825 548 l 270 511 m 798 405 b 430 37 751 222 637 37 b 237 244 322 37 237 106 b 250 405 237 287 240 344 l 798 405 "},"𝛙":{"x_min":16.671875,"x_max":1043.0625,"ha":1060,"o":"m 1043 656 l 975 656 b 791 579 887 656 826 630 b 745 348 761 534 745 458 b 726 105 745 236 738 155 b 650 23 712 51 686 23 l 626 23 l 626 640 l 433 640 l 433 23 l 409 23 b 340 84 377 23 355 44 b 313 348 322 133 313 220 b 277 556 313 440 302 509 b 84 656 243 623 179 656 l 16 656 l 16 622 b 126 462 88 606 126 552 l 109 287 b 186 76 109 202 134 133 b 402 -19 243 12 315 -19 l 433 -19 l 433 -284 l 626 -284 l 626 -19 l 656 -19 b 851 54 731 -19 797 5 b 951 263 911 106 951 177 b 950 287 951 270 951 279 l 934 462 b 933 484 933 469 933 477 b 1043 622 933 565 976 612 l 1043 656 "},"H":{"x_min":25,"x_max":976.390625,"ha":1003,"o":"m 976 0 l 976 26 b 852 154 872 34 852 55 l 852 761 b 976 893 852 868 873 884 l 976 919 l 587 919 l 587 893 b 711 761 693 884 711 870 l 711 498 l 290 498 l 290 761 b 413 893 290 869 312 884 l 413 919 l 25 919 l 25 893 b 148 761 131 884 148 869 l 148 169 b 25 26 148 50 133 33 l 25 0 l 412 0 l 411 26 b 290 156 308 31 290 55 l 290 437 l 711 437 l 711 172 b 588 26 711 55 697 33 l 588 0 l 976 0 "},"î":{"x_min":-23.609375,"x_max":408.328125,"ha":386,"o":"m 408 704 l 234 936 l 148 936 l -23 704 l 23 704 l 191 847 l 361 704 l 408 704 m 305 0 l 305 20 b 202 145 213 27 202 43 l 202 633 l 195 638 l -18 562 l -18 540 b 40 547 6 547 27 547 b 86 459 75 547 86 525 l 86 144 b -23 20 86 38 72 26 l -23 0 l 305 0 "},"𝞘":{"x_min":69.4375,"x_max":701.390625,"ha":604,"o":"m 701 938 l 302 938 l 248 797 l 373 797 l 209 141 l 84 141 l 69 0 l 468 0 l 515 141 l 390 141 l 554 797 l 679 797 l 701 938 "},"𝓎":{"x_min":41.671875,"x_max":856.953125,"ha":914,"o":"m 856 589 l 748 589 b 255 26 591 264 387 26 b 209 71 223 26 209 44 b 240 179 209 104 222 147 l 461 589 l 356 589 b 125 452 304 529 216 452 b 55 469 101 452 79 458 l 41 433 b 122 411 66 418 94 411 b 295 475 181 411 243 430 l 201 300 b 137 107 161 225 137 161 b 244 -15 137 23 184 -15 b 537 171 337 -15 433 51 l 541 169 l 404 -76 b 277 -58 376 -65 305 -58 b 118 -94 227 -58 169 -62 b 43 -204 80 -116 43 -153 b 179 -303 43 -252 86 -303 b 461 -145 290 -303 384 -257 b 602 -175 497 -161 554 -175 b 765 -128 654 -175 701 -168 l 748 -93 b 609 -134 706 -123 651 -134 b 484 -102 566 -134 522 -121 b 619 133 531 -30 575 47 l 856 589 m 383 -119 b 168 -256 306 -241 220 -256 b 90 -199 122 -256 90 -232 b 265 -99 90 -141 159 -99 b 381 -117 298 -99 354 -105 l 383 -119 "},"𝕸":{"x_min":69.4375,"x_max":1501.390625,"ha":1574,"o":"m 1473 166 b 1377 104 1450 140 1420 104 b 1338 313 1348 104 1338 205 b 1475 697 1338 529 1370 641 l 1475 725 b 1283 941 1337 727 1393 879 b 1158 973 1247 962 1204 973 b 952 897 1084 973 1015 951 b 759 973 913 952 859 973 b 568 891 695 973 637 944 b 347 970 518 943 436 970 b 193 938 287 970 238 961 b 69 758 122 902 69 844 b 172 491 69 627 172 609 b 94 373 172 431 129 386 l 105 340 b 369 572 287 368 369 455 b 266 850 369 681 266 730 b 333 925 266 906 298 925 b 440 606 416 925 440 722 b 411 168 440 413 440 168 b 236 268 393 168 268 248 l 80 -4 l 111 -23 b 180 50 150 22 170 40 b 343 -34 219 29 284 -1 b 552 269 426 62 506 186 b 669 572 590 337 669 455 b 611 848 669 695 654 761 b 700 904 637 884 666 904 b 829 609 783 904 829 725 b 787 173 829 416 816 173 b 640 270 769 173 672 251 l 483 -4 l 513 -23 b 584 52 552 22 575 43 b 733 -34 623 31 675 -1 b 943 272 816 62 897 188 b 1045 575 980 340 1045 458 b 987 851 1045 698 1030 763 b 1076 904 1015 888 1043 904 b 1350 668 1193 904 1136 668 l 1350 665 b 1120 254 1218 537 1120 422 b 1277 -19 1120 122 1173 18 l 1311 -19 b 1501 143 1384 11 1470 100 l 1473 166 "},"𝘆":{"x_min":25,"x_max":631.9375,"ha":656,"o":"m 631 640 l 450 640 l 338 258 l 336 258 l 206 640 l 25 640 l 259 -9 b 129 -152 229 -112 188 -152 b 47 -118 106 -152 79 -147 l 25 -118 l 25 -254 b 126 -284 51 -275 91 -284 b 381 -48 254 -284 322 -212 l 631 640 "},"𝖣":{"x_min":102.78125,"x_max":911.109375,"ha":961,"o":"m 102 919 l 102 0 l 401 0 b 911 454 744 0 911 218 b 333 919 911 748 734 919 l 102 919 m 223 102 l 223 816 l 306 816 b 654 738 462 816 563 801 b 787 455 751 672 787 583 b 630 158 787 319 738 215 b 291 102 537 109 452 102 l 223 102 "},"𝛴":{"x_min":80.5625,"x_max":1055.5625,"ha":1021,"o":"m 1055 906 l 313 906 l 605 454 l 80 0 l 866 0 l 981 265 l 959 265 b 738 113 909 161 845 113 l 301 113 l 741 501 l 518 855 l 802 855 b 981 726 891 855 981 852 b 977 686 981 712 981 695 l 1000 686 l 1055 906 "},"𝚚":{"x_min":62.5,"x_max":736.109375,"ha":729,"o":"m 736 -251 b 702 -218 736 -232 720 -218 l 612 -218 l 612 599 b 579 632 612 617 597 632 l 565 632 b 531 599 545 632 531 617 l 531 546 b 337 632 483 599 413 632 b 62 312 180 632 62 482 b 325 -8 62 142 173 -8 b 531 95 411 -8 481 32 l 531 -218 l 441 -218 b 408 -251 423 -218 408 -232 l 408 -274 b 441 -307 408 -292 423 -307 l 702 -307 b 736 -274 720 -307 736 -292 l 736 -251 m 531 262 b 343 80 512 157 437 80 b 143 312 237 80 143 180 b 358 544 143 442 241 544 b 531 394 445 544 518 478 l 531 262 "},"†":{"x_min":81.9375,"x_max":613.890625,"ha":694,"o":"m 333 -206 l 363 -206 l 363 -36 b 420 351 363 130 383 254 b 363 608 380 394 363 472 b 488 577 412 604 431 600 b 562 561 518 566 544 561 b 613 620 591 561 613 586 b 561 681 613 655 590 681 b 491 663 544 681 519 675 b 363 633 433 640 415 634 b 395 811 363 708 368 740 b 413 876 406 838 413 861 b 348 938 413 908 381 938 b 283 876 315 938 283 908 b 300 811 283 861 288 838 b 333 633 327 740 333 709 b 204 663 283 634 263 640 b 136 681 176 675 152 681 b 81 620 105 681 81 655 b 143 561 81 581 102 561 b 206 577 159 561 173 565 b 333 608 262 600 284 604 b 275 351 333 470 316 394 b 333 -36 309 256 333 90 l 333 -206 "},"𝞿":{"x_min":76.390625,"x_max":915.28125,"ha":949,"o":"m 363 112 b 252 227 291 112 252 148 b 266 323 252 254 256 286 b 423 543 279 377 319 494 l 427 559 l 351 640 b 76 209 184 583 76 348 b 329 -19 76 84 144 -19 l 262 -284 l 429 -284 l 495 -19 b 915 425 784 -19 915 236 b 730 657 915 577 820 657 b 398 254 502 657 447 452 l 363 112 m 572 294 b 698 525 602 419 633 525 b 752 459 737 525 752 504 b 729 320 752 426 744 380 b 527 112 694 181 623 112 l 572 294 "},"𝒓":{"x_min":45.828125,"x_max":588.890625,"ha":613,"o":"m 356 649 l 88 601 l 93 562 b 150 578 123 574 136 578 b 172 557 159 578 172 574 b 168 528 172 549 169 539 l 45 0 l 204 0 l 231 111 b 408 499 240 144 350 499 b 476 446 430 499 419 446 b 588 565 554 446 588 515 b 502 642 588 601 561 642 b 329 522 427 642 369 583 l 356 649 "},"°":{"x_min":79.171875,"x_max":476.390625,"ha":556,"o":"m 476 740 b 280 938 476 850 388 938 b 79 741 166 938 79 852 b 277 541 79 629 165 541 b 476 740 388 541 476 629 m 422 741 b 277 588 422 658 356 588 b 133 740 198 588 133 656 b 275 891 133 822 198 891 b 422 741 355 891 422 823 "},"‸":{"x_min":81.9375,"x_max":630.5625,"ha":710,"o":"m 630 -191 l 361 141 l 347 141 l 81 -191 l 109 -216 l 354 72 l 600 -216 l 630 -191 "},"𝜮":{"x_min":88.890625,"x_max":1093.0625,"ha":1054,"o":"m 1093 929 l 304 929 l 605 469 l 88 0 l 918 0 l 1023 277 l 988 277 b 765 150 934 176 879 150 l 390 150 l 787 519 l 566 866 l 861 866 b 1011 765 934 866 1011 856 b 1006 695 1011 741 1011 719 l 1038 695 l 1093 929 "},"𝖵":{"x_min":43.0625,"x_max":865.28125,"ha":908,"o":"m 865 919 l 731 919 l 455 227 l 176 919 l 43 919 l 436 -15 l 472 -15 l 865 919 "},"𝕗":{"x_min":34.71875,"x_max":598.609375,"ha":511,"o":"m 598 883 b 408 948 541 933 483 948 b 150 683 234 948 150 852 l 150 625 l 34 625 l 34 563 l 150 563 l 150 0 l 355 0 l 355 563 l 473 563 l 473 625 l 355 625 l 355 880 b 416 887 375 884 395 887 b 555 840 466 887 518 875 l 598 883 m 294 61 l 211 61 l 211 723 b 294 866 211 786 229 845 l 294 61 "},"𝑿":{"x_min":38.890625,"x_max":1152.78125,"ha":1122,"o":"m 1152 929 l 791 929 l 786 897 l 829 897 b 868 862 856 897 868 881 b 854 825 868 848 862 834 l 663 600 l 590 815 b 579 859 584 831 579 847 b 626 897 579 884 594 897 l 680 897 l 686 929 l 244 929 l 238 897 l 276 897 b 393 786 347 897 376 831 l 516 456 l 241 138 b 44 31 188 77 127 41 l 38 0 l 434 0 l 440 31 l 381 31 b 327 77 348 31 327 52 b 338 108 327 87 330 98 l 552 356 l 640 119 b 647 81 645 105 647 93 b 579 31 647 48 625 31 l 540 31 l 536 0 l 975 0 l 980 31 l 930 31 b 844 125 883 31 865 69 l 708 500 l 954 794 b 1115 897 1001 850 1027 897 l 1148 897 l 1152 929 "},"𝗉":{"x_min":93.0625,"x_max":652.78125,"ha":692,"o":"m 197 638 l 186 645 l 93 611 l 93 -292 l 105 -299 l 202 -266 l 202 36 b 351 -13 251 1 304 -13 b 652 339 518 -13 652 141 b 516 611 652 460 594 563 b 390 643 479 635 431 643 b 200 568 326 643 251 618 l 197 638 m 202 410 b 362 544 233 492 298 544 b 543 319 477 544 543 442 b 345 84 543 189 469 84 b 202 171 291 84 240 111 l 202 410 "},"ŵ":{"x_min":29.171875,"x_max":963.890625,"ha":1003,"o":"m 733 704 l 559 936 l 473 936 l 301 704 l 348 704 l 516 847 l 686 704 l 733 704 m 963 625 l 793 625 l 793 604 b 854 562 840 594 854 584 b 830 469 854 540 845 506 l 705 161 l 588 472 b 565 555 572 515 565 531 b 645 604 565 584 580 594 l 645 625 l 363 625 l 363 604 b 459 508 415 598 433 583 l 487 430 l 361 154 l 223 516 b 215 558 218 530 215 544 b 279 604 215 587 230 598 l 279 625 l 29 625 l 29 604 b 102 516 61 601 73 591 l 290 41 b 326 -19 306 -1 318 -19 b 361 34 333 -19 344 -1 l 516 368 l 643 40 b 676 -19 663 -12 666 -19 b 715 48 686 -19 693 -6 l 906 529 b 963 604 929 584 936 594 l 963 625 "},"※":{"x_min":67.1875,"x_max":882.640625,"ha":951,"o":"m 856 352 b 767 440 856 400 815 440 b 678 352 718 440 678 400 b 767 263 678 303 718 263 b 856 352 815 263 856 303 m 565 642 b 477 731 565 690 525 731 b 388 642 428 731 388 690 b 477 553 388 593 428 553 b 565 642 525 553 565 593 m 882 7 l 540 352 l 882 696 l 818 760 l 475 417 l 131 760 l 67 696 l 410 352 l 67 7 l 131 -56 l 475 286 l 818 -56 l 882 7 m 565 61 b 477 150 565 110 525 150 b 388 61 428 150 388 110 b 477 -27 388 13 428 -27 b 565 61 525 -27 565 13 m 274 352 b 185 440 274 400 233 440 b 96 352 136 440 96 400 b 185 263 96 303 136 263 b 274 352 233 263 274 303 "},"𝔠":{"x_min":79.171875,"x_max":477.78125,"ha":535,"o":"m 477 533 l 387 650 l 368 650 b 265 608 330 641 300 630 b 79 272 97 505 79 437 b 212 -25 79 166 101 47 l 231 -25 l 469 66 l 456 98 b 331 62 405 70 362 62 b 256 97 302 62 272 76 b 220 294 220 144 220 230 l 220 377 b 248 538 220 436 220 502 b 276 561 261 554 269 556 l 361 455 l 477 533 "},"𝑄":{"x_min":69.4375,"x_max":1015.28125,"ha":1085,"o":"m 115 -159 l 130 -176 b 211 -151 168 -158 200 -151 b 397 -188 252 -151 327 -173 b 594 -210 448 -199 520 -210 b 937 -45 758 -210 855 -147 l 919 -30 b 730 -122 850 -104 784 -122 b 390 -74 609 -122 480 -74 b 330 -80 372 -74 352 -76 l 325 -73 l 413 -13 b 1015 583 754 -13 1015 300 b 683 926 1015 798 886 926 b 69 308 330 926 69 591 b 343 -10 69 125 184 12 l 115 -159 m 850 648 b 418 37 850 430 719 37 b 236 244 306 37 236 109 b 669 875 236 436 361 875 b 850 648 759 875 850 832 "},"⁐":{"x_min":76.390625,"x_max":1020.828125,"ha":1097,"o":"m 1020 640 b 547 959 972 850 762 959 b 76 640 333 959 125 850 l 168 616 b 544 868 193 768 347 868 b 929 616 741 868 900 765 l 1020 640 m 926 288 b 544 34 894 123 741 34 b 169 288 347 34 197 123 l 76 265 b 545 -55 125 54 331 -55 b 1018 265 761 -55 969 54 l 926 288 "},"𝚃":{"x_min":36.109375,"x_max":688.890625,"ha":729,"o":"m 688 886 b 655 919 688 904 673 919 l 69 919 b 36 886 51 919 36 904 l 36 731 b 69 698 36 713 51 698 l 83 698 b 116 731 102 698 116 713 l 116 830 l 322 830 l 322 88 l 227 88 b 194 55 209 88 194 73 l 194 33 b 227 0 194 15 209 0 l 497 0 b 530 33 515 0 530 15 l 530 55 b 497 88 530 73 515 88 l 402 88 l 402 830 l 608 830 l 608 731 b 641 698 608 713 623 698 l 655 698 b 688 731 673 698 688 713 l 688 886 "},"𝒶":{"x_min":41.890625,"x_max":1052.65625,"ha":1138,"o":"m 1023 269 b 722 30 873 81 769 30 b 645 111 688 30 645 44 b 660 198 645 130 645 144 b 813 401 738 270 813 352 b 776 440 813 431 798 440 b 623 227 688 440 636 299 b 341 26 548 140 444 26 b 287 88 298 26 287 59 b 511 473 287 165 387 348 b 709 570 573 536 644 570 b 826 499 751 570 795 555 l 855 513 b 691 612 817 612 731 612 b 314 390 565 612 413 515 l 314 391 b 134 281 268 337 212 281 b 55 299 108 281 82 288 l 41 263 b 139 240 72 247 105 240 b 237 268 175 240 208 251 b 207 136 218 223 207 179 b 334 -15 207 44 252 -15 b 608 152 429 -15 513 48 l 609 151 b 604 106 605 137 604 122 b 709 -11 604 43 638 -11 b 1052 245 805 -11 922 74 l 1023 269 "},"𝝏":{"x_min":61.109375,"x_max":776.390625,"ha":776,"o":"m 325 870 b 454 895 373 884 418 895 b 668 588 640 895 668 747 b 665 551 668 576 666 563 l 665 540 l 659 540 b 475 637 634 604 544 637 b 61 230 254 637 61 451 b 320 -13 61 77 154 -13 b 776 597 633 -13 776 359 b 493 952 776 841 673 952 b 327 902 437 952 369 937 l 325 870 m 587 406 b 344 41 587 229 472 41 b 222 213 261 41 222 79 b 463 581 222 370 341 581 b 587 406 527 581 587 533 "},"𝐦":{"x_min":20.828125,"x_max":1130.5625,"ha":1157,"o":"m 1130 0 l 1130 33 b 1061 115 1076 36 1061 55 l 1061 459 b 873 656 1061 583 987 656 b 669 536 794 656 741 625 b 491 656 627 623 579 656 b 291 536 402 656 344 620 l 287 536 l 287 640 l 20 640 l 20 606 b 98 518 81 598 98 583 l 98 119 b 22 33 98 62 83 44 l 22 0 l 354 0 l 354 33 b 291 115 305 40 291 62 l 291 477 b 408 563 291 511 376 563 b 483 448 462 563 483 531 l 483 115 b 418 33 483 58 469 37 l 418 0 l 740 0 l 740 33 b 676 115 691 38 676 62 l 676 483 b 713 529 676 490 695 515 b 794 563 743 554 769 563 b 868 431 847 563 868 518 l 868 115 b 801 33 868 56 854 37 l 801 0 l 1130 0 "},"ť":{"x_min":18.0625,"x_max":462.5,"ha":438,"o":"m 306 636 b 462 850 400 681 462 766 b 351 973 462 919 413 973 b 269 894 302 973 269 941 b 351 823 269 850 300 823 b 379 826 361 823 370 825 b 388 829 386 829 388 829 b 408 811 400 829 408 820 b 294 662 408 763 369 713 l 306 636 m 369 106 b 286 58 338 70 316 58 b 213 183 234 58 213 94 l 213 580 l 284 580 l 284 625 l 213 625 l 213 786 b 204 804 213 800 211 804 b 176 765 195 790 184 777 b 41 616 123 688 77 637 b 18 590 26 606 18 598 b 23 580 18 586 19 583 l 97 580 l 97 162 b 219 -13 97 45 138 -13 b 387 91 288 -13 341 19 l 369 106 "},"5":{"x_min":43.0625,"x_max":608.328125,"ha":694,"o":"m 608 945 l 595 955 b 529 919 573 926 561 919 l 241 919 l 90 590 b 88 583 90 590 88 586 b 105 572 88 575 93 572 b 401 475 238 572 336 527 b 494 266 463 425 494 355 b 306 31 494 147 404 31 b 208 76 279 31 247 44 b 105 119 163 112 137 119 b 43 66 66 119 43 101 b 219 -19 43 13 115 -19 b 455 48 313 -19 390 1 b 591 337 550 118 591 204 b 543 513 591 411 579 463 b 195 691 463 623 394 654 l 251 809 l 520 809 b 558 827 543 809 554 818 l 608 945 "},"𝙖":{"x_min":66.671875,"x_max":704.171875,"ha":679,"o":"m 251 427 l 268 427 b 443 525 309 498 362 525 b 529 470 501 525 529 504 b 526 450 529 463 527 456 l 520 427 b 158 318 359 418 237 390 b 66 112 106 270 66 190 b 197 -19 66 26 125 -19 b 426 61 286 -19 350 -2 l 420 0 l 594 0 b 606 105 595 36 598 72 l 698 470 b 704 512 702 486 704 500 b 491 656 704 606 611 656 b 161 488 356 656 230 606 l 251 427 m 466 211 b 312 112 425 152 366 112 b 247 162 286 112 247 122 b 488 295 247 276 401 295 l 466 211 "},"𝖓":{"x_min":55.5625,"x_max":894.453125,"ha":967,"o":"m 894 125 l 868 155 b 797 115 825 120 816 115 b 759 209 775 115 759 143 l 759 451 b 806 530 759 475 759 523 l 806 565 b 651 659 748 568 686 618 l 618 659 l 377 530 b 265 659 373 583 320 631 l 231 659 l 55 538 l 72 509 b 134 530 91 523 118 530 b 193 434 169 530 193 497 l 193 220 b 119 120 193 150 180 127 l 119 86 b 273 -33 183 80 261 56 l 306 -33 b 451 86 320 55 390 80 l 451 120 b 386 220 391 126 386 145 l 386 477 l 491 534 l 566 462 l 566 163 b 681 -33 566 55 591 11 l 715 -33 l 894 125 "},"𝙸":{"x_min":116.671875,"x_max":608.328125,"ha":729,"o":"m 608 55 b 575 88 608 73 593 88 l 402 88 l 404 830 l 575 830 b 608 863 593 830 608 844 l 608 886 b 575 919 608 904 593 919 l 150 919 b 116 886 131 919 116 904 l 116 863 b 150 830 116 844 131 830 l 322 830 l 320 88 l 150 88 b 116 55 131 88 116 73 l 116 33 b 150 0 116 15 131 0 l 575 0 b 608 33 593 0 608 15 l 608 55 "},",":{"x_min":76.390625,"x_max":270.828125,"ha":347,"o":"m 115 -195 b 270 20 211 -150 270 -62 b 159 141 270 93 222 141 b 76 62 109 141 76 109 b 156 -8 76 15 105 -8 b 197 -2 172 -8 186 -2 b 216 -20 208 -2 216 -11 b 101 -169 216 -66 177 -118 l 115 -195 "},"𝟶":{"x_min":76.390625,"x_max":648.609375,"ha":729,"o":"m 648 465 b 362 945 648 730 520 945 b 76 465 204 945 76 730 b 362 -15 76 200 204 -15 b 648 465 520 -15 648 200 m 568 483 b 362 73 568 256 476 73 b 158 483 250 73 158 256 b 362 856 158 690 250 856 b 568 483 476 856 568 690 "},"\"":{"x_min":106.9375,"x_max":459.71875,"ha":567,"o":"m 415 598 b 459 881 436 734 459 840 b 401 938 459 913 434 938 b 341 879 366 938 341 913 b 386 598 341 855 361 734 l 415 598 m 180 598 b 225 881 208 731 225 840 b 166 938 225 915 200 938 b 106 879 131 938 106 915 b 151 598 106 855 126 734 l 180 598 "},"𝑱":{"x_min":91.671875,"x_max":897.21875,"ha":775,"o":"m 897 929 l 394 929 l 390 897 l 443 897 b 520 847 500 897 520 879 b 516 816 520 837 519 827 l 370 173 b 311 44 362 137 341 44 b 284 69 305 44 284 47 b 322 151 284 106 322 105 b 209 231 322 194 266 231 b 91 123 119 231 91 170 b 291 -16 91 48 181 -16 b 455 23 327 -16 404 -11 b 587 229 519 65 565 129 l 720 812 b 841 897 733 869 759 897 l 893 897 l 897 929 "},"ė":{"x_min":34.71875,"x_max":588.890625,"ha":617,"o":"m 402 794 b 333 863 402 833 376 863 b 265 794 291 863 265 831 b 333 726 265 756 295 726 b 402 794 370 726 402 754 m 566 227 b 352 81 498 125 445 81 b 198 158 288 81 237 106 b 134 384 148 225 141 279 l 562 384 b 515 543 556 459 543 504 b 322 638 470 605 408 638 b 34 301 147 638 34 497 b 298 -13 34 109 134 -13 b 588 218 437 -13 534 66 l 566 227 m 137 429 b 284 588 152 533 206 588 b 420 429 376 588 405 541 l 137 429 "},"𝛇":{"x_min":32.4375,"x_max":607.4375,"ha":638,"o":"m 338 961 b 156 819 215 934 156 887 b 181 750 156 791 164 769 b 258 711 199 729 225 715 b 121 538 207 666 161 608 b 32 243 61 437 32 338 b 88 48 32 155 51 90 b 301 -22 129 2 200 -20 l 464 -9 l 475 -9 b 550 -83 525 -9 550 -37 b 526 -147 550 -106 542 -129 b 469 -177 510 -168 490 -177 l 321 -113 b 263 -136 299 -113 278 -122 b 236 -200 244 -152 236 -173 b 265 -255 236 -222 246 -240 b 364 -284 290 -275 322 -284 b 521 -230 425 -284 476 -266 b 607 -31 578 -183 607 -118 b 378 159 607 95 531 159 b 206 186 301 159 243 168 b 126 319 153 211 126 254 b 185 525 126 384 146 452 b 319 694 224 597 269 654 b 492 725 383 694 440 704 b 586 820 554 750 586 783 b 507 880 586 861 560 880 b 307 762 456 880 389 841 b 263 833 278 772 263 795 b 350 927 263 872 292 902 l 338 961 "},"𝓩":{"x_min":69.4375,"x_max":1355.5625,"ha":1383,"o":"m 611 737 b 445 621 561 651 506 621 b 338 726 386 621 338 654 b 540 876 338 818 427 876 b 852 800 659 876 751 848 b 643 498 756 718 693 607 b 405 382 544 498 473 459 l 447 326 b 590 387 518 383 565 387 l 593 387 b 515 210 563 316 543 261 b 470 144 501 185 486 164 b 266 200 400 173 331 200 b 127 170 212 200 162 190 b 69 84 90 149 69 119 b 251 -26 69 32 106 -26 b 473 25 330 -26 404 -6 b 545 -5 494 14 518 4 b 763 -30 602 -23 673 -30 b 1130 248 977 -30 1093 74 l 1061 248 b 759 64 1008 103 854 64 b 584 98 698 64 640 77 b 761 312 655 155 715 227 b 781 355 768 326 775 340 b 1000 480 873 355 944 412 l 955 526 b 827 466 908 482 861 468 b 975 766 863 566 900 669 b 1156 727 1038 747 1093 727 b 1355 848 1318 727 1355 800 b 1159 955 1355 895 1301 955 b 931 870 1087 955 1011 927 b 545 970 836 933 700 970 b 212 729 331 970 212 841 b 427 544 212 614 304 544 b 673 707 554 544 630 619 l 611 737 m 1030 833 b 1161 879 1072 870 1119 879 b 1229 844 1212 879 1229 861 b 1155 804 1229 811 1195 804 b 1030 830 1108 804 1055 822 l 1030 833 m 386 77 b 275 50 350 58 312 50 b 195 84 226 50 195 63 b 251 123 195 102 205 123 b 386 77 302 123 343 102 "},"Í":{"x_min":25,"x_max":437.5,"ha":463,"o":"m 88 1051 l 144 1051 l 358 1186 b 400 1244 387 1204 400 1222 b 351 1288 400 1272 381 1288 b 293 1256 330 1288 318 1281 l 88 1051 m 437 0 l 437 26 b 301 155 323 30 301 51 l 301 765 b 437 893 301 870 320 887 l 437 919 l 25 919 l 25 893 b 159 765 143 886 159 875 l 159 155 b 25 26 159 47 141 30 l 25 0 l 437 0 "},"Ú":{"x_min":19.4375,"x_max":979.171875,"ha":1003,"o":"m 366 1051 l 422 1051 l 636 1186 b 677 1244 665 1204 677 1222 b 629 1288 677 1272 659 1288 b 570 1256 608 1288 595 1281 l 366 1051 m 979 919 l 656 919 l 656 893 b 787 712 769 886 787 855 l 787 347 b 736 123 787 234 781 179 b 525 41 691 72 613 41 b 347 104 445 41 387 65 b 286 329 291 158 286 220 l 286 762 b 412 893 286 866 301 883 l 412 919 l 19 919 l 19 893 b 144 776 129 884 144 869 l 144 345 b 256 44 144 198 180 101 b 493 -19 313 1 391 -19 b 773 81 620 -19 715 15 b 848 362 836 152 848 227 l 848 716 b 979 893 848 848 862 881 l 979 919 "},"𝙤":{"x_min":100,"x_max":752.78125,"ha":696,"o":"m 752 413 b 515 656 752 559 659 656 b 100 223 315 656 100 475 b 341 -19 100 77 197 -19 b 752 413 541 -19 752 170 m 579 409 b 375 112 579 352 534 112 b 276 236 306 112 276 162 b 473 525 276 369 358 525 b 579 409 544 525 579 483 "}}}
